SeanSlab-WideSemibold.ufo
<glyph name="exclam" format="1">
  <advance width="288"/>
  <unicode hex="0021"/>
  <outline>
    <contour>
      <point x="188" y="229" type="line"/>
      <point x="202" y="722" type="line"/>
      <point x="87" y="722" type="line"/>
      <point x="100" y="229" type="line"/>
    </contour>
    <contour>
      <point x="211" y="46" type="curve"/>
      <point x="211" y="83"/>
      <point x="182" y="101"/>
      <point x="143" y="101" type="curve"/>
      <point x="105" y="101"/>
      <point x="78" y="81"/>
      <point x="78" y="46" type="curve"/>
      <point x="203" y="46"/>
      <point x="86" y="46"/>
      <point x="211" y="46" type="curve"/>
      <point x="211" y="8"/>
      <point x="182" y="-8"/>
      <point x="143" y="-8" type="curve"/>
      <point x="104" y="-8"/>
      <point x="78" y="10"/>
      <point x="78" y="46" type="curve"/>
      <point x="203" y="46"/>
      <point x="86" y="46"/>
    </contour>
  </outline>
</glyph>
<glyph name="numbersign" format="1">
  <advance width="838"/>
  <unicode hex="0023"/>
  <outline>
    <contour>
      <point x="47" y="226" type="curve"/>
      <point x="669" y="226" type="curve"/>
      <point x="702" y="309" type="curve"/>
      <point x="81" y="309" type="curve"/>
    </contour>
    <contour>
      <point x="132" y="449" type="curve"/>
      <point x="759" y="449" type="curve"/>
      <point x="790" y="532" type="curve"/>
      <point x="164" y="532" type="curve"/>
    </contour>
    <contour>
      <point x="514" y="39" type="curve"/>
      <point x="787" y="722" type="curve"/>
      <point x="676" y="722" type="curve"/>
      <point x="402" y="39" type="curve"/>
    </contour>
    <contour>
      <point x="174" y="46" type="curve"/>
      <point x="443" y="722" type="curve"/>
      <point x="333" y="722" type="curve"/>
      <point x="68" y="46" type="curve"/>
    </contour>
  </outline>
</glyph>
<glyph name="dollar" format="1">
  <advance width="708"/>
  <unicode hex="0024"/>
  <outline>
    <contour>
      <point x="150" y="94" type="curve"/>
      <point x="150" y="214"/>
      <point x="150" y="111"/>
      <point x="150" y="231" type="curve"/>
      <point x="64" y="231"/>
      <point x="150" y="231"/>
      <point x="64" y="231" type="curve"/>
      <point x="64" y="111"/>
      <point x="64" y="214"/>
      <point x="64" y="94" type="curve"/>
      <point x="150" y="94"/>
      <point x="64" y="94"/>
    </contour>
    <contour>
      <point x="531" y="634" type="curve"/>
      <point x="531" y="514"/>
      <point x="531" y="617"/>
      <point x="531" y="497" type="curve"/>
      <point x="617" y="497"/>
      <point x="531" y="497"/>
      <point x="617" y="497" type="curve"/>
      <point x="617" y="617"/>
      <point x="617" y="514"/>
      <point x="617" y="634" type="curve"/>
      <point x="531" y="634"/>
      <point x="617" y="634"/>
    </contour>
    <contour>
      <point x="388" y="-40" type="curve"/>
      <point x="388" y="-9"/>
      <point x="388" y="54"/>
      <point x="388" y="85" type="curve"/>
      <point x="277" y="85"/>
      <point x="388" y="85"/>
      <point x="277" y="85" type="curve"/>
      <point x="277" y="54"/>
      <point x="277" y="-9"/>
      <point x="277" y="-40" type="curve"/>
      <point x="388" y="-40"/>
      <point x="277" y="-40"/>
    </contour>
    <contour>
      <point x="403" y="644" type="curve"/>
      <point x="403" y="675"/>
      <point x="403" y="742"/>
      <point x="403" y="773" type="curve"/>
      <point x="292" y="773"/>
      <point x="403" y="773"/>
      <point x="292" y="773" type="curve"/>
      <point x="292" y="742"/>
      <point x="292" y="675"/>
      <point x="292" y="644" type="curve"/>
      <point x="403" y="644"/>
      <point x="292" y="644"/>
    </contour>
    <contour>
      <point x="64" y="94" type="curve"/>
      <point x="139" y="66"/>
      <point x="228" y="44"/>
      <point x="327" y="44" type="curve"/>
      <point x="504" y="44"/>
      <point x="658" y="76"/>
      <point x="658" y="214" type="curve"/>
      <point x="658" y="338"/>
      <point x="521" y="368"/>
      <point x="383" y="411" type="curve"/>
      <point x="284" y="442"/>
      <point x="187" y="457"/>
      <point x="187" y="527" type="curve"/>
      <point x="187" y="590"/>
      <point x="264" y="604"/>
      <point x="351" y="604" type="curve"/>
      <point x="432" y="604"/>
      <point x="489" y="593"/>
      <point x="562" y="564" type="curve"/>
      <point x="617" y="634"/>
      <point x="562" y="564"/>
      <point x="617" y="634" type="curve"/>
      <point x="527" y="669"/>
      <point x="456" y="686"/>
      <point x="357" y="686" type="curve"/>
      <point x="203" y="686"/>
      <point x="76" y="649"/>
      <point x="76" y="527" type="curve"/>
      <point x="76" y="410"/>
      <point x="187" y="377"/>
      <point x="318" y="337" type="curve"/>
      <point x="425" y="304"/>
      <point x="547" y="290"/>
      <point x="547" y="210" type="curve"/>
      <point x="547" y="133"/>
      <point x="447" y="126"/>
      <point x="337" y="126" type="curve"/>
      <point x="257" y="126"/>
      <point x="185" y="146"/>
      <point x="124" y="167" type="curve"/>
      <point x="64" y="93"/>
      <point x="124" y="168"/>
    </contour>
  </outline>
</glyph>
<glyph name="percent" format="1">
  <advance width="1321"/>
  <unicode hex="0025"/>
  <outline>
    <contour>
      <point x="455" y="-53" type="line"/>
      <point x="991" y="722" type="line"/>
      <point x="889" y="722" type="line"/>
      <point x="352" y="-53" type="line"/>
    </contour>
    <contour>
      <point x="147" y="507" type="curve"/>
      <point x="147" y="591"/>
      <point x="198" y="644"/>
      <point x="282" y="644" type="curve"/>
      <point x="368" y="645"/>
      <point x="420" y="592"/>
      <point x="420" y="506" type="curve"/>
      <point x="420" y="421"/>
      <point x="372" y="366"/>
      <point x="289" y="366" type="curve"/>
      <point x="201" y="366"/>
      <point x="147" y="419"/>
      <point x="147" y="507" type="curve"/>
      <point x="108" y="507"/>
      <point x="81" y="507"/>
      <point x="42" y="507" type="curve"/>
      <point x="42" y="365"/>
      <point x="138" y="284"/>
      <point x="283" y="284" type="curve"/>
      <point x="431" y="284"/>
      <point x="529" y="366"/>
      <point x="529" y="510" type="curve"/>
      <point x="529" y="649"/>
      <point x="432" y="725"/>
      <point x="287" y="726" type="curve"/>
      <point x="141" y="726"/>
      <point x="42" y="648"/>
      <point x="42" y="507" type="curve"/>
      <point x="81" y="507"/>
      <point x="108" y="507"/>
    </contour>
    <contour>
      <point x="897" y="162" type="curve"/>
      <point x="897" y="246"/>
      <point x="949" y="299"/>
      <point x="1033" y="299" type="curve"/>
      <point x="1118" y="300"/>
      <point x="1170" y="247"/>
      <point x="1170" y="161" type="curve"/>
      <point x="1170" y="76"/>
      <point x="1122" y="21"/>
      <point x="1039" y="21" type="curve"/>
      <point x="951" y="21"/>
      <point x="897" y="74"/>
      <point x="897" y="162" type="curve"/>
      <point x="858" y="162"/>
      <point x="832" y="162"/>
      <point x="793" y="162" type="curve"/>
      <point x="793" y="20"/>
      <point x="889" y="-60"/>
      <point x="1034" y="-60" type="curve"/>
      <point x="1182" y="-60"/>
      <point x="1279" y="21"/>
      <point x="1279" y="165" type="curve"/>
      <point x="1279" y="304"/>
      <point x="1182" y="380"/>
      <point x="1038" y="381" type="curve"/>
      <point x="891" y="381"/>
      <point x="793" y="303"/>
      <point x="793" y="162" type="curve"/>
      <point x="832" y="162"/>
      <point x="858" y="162"/>
    </contour>
  </outline>
</glyph>
<glyph name="quotesingle" format="1">
  <advance width="270"/>
  <unicode hex="0027"/>
  <outline>
    <contour>
      <point x="189" y="624" type="line"/>
      <point x="197" y="842" type="line"/>
      <point x="73" y="842" type="line"/>
      <point x="80" y="624" type="line"/>
    </contour>
  </outline>
</glyph>
<glyph name="parenleft" format="1">
  <advance width="451"/>
  <unicode hex="0028"/>
  <outline>
    <contour>
      <point x="444" y="-214" type="curve"/>
      <point x="258" y="-67"/>
      <point x="160" y="88"/>
      <point x="160" y="326" type="curve"/>
      <point x="160" y="564"/>
      <point x="258" y="718"/>
      <point x="442" y="869" type="curve"/>
      <point x="377" y="922"/>
      <point x="442" y="869"/>
      <point x="377" y="922" type="curve"/>
      <point x="168" y="758"/>
      <point x="51" y="592"/>
      <point x="51" y="326" type="curve"/>
      <point x="51" y="59"/>
      <point x="168" y="-106"/>
      <point x="378" y="-272" type="curve"/>
      <point x="444" y="-214"/>
      <point x="378" y="-272"/>
    </contour>
  </outline>
</glyph>
<glyph name="parenright" format="1">
  <advance width="460"/>
  <unicode hex="0029"/>
  <outline>
    <contour>
      <point x="67" y="-286" type="curve"/>
      <point x="281" y="-113"/>
      <point x="411" y="52"/>
      <point x="411" y="328" type="curve"/>
      <point x="411" y="598"/>
      <point x="288" y="762"/>
      <point x="72" y="924" type="curve"/>
      <point x="6" y="866"/>
      <point x="72" y="924"/>
      <point x="6" y="866" type="curve"/>
      <point x="196" y="717"/>
      <point x="301" y="565"/>
      <point x="301" y="325" type="curve"/>
      <point x="301" y="79"/>
      <point x="187" y="-73"/>
      <point x="1" y="-233" type="curve"/>
      <point x="67" y="-286"/>
      <point x="1" y="-233"/>
    </contour>
  </outline>
</glyph>
<glyph name="asterisk" format="1">
  <advance width="646"/>
  <unicode hex="002A"/>
  <outline>
    <contour>
      <point x="361" y="616" type="line"/>
      <point x="366" y="834" type="line"/>
      <point x="276" y="834" type="line"/>
      <point x="282" y="616" type="line"/>
    </contour>
    <contour>
      <point x="375" y="554" type="line"/>
      <point x="582" y="621" type="line"/>
      <point x="551" y="706" type="line"/>
      <point x="348" y="629" type="line"/>
    </contour>
    <contour>
      <point x="319" y="521" type="line"/>
      <point x="452" y="348" type="line"/>
      <point x="521" y="405" type="line"/>
      <point x="380" y="571" type="line"/>
    </contour>
    <contour>
      <point x="272" y="568" type="line"/>
      <point x="132" y="402" type="line"/>
      <point x="201" y="344" type="line"/>
      <point x="333" y="517" type="line"/>
    </contour>
    <contour>
      <point x="298" y="623" type="line"/>
      <point x="95" y="701" type="line"/>
      <point x="65" y="616" type="line"/>
      <point x="272" y="549" type="line"/>
    </contour>
  </outline>
</glyph>
<glyph name="plus" format="1">
  <advance width="725"/>
  <unicode hex="002B"/>
  <outline>
    <contour>
      <point x="50" y="266" type="curve"/>
      <point x="675" y="266" type="line"/>
      <point x="675" y="357"/>
      <point x="675" y="266"/>
      <point x="675" y="357" type="curve"/>
      <point x="50" y="357" type="line"/>
      <point x="50" y="266"/>
      <point x="50" y="357"/>
    </contour>
    <contour>
      <point x="416" y="21" type="curve"/>
      <point x="416" y="587" type="line"/>
      <point x="305" y="587"/>
      <point x="422" y="587"/>
      <point x="312" y="587" type="curve"/>
      <point x="312" y="21" type="line"/>
      <point x="422" y="21"/>
      <point x="305" y="21"/>
    </contour>
  </outline>
</glyph>
<glyph name="comma" format="1">
  <advance width="300"/>
  <unicode hex="002C"/>
  <outline>
    <contour>
      <point x="63" y="-122" type="line"/>
      <point x="152" y="-112"/>
      <point x="216" y="-52"/>
      <point x="216" y="38" type="curve"/>
      <point x="216" y="98"/>
      <point x="187" y="145"/>
      <point x="137" y="145" type="curve"/>
      <point x="99" y="145"/>
      <point x="72" y="126"/>
      <point x="72" y="90" type="curve"/>
      <point x="72" y="53"/>
      <point x="99" y="34"/>
      <point x="139" y="33" type="curve"/>
      <point x="138" y="-6"/>
      <point x="121" y="-47"/>
      <point x="58" y="-62" type="curve"/>
    </contour>
  </outline>
</glyph>
<glyph name="hyphen" format="1">
  <advance width="529"/>
  <unicode hex="002D"/>
  <outline>
    <contour>
      <point x="81" y="234" type="curve"/>
      <point x="203" y="234"/>
      <point x="326" y="234"/>
      <point x="448" y="234" type="curve"/>
      <point x="448" y="326"/>
      <point x="448" y="234"/>
      <point x="448" y="326" type="curve"/>
      <point x="326" y="326"/>
      <point x="203" y="326"/>
      <point x="81" y="326" type="curve"/>
      <point x="81" y="234"/>
      <point x="81" y="326"/>
    </contour>
  </outline>
</glyph>
<glyph name="period" format="1">
  <advance width="283"/>
  <unicode hex="002E"/>
  <outline>
    <contour>
      <point x="208" y="46" type="curve"/>
      <point x="208" y="83"/>
      <point x="179" y="101"/>
      <point x="140" y="101" type="curve"/>
      <point x="102" y="101"/>
      <point x="75" y="81"/>
      <point x="75" y="46" type="curve"/>
      <point x="200" y="46"/>
      <point x="83" y="46"/>
      <point x="208" y="46" type="curve"/>
      <point x="208" y="8"/>
      <point x="179" y="-8"/>
      <point x="140" y="-8" type="curve"/>
      <point x="101" y="-8"/>
      <point x="75" y="10"/>
      <point x="75" y="46" type="curve"/>
      <point x="200" y="46"/>
      <point x="83" y="46"/>
    </contour>
  </outline>
</glyph>
<glyph name="slash" format="1">
  <advance width="713"/>
  <unicode hex="002F"/>
  <outline>
    <contour>
      <point x="144" y="-30" type="curve"/>
      <point x="322" y="247"/>
      <point x="501" y="524"/>
      <point x="680" y="801" type="curve"/>
      <point x="569" y="801"/>
      <point x="680" y="801"/>
      <point x="569" y="801" type="curve"/>
      <point x="390" y="524"/>
      <point x="212" y="247"/>
      <point x="32" y="-30" type="curve"/>
      <point x="144" y="-30"/>
      <point x="32" y="-30"/>
    </contour>
  </outline>
</glyph>
<glyph name="zero" format="1">
  <advance width="912"/>
  <unicode hex="0030"/>
  <outline>
    <contour>
      <point x="177" y="360" type="curve"/>
      <point x="177" y="536"/>
      <point x="279" y="640"/>
      <point x="453" y="640" type="curve"/>
      <point x="627" y="640"/>
      <point x="734" y="538"/>
      <point x="734" y="363" type="curve"/>
      <point x="734" y="188"/>
      <point x="633" y="83"/>
      <point x="462" y="83" type="curve"/>
      <point x="285" y="83"/>
      <point x="177" y="184"/>
      <point x="177" y="360" type="curve"/>
      <point x="65" y="360"/>
      <point x="176" y="360"/>
      <point x="64" y="360" type="curve"/>
      <point x="64" y="126"/>
      <point x="217" y="-5"/>
      <point x="457" y="-5" type="curve"/>
      <point x="697" y="-5"/>
      <point x="847" y="128"/>
      <point x="847" y="363" type="curve"/>
      <point x="847" y="595"/>
      <point x="699" y="727"/>
      <point x="463" y="727" type="curve"/>
      <point x="219" y="727"/>
      <point x="64" y="596"/>
      <point x="64" y="360" type="curve"/>
      <point x="176" y="360"/>
      <point x="65" y="360"/>
    </contour>
  </outline>
</glyph>
<glyph name="one" format="1">
  <advance width="548"/>
  <unicode hex="0031"/>
  <outline>
    <contour>
      <point x="329" y="0" type="curve"/>
      <point x="388" y="0"/>
      <point x="448" y="0"/>
      <point x="508" y="0" type="curve"/>
      <point x="508" y="83"/>
      <point x="508" y="0"/>
      <point x="508" y="83" type="curve"/>
      <point x="329" y="83"/>
      <point x="508" y="83"/>
      <point x="329" y="83" type="curve"/>
      <point x="329" y="0"/>
      <point x="329" y="83"/>
    </contour>
    <contour>
      <point x="329" y="83" type="curve"/>
      <point x="149" y="83"/>
      <point x="329" y="83"/>
      <point x="149" y="83" type="curve"/>
      <point x="149" y="0"/>
      <point x="149" y="83"/>
      <point x="149" y="0" type="curve"/>
      <point x="208" y="0"/>
      <point x="268" y="0"/>
      <point x="329" y="0" type="curve"/>
      <point x="329" y="83"/>
      <point x="329" y="0"/>
    </contour>
    <contour>
      <point x="79" y="488" type="curve"/>
      <point x="353" y="666"/>
      <point x="79" y="488"/>
      <point x="353" y="666" type="curve"/>
      <point x="271" y="722"/>
      <point x="353" y="666"/>
      <point x="271" y="722" type="curve"/>
      <point x="30" y="563"/>
      <point x="271" y="722"/>
      <point x="30" y="563" type="curve"/>
      <point x="79" y="488"/>
      <point x="30" y="563"/>
    </contour>
    <contour>
      <point x="381" y="0" type="curve"/>
      <point x="381" y="241"/>
      <point x="381" y="481"/>
      <point x="381" y="722" type="curve"/>
      <point x="271" y="722"/>
      <point x="381" y="722"/>
      <point x="271" y="722" type="curve"/>
      <point x="271" y="481"/>
      <point x="271" y="241"/>
      <point x="271" y="0" type="curve"/>
      <point x="381" y="0"/>
      <point x="271" y="0"/>
    </contour>
  </outline>
</glyph>
<glyph name="two" format="1">
  <advance width="750"/>
  <unicode hex="0032"/>
  <outline>
    <contour>
      <point x="681" y="83" type="curve"/>
      <point x="681" y="201"/>
      <point x="681" y="82"/>
      <point x="681" y="200" type="curve"/>
      <point x="595" y="200"/>
      <point x="681" y="200"/>
      <point x="595" y="200" type="curve"/>
      <point x="595" y="82"/>
      <point x="595" y="201"/>
      <point x="595" y="83" type="curve"/>
      <point x="681" y="83"/>
      <point x="595" y="83"/>
    </contour>
    <contour>
      <point x="53" y="0" type="curve"/>
      <point x="293" y="0"/>
      <point x="491" y="0"/>
      <point x="681" y="0" type="curve"/>
      <point x="681" y="83"/>
      <point x="681" y="0"/>
      <point x="681" y="83" type="curve"/>
      <point x="473" y="83"/>
      <point x="261" y="83"/>
      <point x="54" y="83" type="curve"/>
      <point x="53" y="0"/>
      <point x="54" y="83"/>
    </contour>
    <contour>
      <point x="141" y="525" type="curve"/>
      <point x="208" y="601"/>
      <point x="267" y="640"/>
      <point x="359" y="640" type="curve"/>
      <point x="458" y="640"/>
      <point x="531" y="605"/>
      <point x="531" y="510" type="curve"/>
      <point x="531" y="399"/>
      <point x="438" y="340"/>
      <point x="333" y="272" type="curve"/>
      <point x="240" y="209"/>
      <point x="147" y="146"/>
      <point x="54" y="83" type="curve"/>
      <point x="57" y="0"/>
      <point x="54" y="83"/>
      <point x="57" y="0" type="curve"/>
      <point x="208" y="68"/>
      <point x="304" y="139"/>
      <point x="404" y="207" type="curve"/>
      <point x="533" y="290"/>
      <point x="634" y="360"/>
      <point x="634" y="514" type="curve"/>
      <point x="634" y="664"/>
      <point x="523" y="727"/>
      <point x="364" y="727" type="curve"/>
      <point x="235" y="727"/>
      <point x="137" y="679"/>
      <point x="68" y="576" type="curve"/>
      <point x="141" y="525"/>
      <point x="68" y="576"/>
    </contour>
  </outline>
</glyph>
<glyph name="three" format="1">
  <advance width="678"/>
  <unicode hex="0033"/>
  <outline>
    <contour>
      <point x="53" y="55" type="curve"/>
      <point x="116" y="19"/>
      <point x="198" y="-5"/>
      <point x="295" y="-5" type="curve"/>
      <point x="477" y="-5"/>
      <point x="616" y="42"/>
      <point x="616" y="214" type="curve"/>
      <point x="616" y="364"/>
      <point x="433" y="409"/>
      <point x="193" y="409" type="curve"/>
      <point x="193" y="340"/>
      <point x="193" y="409"/>
      <point x="193" y="339" type="curve"/>
      <point x="348" y="339"/>
      <point x="510" y="314"/>
      <point x="510" y="211" type="curve"/>
      <point x="510" y="99"/>
      <point x="403" y="83"/>
      <point x="298" y="83" type="curve"/>
      <point x="237" y="83"/>
      <point x="171" y="97"/>
      <point x="101" y="127" type="curve"/>
      <point x="53" y="55"/>
      <point x="101" y="127"/>
    </contour>
    <contour>
      <point x="111" y="578" type="curve"/>
      <point x="153" y="612"/>
      <point x="222" y="639"/>
      <point x="291" y="639" type="curve"/>
      <point x="390" y="639"/>
      <point x="468" y="622"/>
      <point x="468" y="534" type="curve"/>
      <point x="468" y="443"/>
      <point x="332" y="418"/>
      <point x="193" y="418" type="curve"/>
      <point x="193" y="348"/>
      <point x="193" y="417"/>
      <point x="193" y="348" type="curve"/>
      <point x="400" y="348"/>
      <point x="574" y="392"/>
      <point x="574" y="538" type="curve"/>
      <point x="574" y="679"/>
      <point x="454" y="727"/>
      <point x="299" y="727" type="curve"/>
      <point x="197" y="727"/>
      <point x="104" y="688"/>
      <point x="55" y="642" type="curve"/>
      <point x="111" y="578"/>
      <point x="55" y="642"/>
    </contour>
  </outline>
</glyph>
<glyph name="four" format="1">
  <advance width="768"/>
  <unicode hex="0034"/>
  <outline>
    <contour>
      <point x="473" y="83" type="line"/>
      <point x="318" y="83" type="line"/>
      <point x="318" y="0" type="line"/>
      <point x="473" y="0" type="line"/>
    </contour>
    <contour>
      <point x="473" y="0" type="line"/>
      <point x="628" y="0" type="line"/>
      <point x="628" y="83" type="line"/>
      <point x="473" y="83" type="line"/>
    </contour>
    <contour>
      <point x="77" y="247" type="line"/>
      <point x="504" y="668" type="line"/>
      <point x="419" y="705" type="line"/>
      <point x="36" y="329" type="line"/>
    </contour>
    <contour>
      <point x="722" y="329" type="line"/>
      <point x="36" y="329" type="line"/>
      <point x="36" y="238" type="line"/>
      <point x="722" y="238" type="line"/>
    </contour>
    <contour>
      <point x="530" y="32" type="line"/>
      <point x="530" y="705" type="line"/>
      <point x="420" y="705" type="line"/>
      <point x="420" y="32" type="line"/>
    </contour>
  </outline>
</glyph>
<glyph name="six" format="1">
  <advance width="745"/>
  <unicode hex="0036"/>
  <outline>
    <contour>
      <point x="150" y="225" type="curve"/>
      <point x="201" y="317"/>
      <point x="283" y="351"/>
      <point x="390" y="351" type="curve"/>
      <point x="494" y="351"/>
      <point x="571" y="315"/>
      <point x="571" y="218" type="curve"/>
      <point x="571" y="123"/>
      <point x="493" y="88"/>
      <point x="391" y="88" type="curve"/>
      <point x="261" y="88"/>
      <point x="166" y="138"/>
      <point x="166" y="254" type="curve"/>
      <point x="166" y="509"/>
      <point x="397" y="587"/>
      <point x="665" y="648" type="curve"/>
      <point x="641" y="731"/>
      <point x="665" y="648"/>
      <point x="641" y="731" type="curve"/>
      <point x="340" y="670"/>
      <point x="59" y="559"/>
      <point x="59" y="250" type="curve"/>
      <point x="59" y="73"/>
      <point x="196" y="-10"/>
      <point x="386" y="-10" type="curve"/>
      <point x="558" y="-10"/>
      <point x="683" y="61"/>
      <point x="683" y="218" type="curve"/>
      <point x="683" y="373"/>
      <point x="562" y="438"/>
      <point x="398" y="438" type="curve"/>
      <point x="253" y="438"/>
      <point x="144" y="367"/>
      <point x="75" y="265" type="curve"/>
      <point x="150" y="225"/>
      <point x="76" y="265"/>
    </contour>
  </outline>
</glyph>
<glyph name="seven" format="1">
  <advance width="684"/>
  <unicode hex="0037"/>
  <outline>
    <contour>
      <point x="142" y="522" type="line"/>
      <point x="142" y="640" type="line"/>
      <point x="55" y="640" type="line"/>
      <point x="55" y="522" type="line"/>
    </contour>
    <contour>
      <point x="55" y="639" type="line"/>
      <point x="662" y="639" type="line"/>
      <point x="662" y="722" type="line"/>
      <point x="55" y="722" type="line"/>
    </contour>
    <contour>
      <point x="595" y="722" type="line"/>
      <point x="94" y="0" type="line"/>
      <point x="222" y="0" type="line"/>
      <point x="662" y="639" type="line"/>
    </contour>
  </outline>
</glyph>
<glyph name="eight" format="1">
  <advance width="726"/>
  <unicode hex="0038"/>
  <outline>
    <contour>
      <point x="90" y="544" type="curve"/>
      <point x="90" y="415"/>
      <point x="203" y="395"/>
      <point x="331" y="349" type="curve"/>
      <point x="445" y="308"/>
      <point x="549" y="295"/>
      <point x="549" y="187" type="curve"/>
      <point x="549" y="100"/>
      <point x="467" y="79"/>
      <point x="363" y="79" type="curve"/>
      <point x="257" y="79"/>
      <point x="177" y="100"/>
      <point x="177" y="187" type="curve"/>
      <point x="177" y="297"/>
      <point x="285" y="308"/>
      <point x="400" y="350" type="curve"/>
      <point x="524" y="398"/>
      <point x="636" y="415"/>
      <point x="636" y="543" type="curve"/>
      <point x="636" y="685"/>
      <point x="523" y="727"/>
      <point x="363" y="727" type="curve"/>
      <point x="207" y="727"/>
      <point x="90" y="682"/>
      <point x="90" y="544" type="curve"/>
      <point x="201" y="544"/>
      <point x="90" y="544"/>
      <point x="201" y="544" type="curve"/>
      <point x="201" y="619"/>
      <point x="269" y="642"/>
      <point x="358" y="642" type="curve"/>
      <point x="454" y="642"/>
      <point x="526" y="623"/>
      <point x="526" y="543" type="curve"/>
      <point x="526" y="448"/>
      <point x="429" y="442"/>
      <point x="329" y="407" type="curve"/>
      <point x="189" y="355"/>
      <point x="66" y="330"/>
      <point x="66" y="187" type="curve"/>
      <point x="66" y="39"/>
      <point x="190" y="-5"/>
      <point x="357" y="-5" type="curve"/>
      <point x="529" y="-5"/>
      <point x="660" y="35"/>
      <point x="660" y="187" type="curve"/>
      <point x="660" y="328"/>
      <point x="538" y="355"/>
      <point x="400" y="406" type="curve"/>
      <point x="299" y="444"/>
      <point x="201" y="450"/>
      <point x="201" y="544" type="curve"/>
      <point x="90" y="544"/>
      <point x="201" y="544"/>
    </contour>
  </outline>
</glyph>
<glyph name="nine" format="1">
  <advance width="747"/>
  <unicode hex="0039"/>
  <outline>
    <contour>
      <point x="597" y="495" type="curve"/>
      <point x="545" y="404"/>
      <point x="473" y="371"/>
      <point x="367" y="371" type="curve"/>
      <point x="257" y="371"/>
      <point x="174" y="408"/>
      <point x="174" y="508" type="curve"/>
      <point x="174" y="600"/>
      <point x="253" y="634"/>
      <point x="355" y="634" type="curve"/>
      <point x="485" y="634"/>
      <point x="580" y="586"/>
      <point x="580" y="468" type="curve"/>
      <point x="580" y="214"/>
      <point x="357" y="131"/>
      <point x="83" y="78" type="curve"/>
      <point x="108" y="-9"/>
      <point x="82" y="78"/>
      <point x="107" y="-9" type="curve"/>
      <point x="425" y="40"/>
      <point x="686" y="163"/>
      <point x="686" y="472" type="curve"/>
      <point x="686" y="649"/>
      <point x="550" y="732"/>
      <point x="360" y="732" type="curve"/>
      <point x="188" y="732"/>
      <point x="64" y="661"/>
      <point x="64" y="504" type="curve"/>
      <point x="64" y="349"/>
      <point x="188" y="284"/>
      <point x="357" y="284" type="curve"/>
      <point x="501" y="284"/>
      <point x="595" y="342"/>
      <point x="651" y="467" type="curve"/>
      <point x="597" y="495"/>
      <point x="651" y="467"/>
    </contour>
  </outline>
</glyph>
<glyph name="colon" format="1">
  <advance width="296"/>
  <unicode hex="003A"/>
  <outline>
    <contour>
      <point x="215" y="260" type="curve"/>
      <point x="215" y="297"/>
      <point x="186" y="315"/>
      <point x="147" y="315" type="curve"/>
      <point x="109" y="315"/>
      <point x="82" y="295"/>
      <point x="82" y="260" type="curve"/>
      <point x="207" y="260"/>
      <point x="90" y="260"/>
      <point x="215" y="260" type="curve"/>
      <point x="215" y="222"/>
      <point x="186" y="206"/>
      <point x="147" y="206" type="curve"/>
      <point x="108" y="206"/>
      <point x="82" y="224"/>
      <point x="82" y="260" type="curve"/>
      <point x="207" y="260"/>
      <point x="90" y="260"/>
    </contour>
    <contour>
      <point x="214" y="180" type="curve"/>
      <point x="214" y="217"/>
      <point x="185" y="235"/>
      <point x="147" y="235" type="curve"/>
      <point x="108" y="235"/>
      <point x="82" y="215"/>
      <point x="82" y="180" type="curve"/>
      <point x="206" y="180"/>
      <point x="89" y="180"/>
      <point x="214" y="180" type="curve"/>
      <point x="214" y="142"/>
      <point x="186" y="125"/>
      <point x="146" y="125" type="curve"/>
      <point x="107" y="125"/>
      <point x="82" y="144"/>
      <point x="82" y="180" type="curve"/>
      <point x="206" y="180"/>
      <point x="89" y="180"/>
    </contour>
  </outline>
</glyph>
<glyph name="semicolon" format="1">
  <advance width="322"/>
  <unicode hex="003B"/>
  <outline>
    <contour>
      <point x="84" y="-140" type="line"/>
      <point x="173" y="-131"/>
      <point x="238" y="-71"/>
      <point x="238" y="19" type="curve"/>
      <point x="238" y="79"/>
      <point x="209" y="126"/>
      <point x="159" y="126" type="curve"/>
      <point x="121" y="126"/>
      <point x="93" y="108"/>
      <point x="93" y="71" type="curve"/>
      <point x="93" y="35"/>
      <point x="120" y="16"/>
      <point x="160" y="14" type="curve"/>
      <point x="159" y="-24"/>
      <point x="143" y="-65"/>
      <point x="79" y="-81" type="curve"/>
    </contour>
    <contour>
      <point x="221" y="394" type="curve"/>
      <point x="221" y="431"/>
      <point x="193" y="449"/>
      <point x="154" y="449" type="curve"/>
      <point x="115" y="449"/>
      <point x="89" y="429"/>
      <point x="89" y="394" type="curve"/>
      <point x="214" y="394"/>
      <point x="96" y="394"/>
      <point x="221" y="394" type="curve"/>
      <point x="221" y="356"/>
      <point x="193" y="340"/>
      <point x="153" y="340" type="curve"/>
      <point x="114" y="340"/>
      <point x="89" y="358"/>
      <point x="89" y="394" type="curve"/>
      <point x="214" y="394"/>
      <point x="96" y="394"/>
    </contour>
  </outline>
</glyph>
<glyph name="less" format="1">
  <advance width="889"/>
  <unicode hex="003C"/>
  <outline>
    <contour>
      <point x="809" y="615" type="curve"/>
      <point x="554" y="525"/>
      <point x="298" y="435"/>
      <point x="42" y="345" type="curve"/>
      <point x="42" y="255"/>
      <point x="42" y="345"/>
      <point x="42" y="255" type="curve"/>
      <point x="298" y="345"/>
      <point x="554" y="435"/>
      <point x="809" y="525" type="curve"/>
      <point x="809" y="615"/>
      <point x="809" y="525"/>
    </contour>
    <contour>
      <point x="822" y="81" type="curve"/>
      <point x="562" y="169"/>
      <point x="303" y="257"/>
      <point x="42" y="345" type="curve"/>
      <point x="42" y="255"/>
      <point x="42" y="345"/>
      <point x="42" y="255" type="curve"/>
      <point x="303" y="167"/>
      <point x="562" y="79"/>
      <point x="822" y="-9" type="curve"/>
      <point x="822" y="81"/>
      <point x="822" y="-9"/>
    </contour>
  </outline>
</glyph>
<glyph name="greater" format="1">
  <advance width="890"/>
  <unicode hex="003E"/>
  <outline>
    <contour>
      <point x="80" y="-9" type="curve"/>
      <point x="336" y="81"/>
      <point x="592" y="171"/>
      <point x="848" y="261" type="curve"/>
      <point x="848" y="351"/>
      <point x="848" y="261"/>
      <point x="848" y="351" type="curve"/>
      <point x="592" y="261"/>
      <point x="336" y="171"/>
      <point x="80" y="81" type="curve"/>
      <point x="80" y="-9"/>
      <point x="80" y="81"/>
    </contour>
    <contour>
      <point x="68" y="525" type="curve"/>
      <point x="327" y="437"/>
      <point x="588" y="349"/>
      <point x="848" y="261" type="curve"/>
      <point x="848" y="351"/>
      <point x="848" y="261"/>
      <point x="848" y="351" type="curve"/>
      <point x="588" y="439"/>
      <point x="327" y="527"/>
      <point x="68" y="615" type="curve"/>
      <point x="68" y="525"/>
      <point x="68" y="615"/>
    </contour>
  </outline>
</glyph>
<glyph name="question" format="1">
  <advance width="624"/>
  <unicode hex="003F"/>
  <outline>
    <contour>
      <point x="216" y="366" type="curve"/>
      <point x="216" y="329"/>
      <point x="216" y="258"/>
      <point x="216" y="221" type="curve"/>
      <point x="326" y="221"/>
      <point x="216" y="221"/>
      <point x="326" y="221" type="curve"/>
      <point x="326" y="258"/>
      <point x="326" y="329"/>
      <point x="326" y="366" type="curve"/>
      <point x="216" y="366"/>
      <point x="326" y="366"/>
    </contour>
    <contour>
      <point x="105" y="585" type="line"/>
      <point x="145" y="622"/>
      <point x="209" y="654"/>
      <point x="281" y="654" type="curve"/>
      <point x="382" y="654"/>
      <point x="461" y="613"/>
      <point x="461" y="519" type="curve"/>
      <point x="461" y="414"/>
      <point x="359" y="366"/>
      <point x="228" y="366" type="curve"/>
      <point x="228" y="335"/>
      <point x="228" y="314"/>
      <point x="228" y="283" type="curve"/>
      <point x="419" y="283"/>
      <point x="567" y="360"/>
      <point x="567" y="519" type="curve"/>
      <point x="567" y="667"/>
      <point x="445" y="740"/>
      <point x="287" y="740" type="curve"/>
      <point x="190" y="740"/>
      <point x="113" y="708"/>
      <point x="48" y="649" type="curve"/>
    </contour>
    <contour>
      <point x="338" y="18" type="curve"/>
      <point x="338" y="55"/>
      <point x="310" y="72"/>
      <point x="272" y="72" type="curve"/>
      <point x="234" y="72"/>
      <point x="208" y="53"/>
      <point x="208" y="18" type="curve"/>
      <point x="338" y="18"/>
      <point x="208" y="18"/>
      <point x="338" y="18" type="curve"/>
      <point x="338" y="-19"/>
      <point x="310" y="-34"/>
      <point x="272" y="-34" type="curve"/>
      <point x="234" y="-34"/>
      <point x="208" y="-17"/>
      <point x="208" y="18" type="curve"/>
      <point x="338" y="18"/>
      <point x="208" y="18"/>
    </contour>
  </outline>
</glyph>
<glyph name="at" format="1">
  <advance width="1048"/>
  <unicode hex="0040"/>
  <outline>
    <contour>
      <point x="727" y="-24" type="curve"/>
      <point x="659" y="-49"/>
      <point x="611" y="-56"/>
      <point x="541" y="-56" type="curve"/>
      <point x="322" y="-56"/>
      <point x="163" y="18"/>
      <point x="163" y="215" type="curve"/>
      <point x="163" y="408"/>
      <point x="322" y="478"/>
      <point x="535" y="478" type="curve"/>
      <point x="736" y="478"/>
      <point x="882" y="401"/>
      <point x="882" y="218" type="curve"/>
      <point x="882" y="157"/>
      <point x="868" y="110"/>
      <point x="817" y="110" type="curve"/>
      <point x="763" y="110"/>
      <point x="741" y="157"/>
      <point x="741" y="220" type="curve"/>
      <point x="741" y="344"/>
      <point x="652" y="407"/>
      <point x="522" y="407" type="curve"/>
      <point x="379" y="407"/>
      <point x="282" y="349"/>
      <point x="282" y="217" type="curve"/>
      <point x="282" y="86"/>
      <point x="372" y="19"/>
      <point x="509" y="19" type="curve"/>
      <point x="629" y="19"/>
      <point x="700" y="85"/>
      <point x="725" y="203" type="curve"/>
      <point x="655" y="220"/>
      <point x="725" y="203"/>
      <point x="655" y="220" type="curve"/>
      <point x="632" y="147"/>
      <point x="596" y="102"/>
      <point x="524" y="102" type="curve"/>
      <point x="441" y="102"/>
      <point x="387" y="142"/>
      <point x="387" y="222" type="curve"/>
      <point x="387" y="293"/>
      <point x="438" y="325"/>
      <point x="512" y="325" type="curve"/>
      <point x="590" y="325"/>
      <point x="641" y="289"/>
      <point x="641" y="216" type="curve"/>
      <point x="641" y="104"/>
      <point x="699" y="32"/>
      <point x="808" y="32" type="curve"/>
      <point x="924" y="32"/>
      <point x="986" y="104"/>
      <point x="986" y="221" type="curve"/>
      <point x="986" y="461"/>
      <point x="800" y="564"/>
      <point x="540" y="564" type="curve"/>
      <point x="261" y="564"/>
      <point x="58" y="466"/>
      <point x="58" y="211" type="curve"/>
      <point x="58" y="-40"/>
      <point x="258" y="-139"/>
      <point x="535" y="-139" type="curve"/>
      <point x="626" y="-139"/>
      <point x="697" y="-123"/>
      <point x="765" y="-94" type="curve"/>
      <point x="727" y="-24"/>
      <point x="765" y="-94"/>
    </contour>
  </outline>
</glyph>
<glyph name="A" format="1">
  <advance width="974"/>
  <unicode hex="0041"/>
  <outline>
    <contour>
      <point x="130" y="83" type="curve"/>
      <point x="-12" y="83"/>
      <point x="131" y="83"/>
      <point x="-11" y="83" type="curve"/>
      <point x="-11" y="0"/>
      <point x="-11" y="83"/>
      <point x="-11" y="0" type="curve"/>
      <point x="37" y="0"/>
      <point x="83" y="0"/>
      <point x="130" y="0" type="curve"/>
      <point x="130" y="83"/>
      <point x="130" y="0"/>
    </contour>
    <contour>
      <point x="130" y="0" type="curve"/>
      <point x="191" y="0"/>
      <point x="129" y="0"/>
      <point x="314" y="0" type="curve"/>
      <point x="314" y="83"/>
      <point x="314" y="0"/>
      <point x="314" y="83" type="curve"/>
      <point x="129" y="83"/>
      <point x="315" y="83"/>
      <point x="130" y="83" type="curve"/>
      <point x="130" y="0"/>
      <point x="130" y="83"/>
    </contour>
    <contour>
      <point x="818" y="0" type="curve"/>
      <point x="866" y="0"/>
      <point x="912" y="0"/>
      <point x="959" y="0" type="curve"/>
      <point x="959" y="83"/>
      <point x="959" y="0"/>
      <point x="959" y="83" type="curve"/>
      <point x="817" y="83"/>
      <point x="960" y="83"/>
      <point x="818" y="83" type="curve"/>
      <point x="818" y="0"/>
      <point x="818" y="83"/>
    </contour>
    <contour>
      <point x="818" y="83" type="curve"/>
      <point x="634" y="83"/>
      <point x="819" y="83"/>
      <point x="635" y="83" type="curve"/>
      <point x="635" y="0"/>
      <point x="635" y="83"/>
      <point x="635" y="0" type="curve"/>
      <point x="696" y="0"/>
      <point x="757" y="0"/>
      <point x="818" y="0" type="curve"/>
      <point x="818" y="83"/>
      <point x="818" y="0"/>
    </contour>
    <contour>
      <point x="692" y="301" type="curve"/>
      <point x="555" y="301"/>
      <point x="417" y="301"/>
      <point x="280" y="301" type="curve"/>
      <point x="235" y="214"/>
      <point x="280" y="301"/>
      <point x="235" y="214" type="curve"/>
      <point x="399" y="214"/>
      <point x="563" y="214"/>
      <point x="727" y="214" type="curve"/>
      <point x="692" y="301"/>
      <point x="727" y="214"/>
    </contour>
    <contour>
      <point x="891" y="0" type="curve"/>
      <point x="778" y="242"/>
      <point x="659" y="480"/>
      <point x="545" y="722" type="curve"/>
      <point x="444" y="722"/>
      <point x="545" y="722"/>
      <point x="444" y="722" type="curve"/>
      <point x="556" y="482"/>
      <point x="663" y="240"/>
      <point x="775" y="0" type="curve"/>
      <point x="891" y="0"/>
      <point x="775" y="0"/>
    </contour>
    <contour>
      <point x="175" y="0" type="curve"/>
      <point x="300" y="240"/>
      <point x="418" y="482"/>
      <point x="543" y="722" type="curve"/>
      <point x="442" y="722"/>
      <point x="543" y="722"/>
      <point x="442" y="722" type="curve"/>
      <point x="315" y="480"/>
      <point x="182" y="242"/>
      <point x="54" y="0" type="curve"/>
      <point x="175" y="0"/>
      <point x="54" y="0"/>
    </contour>
    <contour>
      <point x="493" y="796" type="move" name="top"/>
    </contour>
    <contour>
      <point x="853" y="4" type="move" name="bottom"/>
    </contour>
  </outline>
</glyph>
<glyph name="B" format="1">
  <advance width="842"/>
  <unicode hex="0042"/>
  <outline>
    <contour>
      <point x="227" y="722" type="curve"/>
      <point x="172" y="722"/>
      <point x="119" y="722"/>
      <point x="65" y="722" type="curve"/>
      <point x="65" y="639"/>
      <point x="65" y="722"/>
      <point x="65" y="639" type="curve"/>
      <point x="228" y="639"/>
      <point x="64" y="639"/>
      <point x="227" y="639" type="curve"/>
      <point x="227" y="722"/>
      <point x="227" y="639"/>
    </contour>
    <contour>
      <point x="225" y="83" type="curve"/>
      <point x="63" y="83"/>
      <point x="226" y="83"/>
      <point x="64" y="83" type="curve"/>
      <point x="64" y="0"/>
      <point x="64" y="83"/>
      <point x="64" y="0" type="curve"/>
      <point x="117" y="0"/>
      <point x="171" y="0"/>
      <point x="225" y="0" type="curve"/>
      <point x="225" y="83"/>
      <point x="225" y="0"/>
    </contour>
    <contour>
      <point x="213" y="639" type="curve"/>
      <point x="303" y="639"/>
      <point x="392" y="639"/>
      <point x="482" y="639" type="curve"/>
      <point x="556" y="639"/>
      <point x="614" y="609"/>
      <point x="614" y="538" type="curve"/>
      <point x="614" y="465"/>
      <point x="533" y="447"/>
      <point x="451" y="447" type="curve"/>
      <point x="371" y="447"/>
      <point x="293" y="447"/>
      <point x="213" y="447" type="curve"/>
      <point x="213" y="369"/>
      <point x="213" y="442"/>
      <point x="213" y="364" type="curve"/>
      <point x="274" y="364"/>
      <point x="335" y="364"/>
      <point x="398" y="364" type="curve"/>
      <point x="532" y="364"/>
      <point x="725" y="392"/>
      <point x="725" y="538" type="curve"/>
      <point x="725" y="667"/>
      <point x="623" y="722"/>
      <point x="483" y="722" type="curve"/>
      <point x="392" y="722"/>
      <point x="303" y="722"/>
      <point x="213" y="722" type="curve"/>
      <point x="213" y="644"/>
      <point x="213" y="717"/>
    </contour>
    <contour>
      <point x="284" y="0" type="curve"/>
      <point x="284" y="241"/>
      <point x="284" y="481"/>
      <point x="284" y="722" type="curve"/>
      <point x="168" y="722"/>
      <point x="284" y="722"/>
      <point x="168" y="722" type="curve"/>
      <point x="168" y="481"/>
      <point x="168" y="241"/>
      <point x="168" y="0" type="curve"/>
      <point x="284" y="0"/>
      <point x="168" y="0"/>
    </contour>
    <contour>
      <point x="213" y="364" type="curve"/>
      <point x="293" y="364"/>
      <point x="371" y="364"/>
      <point x="451" y="364" type="curve"/>
      <point x="572" y="364"/>
      <point x="673" y="330"/>
      <point x="673" y="218" type="curve"/>
      <point x="673" y="118"/>
      <point x="592" y="83"/>
      <point x="480" y="83" type="curve"/>
      <point x="390" y="83"/>
      <point x="302" y="83"/>
      <point x="213" y="83" type="curve"/>
      <point x="213" y="5"/>
      <point x="213" y="78"/>
      <point x="213" y="0" type="curve"/>
      <point x="302" y="0"/>
      <point x="390" y="0"/>
      <point x="481" y="0" type="curve"/>
      <point x="657" y="0"/>
      <point x="784" y="60"/>
      <point x="784" y="218" type="curve"/>
      <point x="784" y="404"/>
      <point x="570" y="447"/>
      <point x="398" y="447" type="curve"/>
      <point x="335" y="447"/>
      <point x="274" y="447"/>
      <point x="213" y="447" type="curve"/>
      <point x="213" y="369"/>
      <point x="213" y="442"/>
    </contour>
  </outline>
</glyph>
<glyph name="D" format="1">
  <advance width="977"/>
  <unicode hex="0044"/>
  <outline>
    <contour>
      <point x="227" y="83" type="curve"/>
      <point x="64" y="83"/>
      <point x="228" y="83"/>
      <point x="65" y="83" type="curve"/>
      <point x="65" y="0"/>
      <point x="65" y="83"/>
      <point x="65" y="0" type="curve"/>
      <point x="119" y="0"/>
      <point x="173" y="0"/>
      <point x="227" y="0" type="curve"/>
      <point x="227" y="83"/>
      <point x="227" y="0"/>
    </contour>
    <contour>
      <point x="227" y="722" type="curve"/>
      <point x="173" y="722"/>
      <point x="119" y="722"/>
      <point x="65" y="722" type="curve"/>
      <point x="65" y="639"/>
      <point x="65" y="722"/>
      <point x="65" y="639" type="curve"/>
      <point x="228" y="639"/>
      <point x="64" y="639"/>
      <point x="227" y="639" type="curve"/>
      <point x="227" y="722"/>
      <point x="227" y="639"/>
    </contour>
    <contour>
      <point x="169" y="722" type="curve"/>
      <point x="169" y="481"/>
      <point x="169" y="241"/>
      <point x="169" y="0" type="curve"/>
      <point x="280" y="0"/>
      <point x="169" y="0"/>
      <point x="280" y="0" type="curve"/>
      <point x="280" y="241"/>
      <point x="280" y="481"/>
      <point x="280" y="722" type="curve"/>
      <point x="169" y="722"/>
      <point x="280" y="722"/>
    </contour>
    <contour>
      <point x="227" y="0" type="curve"/>
      <point x="309" y="0"/>
      <point x="392" y="0"/>
      <point x="474" y="0" type="curve"/>
      <point x="745" y="0"/>
      <point x="916" y="101"/>
      <point x="916" y="353" type="curve"/>
      <point x="916" y="614"/>
      <point x="742" y="722"/>
      <point x="464" y="722" type="curve"/>
      <point x="385" y="722"/>
      <point x="306" y="722"/>
      <point x="227" y="722" type="curve"/>
      <point x="227" y="640"/>
      <point x="227" y="722"/>
      <point x="227" y="639" type="curve"/>
      <point x="304" y="639"/>
      <point x="381" y="639"/>
      <point x="458" y="639" type="curve"/>
      <point x="673" y="639"/>
      <point x="806" y="552"/>
      <point x="806" y="350" type="curve"/>
      <point x="806" y="163"/>
      <point x="682" y="83"/>
      <point x="483" y="83" type="curve"/>
      <point x="397" y="83"/>
      <point x="313" y="83"/>
      <point x="227" y="83" type="curve"/>
      <point x="227" y="0"/>
      <point x="227" y="82"/>
    </contour>
    <contour>
      <point x="452" y="796" type="move" name="top"/>
    </contour>
  </outline>
</glyph>
<glyph name="F" format="1">
  <advance width="766"/>
  <unicode hex="0046"/>
  <outline>
    <contour>
      <point x="226" y="0" type="curve"/>
      <point x="280" y="0"/>
      <point x="226" y="0"/>
      <point x="388" y="0" type="curve"/>
      <point x="388" y="83"/>
      <point x="388" y="0"/>
      <point x="388" y="83" type="curve"/>
      <point x="226" y="83"/>
      <point x="388" y="83"/>
      <point x="226" y="83" type="curve"/>
      <point x="226" y="0"/>
      <point x="226" y="83"/>
    </contour>
    <contour>
      <point x="226" y="722" type="curve"/>
      <point x="172" y="722"/>
      <point x="118" y="722"/>
      <point x="64" y="722" type="curve"/>
      <point x="64" y="639"/>
      <point x="64" y="722"/>
      <point x="64" y="639" type="curve"/>
      <point x="226" y="639"/>
      <point x="63" y="639"/>
      <point x="226" y="639" type="curve"/>
      <point x="226" y="722"/>
      <point x="226" y="639"/>
    </contour>
    <contour>
      <point x="226" y="83" type="curve"/>
      <point x="63" y="83"/>
      <point x="226" y="83"/>
      <point x="64" y="83" type="curve"/>
      <point x="64" y="0"/>
      <point x="64" y="83"/>
      <point x="64" y="0" type="curve"/>
      <point x="118" y="0"/>
      <point x="172" y="0"/>
      <point x="226" y="0" type="curve"/>
      <point x="226" y="83"/>
      <point x="226" y="0"/>
    </contour>
    <contour>
      <point x="642" y="681" type="curve"/>
      <point x="642" y="561"/>
      <point x="642" y="681"/>
      <point x="642" y="561" type="curve"/>
      <point x="728" y="561"/>
      <point x="642" y="561"/>
      <point x="728" y="561" type="curve"/>
      <point x="728" y="681"/>
      <point x="728" y="561"/>
      <point x="728" y="681" type="curve"/>
      <point x="642" y="681"/>
      <point x="728" y="681"/>
    </contour>
    <contour>
      <point x="231" y="332" type="curve"/>
      <point x="366" y="332"/>
      <point x="501" y="332"/>
      <point x="636" y="332" type="curve"/>
      <point x="636" y="414"/>
      <point x="636" y="332"/>
      <point x="636" y="414" type="curve"/>
      <point x="501" y="414"/>
      <point x="366" y="414"/>
      <point x="231" y="414" type="curve"/>
      <point x="231" y="332"/>
      <point x="231" y="414"/>
    </contour>
    <contour>
      <point x="281" y="0" type="curve"/>
      <point x="281" y="722" type="line"/>
      <point x="170" y="722"/>
      <point x="281" y="722"/>
      <point x="170" y="722" type="curve"/>
      <point x="170" y="481"/>
      <point x="170" y="241"/>
      <point x="170" y="0" type="curve"/>
      <point x="281" y="0"/>
      <point x="170" y="0"/>
    </contour>
    <contour>
      <point x="212" y="639" type="curve"/>
      <point x="384" y="639"/>
      <point x="556" y="639"/>
      <point x="728" y="639" type="curve"/>
      <point x="728" y="722"/>
      <point x="728" y="639"/>
      <point x="728" y="722" type="curve"/>
      <point x="556" y="722"/>
      <point x="384" y="722"/>
      <point x="212" y="722" type="curve"/>
      <point x="212" y="639"/>
      <point x="212" y="722"/>
    </contour>
  </outline>
</glyph>
<glyph name="G" format="1">
  <advance width="978"/>
  <unicode hex="0047"/>
  <outline>
    <contour>
      <point x="799" y="645" type="curve"/>
      <point x="799" y="523"/>
      <point x="799" y="622"/>
      <point x="799" y="500" type="curve"/>
      <point x="884" y="500"/>
      <point x="799" y="500"/>
      <point x="884" y="500" type="curve"/>
      <point x="884" y="622"/>
      <point x="884" y="523"/>
      <point x="884" y="645" type="curve"/>
      <point x="799" y="645"/>
      <point x="884" y="645"/>
    </contour>
    <contour>
      <point x="875" y="354" type="curve"/>
      <point x="783" y="354"/>
      <point x="690" y="354"/>
      <point x="598" y="354" type="curve"/>
      <point x="598" y="271"/>
      <point x="598" y="354"/>
      <point x="598" y="271" type="curve"/>
      <point x="690" y="271"/>
      <point x="783" y="271"/>
      <point x="875" y="271" type="curve"/>
      <point x="875" y="354"/>
      <point x="875" y="271"/>
    </contour>
    <contour>
      <point x="906" y="78" type="curve"/>
      <point x="906" y="170"/>
      <point x="906" y="262"/>
      <point x="906" y="354" type="curve"/>
      <point x="805" y="354"/>
      <point x="906" y="354"/>
      <point x="805" y="354" type="curve"/>
      <point x="805" y="262"/>
      <point x="805" y="170"/>
      <point x="805" y="78" type="curve"/>
      <point x="906" y="78"/>
      <point x="805" y="78"/>
    </contour>
    <contour>
      <point x="884" y="645" type="curve"/>
      <point x="760" y="703"/>
      <point x="653" y="727"/>
      <point x="516" y="727" type="curve"/>
      <point x="248" y="727"/>
      <point x="61" y="613"/>
      <point x="61" y="361" type="curve"/>
      <point x="61" y="105"/>
      <point x="255" y="-5"/>
      <point x="530" y="-5" type="curve"/>
      <point x="677" y="-5"/>
      <point x="771" y="22"/>
      <point x="906" y="78" type="curve"/>
      <point x="850" y="140"/>
      <point x="906" y="78"/>
      <point x="850" y="140" type="curve"/>
      <point x="738" y="93"/>
      <point x="652" y="82"/>
      <point x="530" y="82" type="curve"/>
      <point x="318" y="82"/>
      <point x="172" y="171"/>
      <point x="172" y="370" type="curve"/>
      <point x="172" y="557"/>
      <point x="315" y="641"/>
      <point x="517" y="641" type="curve"/>
      <point x="632" y="641"/>
      <point x="724" y="623"/>
      <point x="829" y="574" type="curve"/>
      <point x="884" y="645"/>
      <point x="829" y="574"/>
    </contour>
    <contour>
      <point x="517" y="796" type="move" name="top"/>
    </contour>
    <contour>
      <point x="566" y="8" type="move" name="bottom"/>
    </contour>
  </outline>
</glyph>
<glyph name="H" format="1">
  <advance width="1049"/>
  <unicode hex="0048"/>
  <outline>
    <contour>
      <point x="843" y="639" type="curve"/>
      <point x="1023" y="639"/>
      <point x="825" y="639"/>
      <point x="1005" y="639" type="curve"/>
      <point x="1005" y="722"/>
      <point x="1005" y="639"/>
      <point x="1005" y="722" type="curve"/>
      <point x="945" y="722"/>
      <point x="903" y="722"/>
      <point x="843" y="722" type="curve"/>
      <point x="843" y="639"/>
      <point x="843" y="722"/>
    </contour>
    <contour>
      <point x="843" y="0" type="curve"/>
      <point x="903" y="0"/>
      <point x="945" y="0"/>
      <point x="1005" y="0" type="curve"/>
      <point x="1005" y="83"/>
      <point x="1005" y="0"/>
      <point x="1005" y="83" type="curve"/>
      <point x="825" y="83"/>
      <point x="1023" y="83"/>
      <point x="843" y="83" type="curve"/>
      <point x="843" y="0"/>
      <point x="843" y="83"/>
    </contour>
    <contour>
      <point x="843" y="83" type="curve"/>
      <point x="663" y="83"/>
      <point x="861" y="83"/>
      <point x="681" y="83" type="curve"/>
      <point x="681" y="0"/>
      <point x="681" y="83"/>
      <point x="681" y="0" type="curve"/>
      <point x="741" y="0"/>
      <point x="783" y="0"/>
      <point x="843" y="0" type="curve"/>
      <point x="843" y="83"/>
      <point x="843" y="0"/>
    </contour>
    <contour>
      <point x="843" y="722" type="curve"/>
      <point x="783" y="722"/>
      <point x="741" y="722"/>
      <point x="681" y="722" type="curve"/>
      <point x="681" y="639"/>
      <point x="681" y="722"/>
      <point x="681" y="639" type="curve"/>
      <point x="861" y="639"/>
      <point x="663" y="639"/>
      <point x="843" y="639" type="curve"/>
      <point x="843" y="722"/>
      <point x="843" y="639"/>
    </contour>
    <contour>
      <point x="207" y="639" type="curve"/>
      <point x="387" y="639"/>
      <point x="188" y="639"/>
      <point x="369" y="639" type="curve"/>
      <point x="369" y="722"/>
      <point x="369" y="639"/>
      <point x="369" y="722" type="curve"/>
      <point x="309" y="722"/>
      <point x="267" y="722"/>
      <point x="207" y="722" type="curve"/>
      <point x="207" y="639"/>
      <point x="207" y="722"/>
    </contour>
    <contour>
      <point x="207" y="722" type="curve"/>
      <point x="147" y="722"/>
      <point x="105" y="722"/>
      <point x="45" y="722" type="curve"/>
      <point x="45" y="639"/>
      <point x="45" y="722"/>
      <point x="45" y="639" type="curve"/>
      <point x="225" y="639"/>
      <point x="26" y="639"/>
      <point x="207" y="639" type="curve"/>
      <point x="207" y="722"/>
      <point x="207" y="639"/>
    </contour>
    <contour>
      <point x="207" y="0" type="curve"/>
      <point x="267" y="0"/>
      <point x="188" y="0"/>
      <point x="369" y="0" type="curve"/>
      <point x="369" y="83"/>
      <point x="369" y="0"/>
      <point x="369" y="83" type="curve"/>
      <point x="188" y="83"/>
      <point x="387" y="83"/>
      <point x="207" y="83" type="curve"/>
      <point x="207" y="0"/>
      <point x="207" y="83"/>
    </contour>
    <contour>
      <point x="207" y="83" type="curve"/>
      <point x="26" y="83"/>
      <point x="225" y="83"/>
      <point x="45" y="83" type="curve"/>
      <point x="45" y="0"/>
      <point x="45" y="83"/>
      <point x="45" y="0" type="curve"/>
      <point x="105" y="0"/>
      <point x="147" y="0"/>
      <point x="207" y="0" type="curve"/>
      <point x="207" y="83"/>
      <point x="207" y="0"/>
    </contour>
    <contour>
      <point x="262" y="0" type="curve"/>
      <point x="262" y="722" type="line"/>
      <point x="151" y="722"/>
      <point x="262" y="722"/>
      <point x="151" y="722" type="curve"/>
      <point x="151" y="481"/>
      <point x="151" y="241"/>
      <point x="151" y="0" type="curve"/>
      <point x="262" y="0"/>
      <point x="151" y="0"/>
    </contour>
    <contour>
      <point x="839" y="404" type="curve"/>
      <point x="629" y="404"/>
      <point x="417" y="404"/>
      <point x="207" y="404" type="curve"/>
      <point x="207" y="321"/>
      <point x="207" y="404"/>
      <point x="207" y="321" type="curve"/>
      <point x="417" y="321"/>
      <point x="629" y="321"/>
      <point x="839" y="321" type="curve"/>
      <point x="839" y="404"/>
      <point x="839" y="321"/>
    </contour>
    <contour>
      <point x="897" y="32" type="curve"/>
      <point x="897" y="251"/>
      <point x="897" y="471"/>
      <point x="897" y="690" type="curve"/>
      <point x="787" y="690"/>
      <point x="897" y="690"/>
      <point x="787" y="690" type="curve"/>
      <point x="787" y="32" type="line"/>
      <point x="897" y="32"/>
      <point x="787" y="32"/>
    </contour>
  </outline>
</glyph>
<glyph name="I" format="1">
  <advance width="414"/>
  <unicode hex="0049"/>
  <outline>
    <contour>
      <point x="208" y="722" type="curve"/>
      <point x="147" y="722"/>
      <point x="105" y="722"/>
      <point x="46" y="722" type="curve"/>
      <point x="46" y="639"/>
      <point x="46" y="722"/>
      <point x="46" y="639" type="curve"/>
      <point x="226" y="639"/>
      <point x="28" y="639"/>
      <point x="208" y="639" type="curve"/>
      <point x="208" y="722"/>
      <point x="208" y="639"/>
    </contour>
    <contour>
      <point x="208" y="639" type="curve"/>
      <point x="388" y="639"/>
      <point x="190" y="639"/>
      <point x="370" y="639" type="curve"/>
      <point x="370" y="722"/>
      <point x="370" y="639"/>
      <point x="370" y="722" type="curve"/>
      <point x="309" y="722"/>
      <point x="267" y="722"/>
      <point x="208" y="722" type="curve"/>
      <point x="208" y="639"/>
      <point x="208" y="722"/>
    </contour>
    <contour>
      <point x="208" y="0" type="curve"/>
      <point x="267" y="0"/>
      <point x="309" y="0"/>
      <point x="370" y="0" type="curve"/>
      <point x="370" y="83"/>
      <point x="370" y="0"/>
      <point x="370" y="83" type="curve"/>
      <point x="190" y="83"/>
      <point x="388" y="83"/>
      <point x="208" y="83" type="curve"/>
      <point x="208" y="0"/>
      <point x="208" y="83"/>
    </contour>
    <contour>
      <point x="208" y="83" type="curve"/>
      <point x="28" y="83"/>
      <point x="226" y="83"/>
      <point x="46" y="83" type="curve"/>
      <point x="46" y="0"/>
      <point x="46" y="83"/>
      <point x="46" y="0" type="curve"/>
      <point x="105" y="0"/>
      <point x="147" y="0"/>
      <point x="208" y="0" type="curve"/>
      <point x="208" y="83"/>
      <point x="208" y="0"/>
    </contour>
    <contour>
      <point x="262" y="0" type="curve"/>
      <point x="262" y="241"/>
      <point x="262" y="481"/>
      <point x="262" y="722" type="curve"/>
      <point x="151" y="722"/>
      <point x="262" y="722"/>
      <point x="151" y="722" type="curve"/>
      <point x="151" y="481"/>
      <point x="151" y="241"/>
      <point x="151" y="0" type="curve"/>
      <point x="262" y="0"/>
      <point x="151" y="0"/>
    </contour>
    <contour>
      <point x="207" y="796" type="move" name="top"/>
    </contour>
    <contour>
      <point x="261" y="0" type="move" name="bottom"/>
    </contour>
  </outline>
</glyph>
<glyph name="J" format="1">
  <advance width="577"/>
  <unicode hex="004A"/>
  <outline>
    <contour>
      <point x="394" y="722" type="curve"/>
      <point x="335" y="722"/>
      <point x="294" y="722"/>
      <point x="235" y="722" type="curve"/>
      <point x="235" y="639"/>
      <point x="235" y="722"/>
      <point x="235" y="639" type="curve"/>
      <point x="412" y="639"/>
      <point x="217" y="639"/>
      <point x="394" y="639" type="curve"/>
      <point x="394" y="722"/>
      <point x="394" y="639"/>
    </contour>
    <contour>
      <point x="394" y="639" type="curve"/>
      <point x="568" y="639"/>
      <point x="376" y="639"/>
      <point x="550" y="639" type="curve"/>
      <point x="550" y="722"/>
      <point x="550" y="639"/>
      <point x="550" y="722" type="curve"/>
      <point x="492" y="722"/>
      <point x="452" y="722"/>
      <point x="394" y="722" type="curve"/>
      <point x="394" y="639"/>
      <point x="394" y="722"/>
    </contour>
    <contour>
      <point x="8" y="44" type="curve"/>
      <point x="49" y="22"/>
      <point x="106" y="-3"/>
      <point x="175" y="-3" type="curve"/>
      <point x="342" y="-3"/>
      <point x="448" y="74"/>
      <point x="448" y="237" type="curve"/>
      <point x="448" y="398"/>
      <point x="448" y="560"/>
      <point x="448" y="722" type="curve"/>
      <point x="338" y="722"/>
      <point x="448" y="722"/>
      <point x="337" y="722" type="curve"/>
      <point x="337" y="560"/>
      <point x="337" y="398"/>
      <point x="337" y="237" type="curve"/>
      <point x="337" y="136"/>
      <point x="277" y="79"/>
      <point x="175" y="79" type="curve"/>
      <point x="129" y="79"/>
      <point x="98" y="92"/>
      <point x="59" y="110" type="curve"/>
      <point x="9" y="45"/>
      <point x="59" y="109"/>
    </contour>
  </outline>
</glyph>
<glyph name="K" format="1">
  <advance width="885"/>
  <unicode hex="004B"/>
  <outline>
    <contour>
      <point x="705" y="722" type="curve"/>
      <point x="644" y="722"/>
      <point x="525" y="722"/>
      <point x="464" y="722" type="curve"/>
      <point x="464" y="639"/>
      <point x="464" y="722"/>
      <point x="464" y="639" type="curve"/>
      <point x="648" y="639"/>
      <point x="521" y="639"/>
      <point x="705" y="639" type="curve"/>
      <point x="705" y="722"/>
      <point x="705" y="639"/>
    </contour>
    <contour>
      <point x="722" y="0" type="curve"/>
      <point x="782" y="0"/>
      <point x="803" y="0"/>
      <point x="864" y="0" type="curve"/>
      <point x="864" y="83"/>
      <point x="864" y="0"/>
      <point x="864" y="83" type="curve"/>
      <point x="683" y="83"/>
      <point x="903" y="83"/>
      <point x="722" y="83" type="curve"/>
      <point x="722" y="0"/>
      <point x="722" y="83"/>
    </contour>
    <contour>
      <point x="703" y="639" type="curve"/>
      <point x="875" y="639"/>
      <point x="651" y="639"/>
      <point x="822" y="639" type="curve"/>
      <point x="822" y="722"/>
      <point x="822" y="639"/>
      <point x="822" y="722" type="curve"/>
      <point x="765" y="722"/>
      <point x="760" y="722"/>
      <point x="703" y="722" type="curve"/>
      <point x="703" y="639"/>
      <point x="703" y="722"/>
    </contour>
    <contour>
      <point x="206" y="722" type="curve"/>
      <point x="146" y="722"/>
      <point x="105" y="722"/>
      <point x="45" y="722" type="curve"/>
      <point x="45" y="639"/>
      <point x="45" y="722"/>
      <point x="45" y="639" type="curve"/>
      <point x="224" y="639"/>
      <point x="26" y="639"/>
      <point x="206" y="639" type="curve"/>
      <point x="206" y="722"/>
      <point x="206" y="639"/>
    </contour>
    <contour>
      <point x="206" y="639" type="curve"/>
      <point x="373" y="639"/>
      <point x="193" y="639"/>
      <point x="360" y="639" type="curve"/>
      <point x="360" y="722"/>
      <point x="360" y="639"/>
      <point x="360" y="722" type="curve"/>
      <point x="304" y="722"/>
      <point x="262" y="722"/>
      <point x="206" y="722" type="curve"/>
      <point x="206" y="639"/>
      <point x="206" y="722"/>
    </contour>
    <contour>
      <point x="206" y="0" type="curve"/>
      <point x="267" y="0"/>
      <point x="185" y="0"/>
      <point x="367" y="0" type="curve"/>
      <point x="367" y="83"/>
      <point x="367" y="0"/>
      <point x="367" y="83" type="curve"/>
      <point x="185" y="83"/>
      <point x="388" y="83"/>
      <point x="206" y="83" type="curve"/>
      <point x="206" y="0"/>
      <point x="206" y="83"/>
    </contour>
    <contour>
      <point x="206" y="83" type="curve"/>
      <point x="26" y="83"/>
      <point x="224" y="83"/>
      <point x="45" y="83" type="curve"/>
      <point x="45" y="0"/>
      <point x="45" y="83"/>
      <point x="45" y="0" type="curve"/>
      <point x="105" y="0"/>
      <point x="146" y="0"/>
      <point x="206" y="0" type="curve"/>
      <point x="206" y="83"/>
      <point x="206" y="0"/>
    </contour>
    <contour>
      <point x="660" y="722" type="curve"/>
      <point x="223" y="380" type="line"/>
      <point x="366" y="380"/>
      <point x="222" y="380"/>
      <point x="364" y="380" type="curve"/>
      <point x="767" y="689" type="line"/>
      <point x="609" y="689"/>
      <point x="819" y="722"/>
    </contour>
    <contour>
      <point x="262" y="0" type="curve"/>
      <point x="262" y="722" type="line"/>
      <point x="151" y="722"/>
      <point x="262" y="722"/>
      <point x="151" y="722" type="curve"/>
      <point x="151" y="481"/>
      <point x="151" y="241"/>
      <point x="151" y="0" type="curve"/>
      <point x="262" y="0"/>
      <point x="151" y="0"/>
    </contour>
    <contour>
      <point x="803" y="34" type="curve"/>
      <point x="364" y="380" type="line"/>
      <point x="222" y="380"/>
      <point x="366" y="380"/>
      <point x="223" y="380" type="curve"/>
      <point x="687" y="0" type="line"/>
      <point x="853" y="0"/>
      <point x="637" y="34"/>
    </contour>
    <contour>
      <point x="499" y="1" type="move" name="bottom"/>
    </contour>
  </outline>
</glyph>
<glyph name="M" format="1">
  <advance width="1225"/>
  <unicode hex="004D"/>
  <outline>
    <contour>
      <point x="1041" y="0" type="curve"/>
      <point x="1101" y="0"/>
      <point x="1143" y="0"/>
      <point x="1202" y="0" type="curve"/>
      <point x="1202" y="83"/>
      <point x="1202" y="0"/>
      <point x="1202" y="83" type="curve"/>
      <point x="1023" y="83"/>
      <point x="1220" y="83"/>
      <point x="1041" y="83" type="curve"/>
      <point x="1041" y="0"/>
      <point x="1041" y="83"/>
    </contour>
    <contour>
      <point x="1041" y="83" type="curve"/>
      <point x="862" y="83"/>
      <point x="1059" y="83"/>
      <point x="880" y="83" type="curve"/>
      <point x="880" y="0"/>
      <point x="880" y="83"/>
      <point x="880" y="0" type="curve"/>
      <point x="940" y="0"/>
      <point x="981" y="0"/>
      <point x="1041" y="0" type="curve"/>
      <point x="1041" y="83"/>
      <point x="1041" y="0"/>
    </contour>
    <contour>
      <point x="186" y="83" type="curve"/>
      <point x="6" y="83"/>
      <point x="204" y="83"/>
      <point x="24" y="83" type="curve"/>
      <point x="24" y="0"/>
      <point x="24" y="83"/>
      <point x="24" y="0" type="curve"/>
      <point x="84" y="0"/>
      <point x="126" y="0"/>
      <point x="186" y="0" type="curve"/>
      <point x="186" y="83"/>
      <point x="186" y="0"/>
    </contour>
    <contour>
      <point x="254" y="722" type="curve"/>
      <point x="194" y="722"/>
      <point x="152" y="722"/>
      <point x="93" y="722" type="curve"/>
      <point x="93" y="639"/>
      <point x="93" y="722"/>
      <point x="93" y="639" type="curve"/>
      <point x="272" y="639"/>
      <point x="75" y="639"/>
      <point x="254" y="639" type="curve"/>
      <point x="254" y="722"/>
      <point x="254" y="639"/>
    </contour>
    <contour>
      <point x="970" y="639" type="curve"/>
      <point x="1150" y="639"/>
      <point x="952" y="639"/>
      <point x="1132" y="639" type="curve"/>
      <point x="1132" y="722"/>
      <point x="1132" y="639"/>
      <point x="1132" y="722" type="curve"/>
      <point x="1072" y="722"/>
      <point x="1030" y="722"/>
      <point x="970" y="722" type="curve"/>
      <point x="970" y="639"/>
      <point x="970" y="722"/>
    </contour>
    <contour>
      <point x="186" y="0" type="curve"/>
      <point x="245" y="0"/>
      <point x="168" y="0"/>
      <point x="346" y="0" type="curve"/>
      <point x="346" y="83"/>
      <point x="346" y="0"/>
      <point x="346" y="83" type="curve"/>
      <point x="168" y="83"/>
      <point x="364" y="83"/>
      <point x="186" y="83" type="curve"/>
      <point x="186" y="0"/>
      <point x="186" y="83"/>
    </contour>
    <contour>
      <point x="1102" y="0" type="curve"/>
      <point x="1076" y="241"/>
      <point x="1046" y="481"/>
      <point x="1020" y="722" type="curve"/>
      <point x="920" y="722"/>
      <point x="1020" y="722"/>
      <point x="920" y="722" type="curve"/>
      <point x="945" y="482"/>
      <point x="966" y="240"/>
      <point x="991" y="0" type="curve"/>
      <point x="1102" y="0"/>
      <point x="991" y="0"/>
    </contour>
    <contour>
      <point x="233" y="0" type="curve"/>
      <point x="258" y="241"/>
      <point x="281" y="481"/>
      <point x="305" y="722" type="curve"/>
      <point x="198" y="722"/>
      <point x="305" y="722"/>
      <point x="198" y="722" type="curve"/>
      <point x="173" y="481"/>
      <point x="148" y="241"/>
      <point x="124" y="0" type="curve"/>
      <point x="233" y="0"/>
      <point x="124" y="0"/>
    </contour>
    <contour>
      <point x="663" y="0" type="curve"/>
      <point x="545" y="241"/>
      <point x="427" y="481"/>
      <point x="309" y="722" type="curve"/>
      <point x="201" y="722"/>
      <point x="308" y="722"/>
      <point x="200" y="722" type="curve"/>
      <point x="318" y="481"/>
      <point x="435" y="241"/>
      <point x="553" y="0" type="curve"/>
      <point x="662" y="0"/>
      <point x="554" y="0"/>
    </contour>
    <contour>
      <point x="674" y="0" type="curve"/>
      <point x="789" y="241"/>
      <point x="905" y="481"/>
      <point x="1021" y="722" type="curve"/>
      <point x="913" y="722"/>
      <point x="1020" y="722"/>
      <point x="912" y="722" type="curve"/>
      <point x="795" y="481"/>
      <point x="679" y="241"/>
      <point x="563" y="0" type="curve"/>
      <point x="673" y="0"/>
      <point x="563" y="0"/>
    </contour>
  </outline>
</glyph>
<glyph name="N" format="1">
  <advance width="1078"/>
  <unicode hex="004E"/>
  <outline>
    <contour>
      <point x="208" y="722" type="curve"/>
      <point x="148" y="722"/>
      <point x="106" y="722"/>
      <point x="46" y="722" type="curve"/>
      <point x="46" y="639"/>
      <point x="46" y="722"/>
      <point x="46" y="639" type="curve"/>
      <point x="226" y="639"/>
      <point x="28" y="639"/>
      <point x="208" y="639" type="curve"/>
      <point x="208" y="722"/>
      <point x="208" y="639"/>
    </contour>
    <contour>
      <point x="882" y="639" type="curve"/>
      <point x="1062" y="639"/>
      <point x="864" y="639"/>
      <point x="1044" y="639" type="curve"/>
      <point x="1044" y="722"/>
      <point x="1044" y="639"/>
      <point x="1044" y="722" type="curve"/>
      <point x="984" y="722"/>
      <point x="942" y="722"/>
      <point x="882" y="722" type="curve"/>
      <point x="882" y="639"/>
      <point x="882" y="722"/>
    </contour>
    <contour>
      <point x="893" y="722" type="curve"/>
      <point x="834" y="722"/>
      <point x="792" y="722"/>
      <point x="732" y="722" type="curve"/>
      <point x="732" y="639"/>
      <point x="732" y="722"/>
      <point x="732" y="639" type="curve"/>
      <point x="912" y="639"/>
      <point x="714" y="639"/>
      <point x="893" y="639" type="curve"/>
      <point x="893" y="722"/>
      <point x="893" y="639"/>
    </contour>
    <contour>
      <point x="207" y="83" type="curve"/>
      <point x="27" y="83"/>
      <point x="225" y="83"/>
      <point x="45" y="83" type="curve"/>
      <point x="45" y="0"/>
      <point x="45" y="83"/>
      <point x="45" y="0" type="curve"/>
      <point x="105" y="0"/>
      <point x="146" y="0"/>
      <point x="207" y="0" type="curve"/>
      <point x="207" y="83"/>
      <point x="207" y="0"/>
    </contour>
    <contour>
      <point x="207" y="0" type="curve"/>
      <point x="267" y="0"/>
      <point x="189" y="0"/>
      <point x="368" y="0" type="curve"/>
      <point x="368" y="83"/>
      <point x="368" y="0"/>
      <point x="368" y="83" type="curve"/>
      <point x="189" y="83"/>
      <point x="386" y="83"/>
      <point x="207" y="83" type="curve"/>
      <point x="207" y="0"/>
      <point x="207" y="83"/>
    </contour>
    <contour>
      <point x="945" y="0" type="curve"/>
      <point x="721" y="240"/>
      <point x="500" y="482"/>
      <point x="277" y="722" type="curve"/>
      <point x="143" y="722"/>
      <point x="276" y="722"/>
      <point x="141" y="722" type="curve"/>
      <point x="364" y="482"/>
      <point x="586" y="240"/>
      <point x="809" y="0" type="curve"/>
      <point x="943" y="0"/>
      <point x="810" y="0"/>
    </contour>
    <contour>
      <point x="837" y="722" type="curve"/>
      <point x="837" y="481"/>
      <point x="837" y="241"/>
      <point x="837" y="0" type="curve"/>
      <point x="948" y="0"/>
      <point x="837" y="0"/>
      <point x="948" y="0" type="curve"/>
      <point x="948" y="241"/>
      <point x="948" y="481"/>
      <point x="948" y="722" type="curve"/>
      <point x="837" y="722"/>
      <point x="948" y="722"/>
    </contour>
    <contour>
      <point x="262" y="0" type="curve"/>
      <point x="262" y="241"/>
      <point x="262" y="481"/>
      <point x="262" y="722" type="curve"/>
      <point x="151" y="722"/>
      <point x="262" y="722"/>
      <point x="151" y="722" type="curve"/>
      <point x="151" y="481"/>
      <point x="151" y="241"/>
      <point x="151" y="0" type="curve"/>
      <point x="262" y="0"/>
      <point x="151" y="0"/>
    </contour>
    <contour>
      <point x="541" y="796" type="move" name="top"/>
    </contour>
    <contour>
      <point x="552" y="1" type="move" name="bottom"/>
    </contour>
  </outline>
</glyph>
<glyph name="P" format="1">
  <advance width="783"/>
  <unicode hex="0050"/>
  <outline>
    <contour>
      <point x="226" y="722" type="curve"/>
      <point x="173" y="722"/>
      <point x="119" y="722"/>
      <point x="64" y="722" type="curve"/>
      <point x="64" y="639"/>
      <point x="64" y="722"/>
      <point x="64" y="639" type="curve"/>
      <point x="227" y="639"/>
      <point x="64" y="639"/>
      <point x="226" y="639" type="curve"/>
      <point x="226" y="722"/>
      <point x="226" y="639"/>
    </contour>
    <contour>
      <point x="226" y="83" type="curve"/>
      <point x="64" y="83"/>
      <point x="227" y="83"/>
      <point x="64" y="83" type="curve"/>
      <point x="64" y="0"/>
      <point x="64" y="83"/>
      <point x="64" y="0" type="curve"/>
      <point x="119" y="0"/>
      <point x="173" y="0"/>
      <point x="226" y="0" type="curve"/>
      <point x="226" y="83"/>
      <point x="226" y="0"/>
    </contour>
    <contour>
      <point x="226" y="0" type="curve"/>
      <point x="281" y="0"/>
      <point x="226" y="0"/>
      <point x="388" y="0" type="curve"/>
      <point x="388" y="83"/>
      <point x="388" y="0"/>
      <point x="388" y="83" type="curve"/>
      <point x="226" y="83"/>
      <point x="389" y="83"/>
      <point x="226" y="83" type="curve"/>
      <point x="226" y="0"/>
      <point x="226" y="83"/>
    </contour>
    <contour>
      <point x="211" y="302" type="curve"/>
      <point x="281" y="275"/>
      <point x="361" y="256"/>
      <point x="437" y="256" type="curve"/>
      <point x="613" y="259"/>
      <point x="738" y="324"/>
      <point x="738" y="486" type="curve"/>
      <point x="738" y="653"/>
      <point x="585" y="722"/>
      <point x="397" y="722" type="curve"/>
      <point x="342" y="722"/>
      <point x="286" y="722"/>
      <point x="230" y="722" type="curve"/>
      <point x="230" y="639"/>
      <point x="230" y="722"/>
      <point x="230" y="639" type="curve"/>
      <point x="281" y="639"/>
      <point x="332" y="639"/>
      <point x="382" y="639" type="curve"/>
      <point x="516" y="639"/>
      <point x="627" y="601"/>
      <point x="627" y="488" type="curve"/>
      <point x="627" y="382"/>
      <point x="538" y="339"/>
      <point x="428" y="339" type="curve"/>
      <point x="359" y="339"/>
      <point x="310" y="351"/>
      <point x="246" y="375" type="curve"/>
      <point x="211" y="302"/>
      <point x="246" y="375"/>
    </contour>
    <contour>
      <point x="281" y="0" type="curve"/>
      <point x="281" y="241"/>
      <point x="281" y="481"/>
      <point x="281" y="722" type="curve"/>
      <point x="170" y="722"/>
      <point x="281" y="722"/>
      <point x="170" y="722" type="curve"/>
      <point x="170" y="481"/>
      <point x="170" y="241"/>
      <point x="170" y="0" type="curve"/>
      <point x="281" y="0"/>
      <point x="170" y="0"/>
    </contour>
  </outline>
</glyph>
<glyph name="Q" format="1">
  <advance width="987"/>
  <unicode hex="0051"/>
  <outline>
    <contour>
      <point x="439" y="19" type="curve"/>
      <point x="588" y="-178"/>
      <point x="746" y="-220"/>
      <point x="980" y="-220" type="curve"/>
      <point x="980" y="-134"/>
      <point x="980" y="-220"/>
      <point x="980" y="-134" type="curve"/>
      <point x="789" y="-134"/>
      <point x="659" y="-102"/>
      <point x="535" y="61" type="curve"/>
      <point x="439" y="19"/>
      <point x="535" y="61"/>
    </contour>
    <contour>
      <point x="172" y="360" type="curve"/>
      <point x="172" y="536"/>
      <point x="297" y="638"/>
      <point x="475" y="638" type="curve"/>
      <point x="658" y="638"/>
      <point x="780" y="538"/>
      <point x="780" y="361" type="curve"/>
      <point x="780" y="185"/>
      <point x="659" y="82"/>
      <point x="481" y="82" type="curve"/>
      <point x="297" y="82"/>
      <point x="172" y="182"/>
      <point x="172" y="360" type="curve"/>
      <point x="61" y="360"/>
      <point x="172" y="360"/>
      <point x="61" y="360" type="curve"/>
      <point x="61" y="125"/>
      <point x="233" y="-5"/>
      <point x="476" y="-5" type="curve"/>
      <point x="720" y="-5"/>
      <point x="891" y="128"/>
      <point x="891" y="365" type="curve"/>
      <point x="891" y="600"/>
      <point x="723" y="730"/>
      <point x="481" y="730" type="curve"/>
      <point x="235" y="730"/>
      <point x="61" y="598"/>
      <point x="61" y="360" type="curve"/>
      <point x="172" y="360"/>
      <point x="61" y="360"/>
    </contour>
  </outline>
</glyph>
<glyph name="T" format="1">
  <advance width="849"/>
  <unicode hex="0054"/>
  <outline>
    <contour>
      <point x="34" y="680" type="curve"/>
      <point x="34" y="560"/>
      <point x="34" y="680"/>
      <point x="34" y="560" type="curve"/>
      <point x="120" y="560"/>
      <point x="34" y="560"/>
      <point x="120" y="560" type="curve"/>
      <point x="120" y="680"/>
      <point x="120" y="560"/>
      <point x="120" y="680" type="curve"/>
      <point x="34" y="680"/>
      <point x="120" y="680"/>
    </contour>
    <contour>
      <point x="729" y="680" type="curve"/>
      <point x="729" y="560"/>
      <point x="729" y="680"/>
      <point x="729" y="560" type="curve"/>
      <point x="815" y="560"/>
      <point x="729" y="560"/>
      <point x="815" y="560" type="curve"/>
      <point x="815" y="680"/>
      <point x="815" y="560"/>
      <point x="815" y="680" type="curve"/>
      <point x="729" y="680"/>
      <point x="815" y="680"/>
    </contour>
    <contour>
      <point x="424" y="0" type="curve"/>
      <point x="477" y="0"/>
      <point x="531" y="0"/>
      <point x="585" y="0" type="curve"/>
      <point x="585" y="83"/>
      <point x="585" y="0"/>
      <point x="585" y="83" type="curve"/>
      <point x="423" y="83"/>
      <point x="585" y="83"/>
      <point x="424" y="83" type="curve"/>
      <point x="424" y="0"/>
      <point x="424" y="83"/>
    </contour>
    <contour>
      <point x="424" y="83" type="curve"/>
      <point x="261" y="83"/>
      <point x="424" y="83"/>
      <point x="262" y="83" type="curve"/>
      <point x="262" y="0"/>
      <point x="262" y="83"/>
      <point x="262" y="0" type="curve"/>
      <point x="315" y="0"/>
      <point x="369" y="0"/>
      <point x="424" y="0" type="curve"/>
      <point x="424" y="83"/>
      <point x="424" y="0"/>
    </contour>
    <contour>
      <point x="480" y="0" type="curve"/>
      <point x="480" y="237"/>
      <point x="480" y="473"/>
      <point x="480" y="710" type="curve"/>
      <point x="370" y="710"/>
      <point x="480" y="710"/>
      <point x="370" y="710" type="curve"/>
      <point x="370" y="473"/>
      <point x="370" y="237"/>
      <point x="370" y="0" type="curve"/>
      <point x="480" y="0"/>
      <point x="370" y="0"/>
    </contour>
    <contour>
      <point x="34" y="634" type="curve"/>
      <point x="294" y="634"/>
      <point x="555" y="634"/>
      <point x="815" y="634" type="curve"/>
      <point x="815" y="725"/>
      <point x="815" y="631"/>
      <point x="815" y="722" type="curve"/>
      <point x="555" y="722"/>
      <point x="294" y="722"/>
      <point x="34" y="722" type="curve"/>
      <point x="34" y="631"/>
      <point x="34" y="725"/>
    </contour>
    <contour>
      <point x="421" y="796" type="move" name="top"/>
    </contour>
    <contour>
      <point x="456" y="1" type="move" name="bottom"/>
    </contour>
  </outline>
</glyph>
<glyph name="V" format="1">
  <advance width="976"/>
  <unicode hex="0056"/>
  <outline>
    <contour>
      <point x="804" y="722" type="curve"/>
      <point x="746" y="722"/>
      <point x="688" y="722"/>
      <point x="630" y="722" type="curve"/>
      <point x="630" y="639"/>
      <point x="630" y="722"/>
      <point x="630" y="639" type="curve"/>
      <point x="804" y="639"/>
      <point x="629" y="639"/>
      <point x="804" y="639" type="curve"/>
      <point x="804" y="722"/>
      <point x="804" y="639"/>
    </contour>
    <contour>
      <point x="145" y="722" type="curve"/>
      <point x="95" y="722"/>
      <point x="46" y="722"/>
      <point x="-5" y="722" type="curve"/>
      <point x="-5" y="639"/>
      <point x="-5" y="722"/>
      <point x="-5" y="639" type="curve"/>
      <point x="145" y="639"/>
      <point x="-5" y="639"/>
      <point x="145" y="639" type="curve"/>
      <point x="145" y="722"/>
      <point x="145" y="639"/>
    </contour>
    <contour>
      <point x="816" y="639" type="curve"/>
      <point x="965" y="639"/>
      <point x="816" y="639"/>
      <point x="965" y="639" type="curve"/>
      <point x="965" y="722"/>
      <point x="965" y="639"/>
      <point x="965" y="722" type="curve"/>
      <point x="915" y="722"/>
      <point x="866" y="722"/>
      <point x="816" y="722" type="curve"/>
      <point x="816" y="639"/>
      <point x="816" y="722"/>
    </contour>
    <contour>
      <point x="157" y="639" type="curve"/>
      <point x="331" y="639"/>
      <point x="157" y="639"/>
      <point x="330" y="639" type="curve"/>
      <point x="330" y="722"/>
      <point x="330" y="639"/>
      <point x="330" y="722" type="curve"/>
      <point x="273" y="722"/>
      <point x="215" y="722"/>
      <point x="157" y="722" type="curve"/>
      <point x="157" y="639"/>
      <point x="157" y="722"/>
    </contour>
    <contour>
      <point x="780" y="722" type="curve"/>
      <point x="663" y="481"/>
      <point x="547" y="241"/>
      <point x="431" y="0" type="curve"/>
      <point x="545" y="0"/>
      <point x="430" y="0"/>
      <point x="544" y="0" type="curve"/>
      <point x="660" y="241"/>
      <point x="777" y="481"/>
      <point x="894" y="722" type="curve"/>
      <point x="780" y="722"/>
      <point x="894" y="722"/>
    </contour>
    <contour>
      <point x="67" y="722" type="curve"/>
      <point x="186" y="481"/>
      <point x="304" y="241"/>
      <point x="423" y="0" type="curve"/>
      <point x="536" y="0"/>
      <point x="422" y="0"/>
      <point x="536" y="0" type="curve"/>
      <point x="418" y="241"/>
      <point x="300" y="481"/>
      <point x="182" y="722" type="curve"/>
      <point x="68" y="722"/>
      <point x="182" y="722"/>
    </contour>
  </outline>
</glyph>
<glyph name="W" format="1">
  <advance width="1241"/>
  <unicode hex="0057"/>
  <outline>
    <contour>
      <point x="167" y="639" type="curve"/>
      <point x="322" y="639"/>
      <point x="167" y="639"/>
      <point x="322" y="639" type="curve"/>
      <point x="322" y="722"/>
      <point x="322" y="639"/>
      <point x="322" y="722" type="curve"/>
      <point x="270" y="722"/>
      <point x="219" y="722"/>
      <point x="167" y="722" type="curve"/>
      <point x="167" y="639"/>
      <point x="167" y="722"/>
    </contour>
    <contour>
      <point x="167" y="722" type="curve"/>
      <point x="113" y="722"/>
      <point x="59" y="722"/>
      <point x="6" y="722" type="curve"/>
      <point x="6" y="639"/>
      <point x="6" y="722"/>
      <point x="6" y="639" type="curve"/>
      <point x="167" y="639"/>
      <point x="6" y="639"/>
      <point x="167" y="639" type="curve"/>
      <point x="167" y="722"/>
      <point x="167" y="639"/>
    </contour>
    <contour>
      <point x="1070" y="722" type="curve"/>
      <point x="1018" y="722"/>
      <point x="967" y="722"/>
      <point x="916" y="722" type="curve"/>
      <point x="916" y="639"/>
      <point x="916" y="722"/>
      <point x="916" y="639" type="curve"/>
      <point x="1070" y="639"/>
      <point x="916" y="639"/>
      <point x="1070" y="639" type="curve"/>
      <point x="1070" y="722"/>
      <point x="1070" y="639"/>
    </contour>
    <contour>
      <point x="1070" y="639" type="curve"/>
      <point x="1231" y="639"/>
      <point x="1070" y="639"/>
      <point x="1231" y="639" type="curve"/>
      <point x="1231" y="722"/>
      <point x="1231" y="639"/>
      <point x="1231" y="722" type="curve"/>
      <point x="1178" y="722"/>
      <point x="1124" y="722"/>
      <point x="1070" y="722" type="curve"/>
      <point x="1070" y="639"/>
      <point x="1070" y="722"/>
    </contour>
    <contour>
      <point x="423" y="0" type="curve"/>
      <point x="507" y="241"/>
      <point x="589" y="481"/>
      <point x="673" y="722" type="curve"/>
      <point x="564" y="722"/>
      <point x="676" y="722"/>
      <point x="567" y="722" type="curve"/>
      <point x="487" y="480"/>
      <point x="408" y="241"/>
      <point x="327" y="0" type="curve"/>
      <point x="431" y="0"/>
      <point x="320" y="0"/>
    </contour>
    <contour>
      <point x="581" y="722" type="curve"/>
      <point x="657" y="481"/>
      <point x="728" y="241"/>
      <point x="803" y="0" type="curve"/>
      <point x="907" y="0"/>
      <point x="795" y="0"/>
      <point x="899" y="0" type="curve"/>
      <point x="829" y="241"/>
      <point x="759" y="480"/>
      <point x="684" y="722" type="curve"/>
      <point x="576" y="722"/>
      <point x="689" y="722"/>
    </contour>
    <contour>
      <point x="84" y="722" type="curve"/>
      <point x="160" y="481"/>
      <point x="236" y="241"/>
      <point x="312" y="0" type="curve"/>
      <point x="416" y="0"/>
      <point x="309" y="0"/>
      <point x="412" y="0" type="curve"/>
      <point x="339" y="241"/>
      <point x="268" y="481"/>
      <point x="194" y="722" type="curve"/>
      <point x="84" y="722"/>
      <point x="194" y="722"/>
    </contour>
    <contour>
      <point x="1042" y="722" type="curve"/>
      <point x="966" y="481"/>
      <point x="893" y="241"/>
      <point x="818" y="0" type="curve"/>
      <point x="922" y="0"/>
      <point x="811" y="0"/>
      <point x="915" y="0" type="curve"/>
      <point x="994" y="241"/>
      <point x="1073" y="481"/>
      <point x="1152" y="722" type="curve"/>
      <point x="1042" y="722"/>
      <point x="1152" y="722"/>
    </contour>
  </outline>
</glyph>
<glyph name="X" format="1">
  <advance width="910"/>
  <unicode hex="0058"/>
  <outline>
    <contour>
      <point x="179" y="0" type="curve"/>
      <point x="239" y="0"/>
      <point x="179" y="0"/>
      <point x="358" y="0" type="curve"/>
      <point x="358" y="83"/>
      <point x="358" y="0"/>
      <point x="358" y="83" type="curve"/>
      <point x="179" y="83"/>
      <point x="358" y="83"/>
      <point x="179" y="83" type="curve"/>
      <point x="179" y="0"/>
      <point x="179" y="83"/>
    </contour>
    <contour>
      <point x="178" y="83" type="curve"/>
      <point x="11" y="83"/>
      <point x="178" y="83"/>
      <point x="11" y="83" type="curve"/>
      <point x="11" y="0"/>
      <point x="11" y="83"/>
      <point x="11" y="0" type="curve"/>
      <point x="67" y="0"/>
      <point x="123" y="0"/>
      <point x="178" y="0" type="curve"/>
      <point x="178" y="83"/>
      <point x="178" y="0"/>
    </contour>
    <contour>
      <point x="728" y="0" type="curve"/>
      <point x="783" y="0"/>
      <point x="839" y="0"/>
      <point x="894" y="0" type="curve"/>
      <point x="894" y="83"/>
      <point x="894" y="0"/>
      <point x="894" y="83" type="curve"/>
      <point x="728" y="83"/>
      <point x="895" y="83"/>
      <point x="728" y="83" type="curve"/>
      <point x="728" y="0"/>
      <point x="728" y="83"/>
    </contour>
    <contour>
      <point x="727" y="83" type="curve"/>
      <point x="548" y="83"/>
      <point x="727" y="83"/>
      <point x="548" y="83" type="curve"/>
      <point x="548" y="0"/>
      <point x="548" y="83"/>
      <point x="548" y="0" type="curve"/>
      <point x="608" y="0"/>
      <point x="667" y="0"/>
      <point x="727" y="0" type="curve"/>
      <point x="727" y="83"/>
      <point x="727" y="0"/>
    </contour>
    <contour>
      <point x="694" y="639" type="curve"/>
      <point x="861" y="639"/>
      <point x="694" y="639"/>
      <point x="861" y="639" type="curve"/>
      <point x="861" y="722"/>
      <point x="861" y="639"/>
      <point x="861" y="722" type="curve"/>
      <point x="805" y="722"/>
      <point x="750" y="722"/>
      <point x="694" y="722" type="curve"/>
      <point x="694" y="639"/>
      <point x="694" y="722"/>
    </contour>
    <contour>
      <point x="695" y="722" type="curve"/>
      <point x="636" y="722"/>
      <point x="576" y="722"/>
      <point x="516" y="722" type="curve"/>
      <point x="516" y="639"/>
      <point x="516" y="722"/>
      <point x="516" y="639" type="curve"/>
      <point x="696" y="639"/>
      <point x="515" y="639"/>
      <point x="695" y="639" type="curve"/>
      <point x="695" y="722"/>
      <point x="695" y="639"/>
    </contour>
    <contour>
      <point x="221" y="722" type="curve"/>
      <point x="166" y="722"/>
      <point x="110" y="722"/>
      <point x="55" y="722" type="curve"/>
      <point x="55" y="639"/>
      <point x="55" y="722"/>
      <point x="55" y="639" type="curve"/>
      <point x="222" y="639"/>
      <point x="54" y="639"/>
      <point x="221" y="639" type="curve"/>
      <point x="221" y="722"/>
      <point x="221" y="639"/>
    </contour>
    <contour>
      <point x="220" y="639" type="curve"/>
      <point x="400" y="639"/>
      <point x="220" y="639"/>
      <point x="400" y="639" type="curve"/>
      <point x="400" y="722"/>
      <point x="400" y="639"/>
      <point x="400" y="722" type="curve"/>
      <point x="340" y="722"/>
      <point x="280" y="722"/>
      <point x="220" y="722" type="curve"/>
      <point x="220" y="639"/>
      <point x="220" y="722"/>
    </contour>
    <contour>
      <point x="692" y="722" type="curve"/>
      <point x="491" y="490"/>
      <point x="286" y="261"/>
      <point x="85" y="30" type="curve"/>
      <point x="196" y="30"/>
      <point x="85" y="0"/>
      <point x="196" y="0" type="curve"/>
      <point x="397" y="232"/>
      <point x="595" y="465"/>
      <point x="795" y="697" type="curve"/>
      <point x="692" y="697"/>
      <point x="795" y="722"/>
    </contour>
    <contour>
      <point x="122" y="696" type="curve"/>
      <point x="321" y="465"/>
      <point x="517" y="232"/>
      <point x="715" y="0" type="curve"/>
      <point x="827" y="0"/>
      <point x="715" y="20"/>
      <point x="827" y="20" type="curve"/>
      <point x="626" y="254"/>
      <point x="424" y="487"/>
      <point x="222" y="722" type="curve"/>
      <point x="122" y="722"/>
      <point x="222" y="696"/>
    </contour>
  </outline>
</glyph>
<glyph name="Y" format="1">
  <advance width="810"/>
  <unicode hex="0059"/>
  <outline>
    <contour>
      <point x="396" y="83" type="curve"/>
      <point x="233" y="83"/>
      <point x="396" y="83"/>
      <point x="234" y="83" type="curve"/>
      <point x="234" y="0"/>
      <point x="234" y="83"/>
      <point x="234" y="0" type="curve"/>
      <point x="288" y="0"/>
      <point x="342" y="0"/>
      <point x="396" y="0" type="curve"/>
      <point x="396" y="83"/>
      <point x="396" y="0"/>
    </contour>
    <contour>
      <point x="396" y="0" type="curve"/>
      <point x="450" y="0"/>
      <point x="504" y="0"/>
      <point x="558" y="0" type="curve"/>
      <point x="558" y="83"/>
      <point x="558" y="0"/>
      <point x="558" y="83" type="curve"/>
      <point x="395" y="83"/>
      <point x="558" y="83"/>
      <point x="396" y="83" type="curve"/>
      <point x="396" y="0"/>
      <point x="396" y="83"/>
    </contour>
    <contour>
      <point x="649" y="722" type="curve"/>
      <point x="595" y="722"/>
      <point x="542" y="722"/>
      <point x="488" y="722" type="curve"/>
      <point x="488" y="639"/>
      <point x="488" y="722"/>
      <point x="488" y="639" type="curve"/>
      <point x="649" y="639"/>
      <point x="487" y="639"/>
      <point x="649" y="639" type="curve"/>
      <point x="649" y="722"/>
      <point x="649" y="639"/>
    </contour>
    <contour>
      <point x="156" y="722" type="curve"/>
      <point x="107" y="722"/>
      <point x="57" y="722"/>
      <point x="8" y="722" type="curve"/>
      <point x="8" y="639"/>
      <point x="8" y="722"/>
      <point x="8" y="639" type="curve"/>
      <point x="156" y="639"/>
      <point x="8" y="639"/>
      <point x="156" y="639" type="curve"/>
      <point x="156" y="722"/>
      <point x="156" y="639"/>
    </contour>
    <contour>
      <point x="157" y="639" type="curve"/>
      <point x="319" y="639"/>
      <point x="157" y="639"/>
      <point x="319" y="639" type="curve"/>
      <point x="319" y="722"/>
      <point x="319" y="639"/>
      <point x="319" y="722" type="curve"/>
      <point x="265" y="722"/>
      <point x="211" y="722"/>
      <point x="157" y="722" type="curve"/>
      <point x="157" y="639"/>
      <point x="157" y="722"/>
    </contour>
    <contour>
      <point x="650" y="639" type="curve"/>
      <point x="799" y="639"/>
      <point x="650" y="639"/>
      <point x="799" y="639" type="curve"/>
      <point x="799" y="722"/>
      <point x="799" y="639"/>
      <point x="799" y="722" type="curve"/>
      <point x="749" y="722"/>
      <point x="700" y="722"/>
      <point x="650" y="722" type="curve"/>
      <point x="650" y="639"/>
      <point x="650" y="722"/>
    </contour>
    <contour>
      <point x="63" y="698" type="curve"/>
      <point x="155" y="578"/>
      <point x="247" y="457"/>
      <point x="339" y="337" type="curve"/>
      <point x="452" y="337"/>
      <point x="338" y="338"/>
      <point x="450" y="338" type="curve"/>
      <point x="352" y="466"/>
      <point x="256" y="594"/>
      <point x="157" y="722" type="curve"/>
      <point x="63" y="722"/>
      <point x="157" y="698"/>
    </contour>
    <contour>
      <point x="651" y="722" type="curve"/>
      <point x="547" y="594"/>
      <point x="444" y="466"/>
      <point x="341" y="338" type="curve"/>
      <point x="453" y="338"/>
      <point x="340" y="337"/>
      <point x="452" y="337" type="curve"/>
      <point x="550" y="458"/>
      <point x="647" y="579"/>
      <point x="746" y="699" type="curve"/>
      <point x="651" y="699"/>
      <point x="746" y="722"/>
    </contour>
    <contour>
      <point x="456" y="0" type="curve"/>
      <point x="456" y="115"/>
      <point x="456" y="230"/>
      <point x="456" y="345" type="curve"/>
      <point x="335" y="345"/>
      <point x="456" y="345"/>
      <point x="335" y="345" type="curve"/>
      <point x="335" y="230"/>
      <point x="335" y="115"/>
      <point x="335" y="0" type="curve"/>
      <point x="456" y="0"/>
      <point x="335" y="0"/>
    </contour>
    <contour>
      <point x="399" y="796" type="move" name="top"/>
    </contour>
  </outline>
</glyph>
<glyph name="bracketleft" format="1">
  <advance width="372"/>
  <unicode hex="005B"/>
  <outline>
    <contour>
      <point x="323" y="770" type="curve"/>
      <point x="258" y="770"/>
      <point x="194" y="770"/>
      <point x="130" y="770" type="curve"/>
      <point x="116" y="770"/>
      <point x="96" y="770"/>
      <point x="83" y="770" type="curve"/>
      <point x="83" y="759"/>
      <point x="83" y="741"/>
      <point x="83" y="730" type="curve"/>
      <point x="83" y="460"/>
      <point x="83" y="191"/>
      <point x="83" y="-78" type="curve"/>
      <point x="83" y="-90"/>
      <point x="83" y="-105"/>
      <point x="83" y="-116" type="curve"/>
      <point x="95" y="-116"/>
      <point x="115" y="-116"/>
      <point x="129" y="-116" type="curve"/>
      <point x="193" y="-116"/>
      <point x="258" y="-116"/>
      <point x="323" y="-116" type="curve"/>
      <point x="323" y="-25"/>
      <point x="323" y="-116"/>
      <point x="323" y="-25" type="curve"/>
      <point x="258" y="-25"/>
      <point x="193" y="-25"/>
      <point x="129" y="-25" type="curve"/>
      <point x="194" y="-25"/>
      <point x="129" y="-25"/>
      <point x="194" y="-25" type="curve"/>
      <point x="194" y="-78"/>
      <point x="194" y="-25"/>
      <point x="194" y="-78" type="curve"/>
      <point x="194" y="191"/>
      <point x="194" y="460"/>
      <point x="194" y="730" type="curve"/>
      <point x="194" y="679"/>
      <point x="194" y="730"/>
      <point x="194" y="679" type="curve"/>
      <point x="130" y="679"/>
      <point x="194" y="679"/>
      <point x="130" y="679" type="curve"/>
      <point x="194" y="679"/>
      <point x="258" y="679"/>
      <point x="323" y="679" type="curve"/>
      <point x="323" y="770"/>
      <point x="323" y="679"/>
    </contour>
  </outline>
</glyph>
<glyph name="bracketright" format="1">
  <advance width="372"/>
  <unicode hex="005D"/>
  <outline>
    <contour>
      <point x="49" y="679" type="curve"/>
      <point x="113" y="679"/>
      <point x="177" y="679"/>
      <point x="242" y="679" type="curve"/>
      <point x="230" y="686"/>
      <point x="217" y="692"/>
      <point x="206" y="700" type="curve"/>
      <point x="195" y="708"/>
      <point x="188" y="721"/>
      <point x="177" y="730" type="curve"/>
      <point x="177" y="460"/>
      <point x="177" y="191"/>
      <point x="177" y="-78" type="curve"/>
      <point x="189" y="-69"/>
      <point x="197" y="-57"/>
      <point x="209" y="-48" type="curve"/>
      <point x="220" y="-40"/>
      <point x="232" y="-33"/>
      <point x="243" y="-25" type="curve"/>
      <point x="178" y="-25"/>
      <point x="113" y="-25"/>
      <point x="49" y="-25" type="curve"/>
      <point x="49" y="-116"/>
      <point x="49" y="-25"/>
      <point x="49" y="-116" type="curve"/>
      <point x="113" y="-116"/>
      <point x="178" y="-116"/>
      <point x="243" y="-116" type="curve"/>
      <point x="289" y="-116"/>
      <point x="243" y="-116"/>
      <point x="289" y="-116" type="curve"/>
      <point x="289" y="-78"/>
      <point x="289" y="-116"/>
      <point x="289" y="-78" type="curve"/>
      <point x="288" y="191"/>
      <point x="289" y="460"/>
      <point x="289" y="730" type="curve"/>
      <point x="289" y="770"/>
      <point x="289" y="730"/>
      <point x="289" y="770" type="curve"/>
      <point x="242" y="770"/>
      <point x="289" y="770"/>
      <point x="242" y="770" type="curve"/>
      <point x="177" y="770"/>
      <point x="113" y="770"/>
      <point x="49" y="770" type="curve"/>
      <point x="49" y="679"/>
      <point x="49" y="770"/>
    </contour>
  </outline>
</glyph>
<glyph name="asciicircum" format="1">
  <advance width="671"/>
  <unicode hex="005E"/>
  <outline>
    <contour>
      <point x="171" y="457" type="curve"/>
      <point x="243" y="562"/>
      <point x="317" y="666"/>
      <point x="390" y="771" type="curve"/>
      <point x="280" y="771"/>
      <point x="389" y="771"/>
      <point x="279" y="771" type="curve"/>
      <point x="206" y="666"/>
      <point x="133" y="562"/>
      <point x="60" y="457" type="curve"/>
      <point x="170" y="457"/>
      <point x="60" y="457"/>
    </contour>
    <contour>
      <point x="612" y="457" type="curve"/>
      <point x="540" y="560"/>
      <point x="463" y="668"/>
      <point x="390" y="771" type="curve"/>
      <point x="280" y="771"/>
      <point x="390" y="771"/>
      <point x="280" y="771" type="curve"/>
      <point x="352" y="668"/>
      <point x="428" y="560"/>
      <point x="501" y="457" type="curve"/>
      <point x="611" y="457"/>
      <point x="502" y="457"/>
    </contour>
  </outline>
</glyph>
<glyph name="underscore" format="1">
  <advance width="859"/>
  <unicode hex="005F"/>
  <outline>
    <contour>
      <point x="0" y="-191" type="curve"/>
      <point x="287" y="-191"/>
      <point x="573" y="-191"/>
      <point x="859" y="-191" type="curve"/>
      <point x="859" y="-109"/>
      <point x="859" y="-191"/>
      <point x="859" y="-109" type="curve"/>
      <point x="573" y="-109"/>
      <point x="287" y="-109"/>
      <point x="0" y="-109" type="curve"/>
      <point x="0" y="-191"/>
      <point x="0" y="-109"/>
    </contour>
  </outline>
</glyph>
<glyph name="grave" format="1">
  <advance width="447"/>
  <unicode hex="0060"/>
  <outline>
    <contour>
      <point x="362" y="556" type="line"/>
      <point x="209" y="722" type="line"/>
      <point x="62" y="722" type="line"/>
      <point x="249" y="556" type="line"/>
    </contour>
    <contour>
      <point x="297" y="557" type="move" name="_top"/>
    </contour>
  </outline>
</glyph>
<glyph name="b" format="1">
  <advance width="821"/>
  <unicode hex="0062"/>
  <outline>
    <contour>
      <point x="190" y="800" type="curve"/>
      <point x="131" y="800"/>
      <point x="87" y="800"/>
      <point x="28" y="800" type="curve"/>
      <point x="28" y="759"/>
      <point x="28" y="758"/>
      <point x="28" y="717" type="curve"/>
      <point x="132" y="717"/>
      <point x="86" y="717"/>
      <point x="190" y="717" type="curve"/>
      <point x="190" y="758"/>
      <point x="190" y="759"/>
    </contour>
    <contour>
      <point x="210" y="344" type="curve"/>
      <point x="268" y="406"/>
      <point x="344" y="452"/>
      <point x="450" y="452" type="curve"/>
      <point x="572" y="452"/>
      <point x="655" y="384"/>
      <point x="655" y="263" type="curve"/>
      <point x="657" y="146"/>
      <point x="571" y="80"/>
      <point x="450" y="81" type="curve"/>
      <point x="353" y="81"/>
      <point x="279" y="116"/>
      <point x="220" y="173" type="curve"/>
      <point x="188" y="151"/>
      <point x="186" y="150"/>
      <point x="154" y="127" type="curve"/>
      <point x="244" y="44"/>
      <point x="334" y="-5"/>
      <point x="470" y="-5" type="curve"/>
      <point x="647" y="-5"/>
      <point x="768" y="89"/>
      <point x="767" y="264" type="curve"/>
      <point x="767" y="442"/>
      <point x="646" y="539"/>
      <point x="468" y="539" type="curve"/>
      <point x="335" y="539"/>
      <point x="242" y="485"/>
      <point x="161" y="404" type="curve"/>
      <point x="187" y="377"/>
      <point x="185" y="371"/>
    </contour>
    <contour>
      <point x="243" y="0" type="curve"/>
      <point x="243" y="291"/>
      <point x="243" y="509"/>
      <point x="243" y="800" type="curve"/>
      <point x="189" y="800"/>
      <point x="186" y="800"/>
      <point x="132" y="800" type="curve"/>
      <point x="132" y="509"/>
      <point x="132" y="291"/>
      <point x="132" y="0" type="curve"/>
      <point x="186" y="0"/>
      <point x="189" y="0"/>
    </contour>
    <contour>
      <point x="190" y="82" type="curve"/>
      <point x="86" y="82"/>
      <point x="132" y="83"/>
      <point x="28" y="83" type="curve"/>
      <point x="28" y="42"/>
      <point x="28" y="41"/>
      <point x="28" y="0" type="curve"/>
      <point x="87" y="0"/>
      <point x="131" y="0"/>
      <point x="190" y="0" type="curve"/>
      <point x="190" y="41"/>
      <point x="190" y="41"/>
    </contour>
  </outline>
</glyph>
<glyph name="f" format="1">
  <advance width="600"/>
  <unicode hex="0066"/>
  <outline>
    <contour>
      <point x="493" y="767" type="curve"/>
      <point x="493" y="633"/>
      <point x="493" y="768"/>
      <point x="493" y="634" type="curve"/>
      <point x="578" y="634"/>
      <point x="493" y="634"/>
      <point x="578" y="634" type="curve"/>
      <point x="578" y="768"/>
      <point x="578" y="633"/>
      <point x="578" y="767" type="curve"/>
      <point x="493" y="767"/>
      <point x="578" y="767"/>
    </contour>
    <contour>
      <point x="254" y="-1" type="curve"/>
      <point x="314" y="-1"/>
      <point x="356" y="0"/>
      <point x="416" y="0" type="curve"/>
      <point x="416" y="83"/>
      <point x="416" y="0"/>
      <point x="416" y="83" type="curve"/>
      <point x="236" y="82"/>
      <point x="433" y="83"/>
      <point x="254" y="82" type="curve"/>
      <point x="254" y="-1"/>
      <point x="254" y="82"/>
    </contour>
    <contour>
      <point x="254" y="82" type="curve"/>
      <point x="74" y="83"/>
      <point x="271" y="82"/>
      <point x="92" y="83" type="curve"/>
      <point x="92" y="0"/>
      <point x="92" y="83"/>
      <point x="92" y="0" type="curve"/>
      <point x="152" y="0"/>
      <point x="194" y="-1"/>
      <point x="254" y="-1" type="curve"/>
      <point x="254" y="82"/>
      <point x="254" y="-1"/>
    </contour>
    <contour>
      <point x="32" y="450" type="curve"/>
      <point x="541" y="450" type="line"/>
      <point x="541" y="533"/>
      <point x="541" y="450"/>
      <point x="541" y="533" type="curve"/>
      <point x="32" y="533" type="line"/>
      <point x="32" y="450"/>
      <point x="32" y="533"/>
    </contour>
    <contour>
      <point x="309" y="0" type="curve"/>
      <point x="309" y="616" type="line"/>
      <point x="309" y="684"/>
      <point x="356" y="723"/>
      <point x="427" y="723" type="curve"/>
      <point x="463" y="723"/>
      <point x="500" y="714"/>
      <point x="533" y="701" type="curve"/>
      <point x="578" y="767"/>
      <point x="533" y="701"/>
      <point x="578" y="767" type="curve"/>
      <point x="530" y="786"/>
      <point x="479" y="802"/>
      <point x="427" y="802" type="curve"/>
      <point x="294" y="802"/>
      <point x="197" y="740"/>
      <point x="198" y="616" type="curve"/>
      <point x="198" y="0" type="line"/>
      <point x="309" y="0"/>
      <point x="198" y="0"/>
    </contour>
  </outline>
</glyph>
<glyph name="h" format="1">
  <advance width="804"/>
  <unicode hex="0068"/>
  <outline>
    <contour>
      <point x="637" y="-1" type="curve"/>
      <point x="697" y="-1"/>
      <point x="739" y="0"/>
      <point x="799" y="0" type="curve"/>
      <point x="799" y="83"/>
      <point x="799" y="0"/>
      <point x="799" y="83" type="curve"/>
      <point x="620" y="82"/>
      <point x="817" y="83"/>
      <point x="637" y="82" type="curve"/>
      <point x="637" y="-1"/>
      <point x="637" y="82"/>
    </contour>
    <contour>
      <point x="170" y="-1" type="curve"/>
      <point x="225" y="-1"/>
      <point x="153" y="-1"/>
      <point x="319" y="0" type="curve"/>
      <point x="319" y="83"/>
      <point x="319" y="0"/>
      <point x="319" y="83" type="curve"/>
      <point x="153" y="82"/>
      <point x="336" y="83"/>
      <point x="170" y="82" type="curve"/>
      <point x="170" y="-1"/>
      <point x="170" y="82"/>
    </contour>
    <contour>
      <point x="170" y="799" type="curve"/>
      <point x="110" y="799"/>
      <point x="68" y="800"/>
      <point x="8" y="800" type="curve"/>
      <point x="8" y="717"/>
      <point x="8" y="800"/>
      <point x="8" y="717" type="curve"/>
      <point x="188" y="717"/>
      <point x="-10" y="717"/>
      <point x="170" y="717" type="curve"/>
      <point x="170" y="799"/>
      <point x="170" y="717"/>
    </contour>
    <contour>
      <point x="170" y="82" type="curve"/>
      <point x="-9" y="83"/>
      <point x="188" y="82"/>
      <point x="8" y="83" type="curve"/>
      <point x="8" y="0"/>
      <point x="8" y="83"/>
      <point x="8" y="0" type="curve"/>
      <point x="68" y="0"/>
      <point x="110" y="-1"/>
      <point x="170" y="-1" type="curve"/>
      <point x="170" y="82"/>
      <point x="170" y="-1"/>
    </contour>
    <contour>
      <point x="201" y="300" type="curve"/>
      <point x="241" y="397"/>
      <point x="331" y="455"/>
      <point x="427" y="455" type="curve"/>
      <point x="523" y="455"/>
      <point x="583" y="402"/>
      <point x="583" y="310" type="curve"/>
      <point x="583" y="204"/>
      <point x="583" y="106"/>
      <point x="583" y="0" type="curve"/>
      <point x="694" y="0"/>
      <point x="583" y="0"/>
      <point x="694" y="0" type="curve"/>
      <point x="694" y="109"/>
      <point x="694" y="218"/>
      <point x="694" y="327" type="curve"/>
      <point x="694" y="473"/>
      <point x="598" y="538"/>
      <point x="445" y="538" type="curve"/>
      <point x="317" y="538"/>
      <point x="202" y="467"/>
      <point x="147" y="339" type="curve"/>
      <point x="203" y="297"/>
      <point x="145" y="341"/>
    </contour>
    <contour>
      <point x="225" y="0" type="curve"/>
      <point x="225" y="267"/>
      <point x="225" y="533"/>
      <point x="225" y="800" type="curve"/>
      <point x="114" y="800"/>
      <point x="225" y="800"/>
      <point x="114" y="800" type="curve"/>
      <point x="114" y="533"/>
      <point x="114" y="267"/>
      <point x="114" y="0" type="curve"/>
      <point x="225" y="0"/>
      <point x="114" y="0"/>
    </contour>
  </outline>
</glyph>
<glyph name="i" format="1">
  <advance width="369"/>
  <unicode hex="0069"/>
  <outline>
    <contour>
      <point x="195" y="83" type="curve"/>
      <point x="15" y="83"/>
      <point x="213" y="83"/>
      <point x="33" y="83" type="curve"/>
      <point x="33" y="0"/>
      <point x="33" y="83"/>
      <point x="33" y="0" type="curve"/>
      <point x="93" y="0"/>
      <point x="135" y="0"/>
      <point x="195" y="0" type="curve"/>
      <point x="195" y="83"/>
      <point x="195" y="0"/>
    </contour>
    <contour>
      <point x="195" y="0" type="curve"/>
      <point x="251" y="0"/>
      <point x="295" y="0"/>
      <point x="350" y="0" type="curve"/>
      <point x="350" y="83"/>
      <point x="350" y="0"/>
      <point x="350" y="83" type="curve"/>
      <point x="183" y="83"/>
      <point x="362" y="83"/>
      <point x="195" y="83" type="curve"/>
      <point x="195" y="0"/>
      <point x="195" y="83"/>
    </contour>
    <contour>
      <point x="195" y="533" type="curve"/>
      <point x="135" y="533"/>
      <point x="93" y="533"/>
      <point x="33" y="533" type="curve"/>
      <point x="33" y="450"/>
      <point x="33" y="533"/>
      <point x="33" y="450" type="curve"/>
      <point x="213" y="450"/>
      <point x="15" y="450"/>
      <point x="195" y="450" type="curve"/>
      <point x="195" y="533"/>
      <point x="195" y="450"/>
    </contour>
    <contour>
      <point x="254" y="0" type="curve"/>
      <point x="254" y="178"/>
      <point x="254" y="355"/>
      <point x="254" y="533" type="curve"/>
      <point x="138" y="533"/>
      <point x="254" y="533"/>
      <point x="138" y="533" type="curve"/>
      <point x="138" y="355"/>
      <point x="138" y="178"/>
      <point x="138" y="0" type="curve"/>
      <point x="254" y="0"/>
      <point x="138" y="0"/>
    </contour>
    <contour>
      <point x="261" y="685" type="curve"/>
      <point x="261" y="722"/>
      <point x="232" y="740"/>
      <point x="193" y="740" type="curve"/>
      <point x="154" y="740"/>
      <point x="128" y="720"/>
      <point x="128" y="685" type="curve"/>
      <point x="253" y="685"/>
      <point x="136" y="685"/>
      <point x="261" y="685" type="curve"/>
      <point x="261" y="647"/>
      <point x="232" y="630"/>
      <point x="192" y="630" type="curve"/>
      <point x="154" y="630"/>
      <point x="128" y="649"/>
      <point x="128" y="685" type="curve"/>
      <point x="253" y="685"/>
      <point x="136" y="685"/>
    </contour>
    <contour>
      <point x="193" y="631" type="move" name="top"/>
    </contour>
    <contour>
      <point x="246" y="8" type="move" name="bottom"/>
    </contour>
  </outline>
</glyph>
<glyph name="j" format="1">
  <advance width="370"/>
  <unicode hex="006A"/>
  <outline>
    <contour>
      <point x="216" y="533" type="curve"/>
      <point x="156" y="533"/>
      <point x="96" y="533"/>
      <point x="36" y="533" type="curve"/>
      <point x="36" y="450"/>
      <point x="36" y="533"/>
      <point x="36" y="450" type="curve"/>
      <point x="216" y="450"/>
      <point x="36" y="450"/>
      <point x="216" y="450" type="curve"/>
      <point x="216" y="533"/>
      <point x="216" y="450"/>
    </contour>
    <contour>
      <point x="-11" y="-302" type="curve"/>
      <point x="0" y="-302"/>
      <point x="15" y="-305"/>
      <point x="30" y="-305" type="curve"/>
      <point x="163" y="-305"/>
      <point x="272" y="-250"/>
      <point x="272" y="-127" type="curve"/>
      <point x="272" y="93"/>
      <point x="272" y="313"/>
      <point x="272" y="534" type="curve"/>
      <point x="162" y="534"/>
      <point x="272" y="534"/>
      <point x="162" y="534" type="curve"/>
      <point x="162" y="313"/>
      <point x="162" y="93"/>
      <point x="162" y="-127" type="curve"/>
      <point x="162" y="-193"/>
      <point x="105" y="-225"/>
      <point x="35" y="-225" type="curve"/>
      <point x="24" y="-225"/>
      <point x="11" y="-224"/>
      <point x="5" y="-223" type="curve"/>
      <point x="-10" y="-302"/>
      <point x="5" y="-223"/>
    </contour>
    <contour>
      <point x="285" y="684" type="curve"/>
      <point x="285" y="721"/>
      <point x="256" y="739"/>
      <point x="217" y="739" type="curve"/>
      <point x="179" y="739"/>
      <point x="152" y="719"/>
      <point x="152" y="684" type="curve"/>
      <point x="277" y="684"/>
      <point x="160" y="684"/>
      <point x="285" y="684" type="curve"/>
      <point x="285" y="646"/>
      <point x="256" y="630"/>
      <point x="217" y="630" type="curve"/>
      <point x="178" y="630"/>
      <point x="152" y="648"/>
      <point x="152" y="684" type="curve"/>
      <point x="277" y="684"/>
      <point x="160" y="684"/>
    </contour>
  </outline>
</glyph>
<glyph name="k" format="1">
  <advance width="742"/>
  <unicode hex="006B"/>
  <outline>
    <contour>
      <point x="169" y="82" type="curve"/>
      <point x="-10" y="83"/>
      <point x="187" y="82"/>
      <point x="8" y="83" type="curve"/>
      <point x="8" y="0"/>
      <point x="8" y="83"/>
      <point x="8" y="0" type="curve"/>
      <point x="67" y="0"/>
      <point x="109" y="-1"/>
      <point x="169" y="-1" type="curve"/>
      <point x="169" y="82"/>
      <point x="169" y="-1"/>
    </contour>
    <contour>
      <point x="555" y="-1" type="curve"/>
      <point x="619" y="-1"/>
      <point x="655" y="0"/>
      <point x="718" y="0" type="curve"/>
      <point x="718" y="83"/>
      <point x="718" y="0"/>
      <point x="718" y="83" type="curve"/>
      <point x="526" y="82"/>
      <point x="747" y="83"/>
      <point x="555" y="82" type="curve"/>
      <point x="555" y="-1"/>
      <point x="555" y="82"/>
    </contour>
    <contour>
      <point x="547" y="450" type="curve"/>
      <point x="712" y="450"/>
      <point x="517" y="450"/>
      <point x="682" y="450" type="curve"/>
      <point x="682" y="533"/>
      <point x="682" y="450"/>
      <point x="682" y="533" type="curve"/>
      <point x="627" y="533"/>
      <point x="601" y="533"/>
      <point x="547" y="533" type="curve"/>
      <point x="547" y="450"/>
      <point x="547" y="533"/>
    </contour>
    <contour>
      <point x="169" y="-1" type="curve"/>
      <point x="217" y="-1"/>
      <point x="169" y="-1"/>
      <point x="312" y="0" type="curve"/>
      <point x="312" y="83"/>
      <point x="312" y="0"/>
      <point x="312" y="83" type="curve"/>
      <point x="169" y="82"/>
      <point x="313" y="83"/>
      <point x="169" y="82" type="curve"/>
      <point x="169" y="-1"/>
      <point x="169" y="82"/>
    </contour>
    <contour>
      <point x="560" y="533" type="curve"/>
      <point x="483" y="533"/>
      <point x="414" y="533"/>
      <point x="338" y="533" type="curve"/>
      <point x="338" y="450"/>
      <point x="338" y="533"/>
      <point x="338" y="450" type="curve"/>
      <point x="566" y="450"/>
      <point x="332" y="450"/>
      <point x="560" y="450" type="curve"/>
      <point x="560" y="533"/>
      <point x="560" y="450"/>
    </contour>
    <contour>
      <point x="172" y="799" type="curve"/>
      <point x="112" y="799"/>
      <point x="70" y="800"/>
      <point x="10" y="800" type="curve"/>
      <point x="10" y="717"/>
      <point x="10" y="800"/>
      <point x="10" y="717" type="curve"/>
      <point x="190" y="717"/>
      <point x="-8" y="717"/>
      <point x="172" y="717" type="curve"/>
      <point x="172" y="799"/>
      <point x="172" y="717"/>
    </contour>
    <contour>
      <point x="226" y="0" type="curve"/>
      <point x="226" y="800" type="line"/>
      <point x="115" y="800"/>
      <point x="226" y="800"/>
      <point x="115" y="800" type="curve"/>
      <point x="115" y="533"/>
      <point x="115" y="267"/>
      <point x="115" y="0" type="curve"/>
      <point x="226" y="0"/>
      <point x="115" y="0"/>
    </contour>
    <contour>
      <point x="515" y="533" type="curve"/>
      <point x="194" y="275" type="line"/>
      <point x="332" y="275"/>
      <point x="194" y="275"/>
      <point x="332" y="275" type="curve"/>
      <point x="634" y="504" type="line"/>
      <point x="480" y="504"/>
      <point x="670" y="533"/>
    </contour>
    <contour>
      <point x="658" y="39" type="curve"/>
      <point x="332" y="275" type="line"/>
      <point x="194" y="275"/>
      <point x="332" y="275"/>
      <point x="194" y="275" type="curve"/>
      <point x="546" y="0" type="line"/>
      <point x="702" y="0"/>
      <point x="503" y="39"/>
    </contour>
    <contour>
      <point x="424" y="-4" type="move" name="bottom"/>
    </contour>
  </outline>
</glyph>
<glyph name="l" format="1">
  <advance width="395"/>
  <unicode hex="006C"/>
  <outline>
    <contour>
      <point x="198" y="82" type="curve"/>
      <point x="18" y="83"/>
      <point x="198" y="82"/>
      <point x="18" y="83" type="curve"/>
      <point x="18" y="0"/>
      <point x="18" y="83"/>
      <point x="18" y="0" type="curve"/>
      <point x="78" y="0"/>
      <point x="138" y="-1"/>
      <point x="198" y="-1" type="curve"/>
      <point x="198" y="82"/>
      <point x="198" y="-1"/>
    </contour>
    <contour>
      <point x="201" y="799" type="curve"/>
      <point x="141" y="799"/>
      <point x="80" y="800"/>
      <point x="21" y="800" type="curve"/>
      <point x="21" y="717"/>
      <point x="21" y="800"/>
      <point x="21" y="717" type="curve"/>
      <point x="201" y="717"/>
      <point x="21" y="717"/>
      <point x="201" y="717" type="curve"/>
      <point x="201" y="799"/>
      <point x="201" y="717"/>
    </contour>
    <contour>
      <point x="198" y="-1" type="curve"/>
      <point x="258" y="-1"/>
      <point x="318" y="0"/>
      <point x="378" y="0" type="curve"/>
      <point x="378" y="83"/>
      <point x="378" y="0"/>
      <point x="378" y="83" type="curve"/>
      <point x="198" y="82"/>
      <point x="378" y="83"/>
      <point x="198" y="82" type="curve"/>
      <point x="198" y="-1"/>
      <point x="198" y="82"/>
    </contour>
    <contour>
      <point x="252" y="0" type="curve"/>
      <point x="252" y="267"/>
      <point x="252" y="533"/>
      <point x="252" y="800" type="curve"/>
      <point x="142" y="800"/>
      <point x="252" y="800"/>
      <point x="142" y="800" type="curve"/>
      <point x="142" y="533"/>
      <point x="142" y="267"/>
      <point x="142" y="0" type="curve"/>
      <point x="252" y="0"/>
      <point x="142" y="0"/>
    </contour>
    <contour>
      <point x="197" y="890" type="move" name="top"/>
    </contour>
    <contour>
      <point x="238" y="6" type="move" name="bottom"/>
    </contour>
  </outline>
</glyph>
<glyph name="m" format="1">
  <advance width="1226"/>
  <unicode hex="006D"/>
  <outline>
    <contour>
      <point x="631" y="0" type="curve"/>
      <point x="768" y="0"/>
      <point x="631" y="0"/>
      <point x="768" y="0" type="curve"/>
      <point x="768" y="83"/>
      <point x="768" y="0"/>
      <point x="768" y="83" type="curve"/>
      <point x="631" y="83"/>
      <point x="768" y="83"/>
      <point x="631" y="83" type="curve"/>
      <point x="631" y="0"/>
      <point x="631" y="83"/>
    </contour>
    <contour>
      <point x="1051" y="0" type="curve"/>
      <point x="1099" y="0"/>
      <point x="1147" y="0"/>
      <point x="1195" y="0" type="curve"/>
      <point x="1195" y="83"/>
      <point x="1195" y="0"/>
      <point x="1195" y="83" type="curve"/>
      <point x="1050" y="83"/>
      <point x="1195" y="83"/>
      <point x="1051" y="83" type="curve"/>
      <point x="1051" y="0"/>
      <point x="1051" y="83"/>
    </contour>
    <contour>
      <point x="213" y="83" type="curve"/>
      <point x="51" y="83"/>
      <point x="214" y="83"/>
      <point x="51" y="83" type="curve"/>
      <point x="51" y="0"/>
      <point x="51" y="83"/>
      <point x="51" y="0" type="curve"/>
      <point x="105" y="0"/>
      <point x="159" y="0"/>
      <point x="213" y="0" type="curve"/>
      <point x="213" y="83"/>
      <point x="213" y="0"/>
    </contour>
    <contour>
      <point x="213" y="0" type="curve"/>
      <point x="259" y="0"/>
      <point x="213" y="0"/>
      <point x="350" y="0" type="curve"/>
      <point x="350" y="83"/>
      <point x="350" y="0"/>
      <point x="350" y="83" type="curve"/>
      <point x="213" y="83"/>
      <point x="350" y="83"/>
      <point x="213" y="83" type="curve"/>
      <point x="213" y="0"/>
      <point x="213" y="83"/>
    </contour>
    <contour>
      <point x="213" y="533" type="curve"/>
      <point x="159" y="533"/>
      <point x="105" y="533"/>
      <point x="51" y="533" type="curve"/>
      <point x="51" y="450"/>
      <point x="51" y="533"/>
      <point x="51" y="450" type="curve"/>
      <point x="214" y="450"/>
      <point x="51" y="450"/>
      <point x="213" y="450" type="curve"/>
      <point x="213" y="533"/>
      <point x="213" y="450"/>
    </contour>
    <contour>
      <point x="661" y="292" type="curve"/>
      <point x="708" y="388"/>
      <point x="769" y="452"/>
      <point x="861" y="452" type="curve"/>
      <point x="952" y="452"/>
      <point x="994" y="411"/>
      <point x="994" y="318" type="curve"/>
      <point x="994" y="213"/>
      <point x="994" y="106"/>
      <point x="994" y="0" type="curve"/>
      <point x="1105" y="0"/>
      <point x="994" y="0"/>
      <point x="1105" y="0" type="curve"/>
      <point x="1105" y="109"/>
      <point x="1105" y="218"/>
      <point x="1105" y="327" type="curve"/>
      <point x="1105" y="474"/>
      <point x="1034" y="538"/>
      <point x="885" y="538" type="curve"/>
      <point x="757" y="538"/>
      <point x="671" y="462"/>
      <point x="607" y="334" type="curve"/>
      <point x="662" y="292"/>
      <point x="606" y="334"/>
    </contour>
    <contour>
      <point x="244" y="295" type="curve"/>
      <point x="290" y="391"/>
      <point x="351" y="452"/>
      <point x="442" y="452" type="curve"/>
      <point x="534" y="452"/>
      <point x="576" y="411"/>
      <point x="576" y="318" type="curve"/>
      <point x="576" y="213"/>
      <point x="576" y="106"/>
      <point x="576" y="0" type="curve"/>
      <point x="687" y="0"/>
      <point x="576" y="0"/>
      <point x="687" y="0" type="curve"/>
      <point x="687" y="109"/>
      <point x="687" y="218"/>
      <point x="687" y="327" type="curve"/>
      <point x="687" y="474"/>
      <point x="617" y="538"/>
      <point x="469" y="538" type="curve"/>
      <point x="339" y="538"/>
      <point x="264" y="469"/>
      <point x="189" y="338" type="curve"/>
      <point x="244" y="296"/>
      <point x="188" y="337"/>
    </contour>
    <contour>
      <point x="269" y="0" type="curve"/>
      <point x="269" y="178"/>
      <point x="269" y="355"/>
      <point x="269" y="533" type="curve"/>
      <point x="157" y="533"/>
      <point x="269" y="533"/>
      <point x="157" y="533" type="curve"/>
      <point x="157" y="355"/>
      <point x="157" y="178"/>
      <point x="157" y="0" type="curve"/>
      <point x="269" y="0"/>
      <point x="157" y="0"/>
    </contour>
  </outline>
</glyph>
<glyph name="p" format="1">
  <advance width="803"/>
  <unicode hex="0070"/>
  <outline>
    <contour>
      <point x="172" y="-217" type="curve"/>
      <point x="-11" y="-217"/>
      <point x="190" y="-217"/>
      <point x="7" y="-217" type="curve"/>
      <point x="7" y="-300"/>
      <point x="7" y="-217"/>
      <point x="7" y="-300" type="curve"/>
      <point x="68" y="-300"/>
      <point x="111" y="-300"/>
      <point x="172" y="-300" type="curve"/>
      <point x="172" y="-217"/>
      <point x="172" y="-300"/>
    </contour>
    <contour>
      <point x="172" y="-300" type="curve"/>
      <point x="229" y="-300"/>
      <point x="268" y="-300"/>
      <point x="325" y="-300" type="curve"/>
      <point x="325" y="-217"/>
      <point x="325" y="-300"/>
      <point x="325" y="-217" type="curve"/>
      <point x="154" y="-218"/>
      <point x="342" y="-217"/>
      <point x="172" y="-218" type="curve"/>
      <point x="172" y="-300"/>
      <point x="172" y="-218"/>
    </contour>
    <contour>
      <point x="173" y="533" type="curve"/>
      <point x="112" y="533"/>
      <point x="69" y="533"/>
      <point x="8" y="533" type="curve"/>
      <point x="8" y="450"/>
      <point x="8" y="533"/>
      <point x="8" y="450" type="curve"/>
      <point x="191" y="451"/>
      <point x="-10" y="450"/>
      <point x="173" y="451" type="curve"/>
      <point x="173" y="533"/>
      <point x="173" y="451"/>
    </contour>
    <contour>
      <point x="191" y="331" type="curve"/>
      <point x="253" y="410"/>
      <point x="333" y="458"/>
      <point x="443" y="458" type="curve"/>
      <point x="560" y="458"/>
      <point x="640" y="386"/>
      <point x="640" y="267" type="curve"/>
      <point x="643" y="147"/>
      <point x="560" y="77"/>
      <point x="439" y="78" type="curve"/>
      <point x="343" y="78"/>
      <point x="267" y="111"/>
      <point x="193" y="169" type="curve"/>
      <point x="164" y="148"/>
      <point x="169" y="134"/>
      <point x="140" y="113" type="curve"/>
      <point x="226" y="37"/>
      <point x="326" y="-5"/>
      <point x="451" y="-5" type="curve"/>
      <point x="630" y="-5"/>
      <point x="751" y="97"/>
      <point x="750" y="272" type="curve"/>
      <point x="750" y="440"/>
      <point x="633" y="539"/>
      <point x="460" y="539" type="curve"/>
      <point x="324" y="539"/>
      <point x="223" y="485"/>
      <point x="147" y="391" type="curve"/>
      <point x="171" y="361"/>
      <point x="166" y="360"/>
    </contour>
    <contour>
      <point x="227" y="-300" type="curve"/>
      <point x="227" y="-22"/>
      <point x="227" y="255"/>
      <point x="227" y="533" type="curve"/>
      <point x="117" y="533"/>
      <point x="227" y="533"/>
      <point x="117" y="533" type="curve"/>
      <point x="117" y="255"/>
      <point x="117" y="-22"/>
      <point x="117" y="-300" type="curve"/>
      <point x="227" y="-300"/>
      <point x="117" y="-300"/>
    </contour>
  </outline>
</glyph>
<glyph name="q" format="1">
  <advance width="821"/>
  <unicode hex="0071"/>
  <outline>
    <contour>
      <point x="639" y="450" type="curve"/>
      <point x="740" y="450"/>
      <point x="687" y="450"/>
      <point x="788" y="450" type="curve"/>
      <point x="788" y="490"/>
      <point x="788" y="493"/>
      <point x="788" y="533" type="curve"/>
      <point x="729" y="533"/>
      <point x="698" y="533"/>
      <point x="639" y="533" type="curve"/>
      <point x="639" y="493"/>
      <point x="639" y="490"/>
    </contour>
    <contour>
      <point x="639" y="-218" type="curve"/>
      <point x="530" y="-217"/>
      <point x="586" y="-218"/>
      <point x="477" y="-217" type="curve"/>
      <point x="477" y="-257"/>
      <point x="477" y="-260"/>
      <point x="477" y="-300" type="curve"/>
      <point x="541" y="-300"/>
      <point x="575" y="-300"/>
      <point x="639" y="-300" type="curve"/>
      <point x="639" y="-260"/>
      <point x="639" y="-257"/>
    </contour>
    <contour>
      <point x="639" y="-300" type="curve"/>
      <point x="698" y="-300"/>
      <point x="729" y="-300"/>
      <point x="788" y="-300" type="curve"/>
      <point x="788" y="-260"/>
      <point x="788" y="-257"/>
      <point x="788" y="-217" type="curve"/>
      <point x="687" y="-218"/>
      <point x="740" y="-217"/>
      <point x="639" y="-218" type="curve"/>
      <point x="639" y="-257"/>
      <point x="639" y="-260"/>
    </contour>
    <contour>
      <point x="663" y="400" type="curve"/>
      <point x="574" y="486"/>
      <point x="478" y="538"/>
      <point x="351" y="538" type="curve"/>
      <point x="173" y="538"/>
      <point x="53" y="438"/>
      <point x="53" y="263" type="curve"/>
      <point x="53" y="89"/>
      <point x="178" y="-5"/>
      <point x="357" y="-5" type="curve"/>
      <point x="488" y="-5"/>
      <point x="586" y="52"/>
      <point x="679" y="144" type="curve"/>
      <point x="650" y="168"/>
      <point x="645" y="171"/>
      <point x="616" y="194" type="curve"/>
      <point x="552" y="115"/>
      <point x="470" y="78"/>
      <point x="371" y="78" type="curve"/>
      <point x="249" y="78"/>
      <point x="164" y="146"/>
      <point x="164" y="267" type="curve"/>
      <point x="164" y="387"/>
      <point x="247" y="455"/>
      <point x="369" y="455" type="curve"/>
      <point x="470" y="455"/>
      <point x="554" y="409"/>
      <point x="620" y="342" type="curve"/>
      <point x="645" y="368"/>
      <point x="639" y="374"/>
    </contour>
    <contour>
      <point x="695" y="-300" type="curve"/>
      <point x="695" y="-5"/>
      <point x="695" y="238"/>
      <point x="695" y="533" type="curve"/>
      <point x="640" y="533"/>
      <point x="634" y="533"/>
      <point x="579" y="533" type="curve"/>
      <point x="579" y="238"/>
      <point x="579" y="-5"/>
      <point x="579" y="-300" type="curve"/>
      <point x="634" y="-300"/>
      <point x="640" y="-300"/>
    </contour>
  </outline>
</glyph>
<glyph name="t" format="1">
  <advance width="514"/>
  <unicode hex="0074"/>
  <outline>
    <contour>
      <point x="17" y="451" type="curve"/>
      <point x="479" y="451" type="line"/>
      <point x="479" y="534"/>
      <point x="479" y="451"/>
      <point x="479" y="534" type="curve"/>
      <point x="17" y="534" type="line"/>
      <point x="17" y="451"/>
      <point x="17" y="534"/>
    </contour>
    <contour>
      <point x="462" y="101" type="curve"/>
      <point x="426" y="86"/>
      <point x="399" y="80"/>
      <point x="360" y="80" type="curve"/>
      <point x="300" y="80"/>
      <point x="266" y="106"/>
      <point x="266" y="166" type="curve"/>
      <point x="266" y="686" type="line"/>
      <point x="249" y="675"/>
      <point x="172" y="635"/>
      <point x="156" y="625" type="curve"/>
      <point x="156" y="162" type="line"/>
      <point x="156" y="45"/>
      <point x="231" y="-6"/>
      <point x="349" y="-6" type="curve"/>
      <point x="409" y="-6"/>
      <point x="450" y="9"/>
      <point x="492" y="27" type="curve"/>
      <point x="462" y="101"/>
      <point x="492" y="27"/>
    </contour>
    <contour>
      <point x="366" y="4" type="move" name="bottom"/>
    </contour>
  </outline>
</glyph>
<glyph name="v" format="1">
  <advance width="807"/>
  <unicode hex="0076"/>
  <outline>
    <contour>
      <point x="159" y="533" type="curve"/>
      <point x="111" y="533"/>
      <point x="63" y="533"/>
      <point x="16" y="533" type="curve"/>
      <point x="16" y="450"/>
      <point x="16" y="533"/>
      <point x="16" y="450" type="curve"/>
      <point x="159" y="450"/>
      <point x="16" y="450"/>
      <point x="159" y="450" type="curve"/>
      <point x="159" y="533"/>
      <point x="159" y="450"/>
    </contour>
    <contour>
      <point x="159" y="450" type="curve"/>
      <point x="320" y="450"/>
      <point x="158" y="450"/>
      <point x="320" y="450" type="curve"/>
      <point x="320" y="533"/>
      <point x="320" y="450"/>
      <point x="320" y="533" type="curve"/>
      <point x="266" y="533"/>
      <point x="212" y="533"/>
      <point x="159" y="533" type="curve"/>
      <point x="159" y="450"/>
      <point x="159" y="533"/>
    </contour>
    <contour>
      <point x="651" y="533" type="curve"/>
      <point x="598" y="533"/>
      <point x="544" y="533"/>
      <point x="490" y="533" type="curve"/>
      <point x="490" y="450"/>
      <point x="490" y="533"/>
      <point x="490" y="450" type="curve"/>
      <point x="652" y="450"/>
      <point x="490" y="450"/>
      <point x="651" y="450" type="curve"/>
      <point x="651" y="533"/>
      <point x="651" y="450"/>
    </contour>
    <contour>
      <point x="651" y="450" type="curve"/>
      <point x="800" y="450"/>
      <point x="651" y="450"/>
      <point x="800" y="450" type="curve"/>
      <point x="800" y="533"/>
      <point x="800" y="450"/>
      <point x="800" y="533" type="curve"/>
      <point x="750" y="533"/>
      <point x="701" y="533"/>
      <point x="651" y="533" type="curve"/>
      <point x="651" y="450"/>
      <point x="651" y="533"/>
    </contour>
    <contour>
      <point x="78" y="533" type="curve"/>
      <point x="165" y="355"/>
      <point x="252" y="178"/>
      <point x="339" y="0" type="curve"/>
      <point x="450" y="0"/>
      <point x="339" y="0"/>
      <point x="450" y="0" type="curve"/>
      <point x="364" y="178"/>
      <point x="278" y="355"/>
      <point x="191" y="533" type="curve"/>
      <point x="78" y="533"/>
      <point x="191" y="533"/>
    </contour>
    <contour>
      <point x="621" y="533" type="curve"/>
      <point x="347" y="0" type="line"/>
      <point x="458" y="0"/>
      <point x="347" y="0"/>
      <point x="458" y="0" type="curve"/>
      <point x="550" y="178"/>
      <point x="641" y="355"/>
      <point x="733" y="533" type="curve"/>
      <point x="621" y="533"/>
      <point x="733" y="533"/>
    </contour>
  </outline>
</glyph>
<glyph name="w" format="1">
  <advance width="1223"/>
  <unicode hex="0077"/>
  <outline>
    <contour>
      <point x="1058" y="450" type="curve"/>
      <point x="1213" y="450"/>
      <point x="1057" y="450"/>
      <point x="1213" y="450" type="curve"/>
      <point x="1213" y="533"/>
      <point x="1213" y="450"/>
      <point x="1213" y="533" type="curve"/>
      <point x="1161" y="533"/>
      <point x="1109" y="533"/>
      <point x="1058" y="533" type="curve"/>
      <point x="1058" y="450"/>
      <point x="1058" y="533"/>
    </contour>
    <contour>
      <point x="1058" y="533" type="curve"/>
      <point x="1005" y="533"/>
      <point x="955" y="533"/>
      <point x="903" y="533" type="curve"/>
      <point x="903" y="450"/>
      <point x="903" y="533"/>
      <point x="903" y="450" type="curve"/>
      <point x="1059" y="450"/>
      <point x="902" y="450"/>
      <point x="1058" y="450" type="curve"/>
      <point x="1058" y="533"/>
      <point x="1058" y="450"/>
    </contour>
    <contour>
      <point x="168" y="533" type="curve"/>
      <point x="117" y="533"/>
      <point x="65" y="533"/>
      <point x="13" y="533" type="curve"/>
      <point x="13" y="450"/>
      <point x="13" y="533"/>
      <point x="13" y="450" type="curve"/>
      <point x="168" y="450"/>
      <point x="13" y="450"/>
      <point x="168" y="450" type="curve"/>
      <point x="168" y="533"/>
      <point x="168" y="450"/>
    </contour>
    <contour>
      <point x="168" y="450" type="curve"/>
      <point x="323" y="450"/>
      <point x="167" y="450"/>
      <point x="323" y="450" type="curve"/>
      <point x="323" y="533"/>
      <point x="323" y="450"/>
      <point x="323" y="533" type="curve"/>
      <point x="271" y="533"/>
      <point x="220" y="533"/>
      <point x="168" y="533" type="curve"/>
      <point x="168" y="450"/>
      <point x="168" y="533"/>
    </contour>
    <contour>
      <point x="417" y="0" type="curve"/>
      <point x="503" y="178"/>
      <point x="588" y="355"/>
      <point x="673" y="533" type="curve"/>
      <point x="561" y="533"/>
      <point x="673" y="533"/>
      <point x="561" y="533" type="curve"/>
      <point x="477" y="355"/>
      <point x="393" y="178"/>
      <point x="309" y="0" type="curve"/>
      <point x="417" y="0"/>
      <point x="309" y="0"/>
    </contour>
    <contour>
      <point x="1036" y="533" type="curve"/>
      <point x="957" y="355"/>
      <point x="879" y="178"/>
      <point x="801" y="0" type="curve"/>
      <point x="909" y="0"/>
      <point x="801" y="0"/>
      <point x="909" y="0" type="curve"/>
      <point x="989" y="178"/>
      <point x="1068" y="355"/>
      <point x="1148" y="533" type="curve"/>
      <point x="1036" y="533"/>
      <point x="1148" y="533"/>
    </contour>
    <contour>
      <point x="569" y="533" type="curve"/>
      <point x="646" y="355"/>
      <point x="722" y="178"/>
      <point x="799" y="0" type="curve"/>
      <point x="907" y="0"/>
      <point x="799" y="0"/>
      <point x="907" y="0" type="curve"/>
      <point x="832" y="178"/>
      <point x="755" y="355"/>
      <point x="679" y="533" type="curve"/>
      <point x="569" y="533"/>
      <point x="679" y="533"/>
    </contour>
    <contour>
      <point x="79" y="533" type="curve"/>
      <point x="155" y="355"/>
      <point x="232" y="178"/>
      <point x="308" y="0" type="curve"/>
      <point x="416" y="0"/>
      <point x="308" y="0"/>
      <point x="416" y="0" type="curve"/>
      <point x="341" y="178"/>
      <point x="265" y="355"/>
      <point x="190" y="533" type="curve"/>
      <point x="79" y="533"/>
      <point x="190" y="533"/>
    </contour>
  </outline>
</glyph>
<glyph name="x" format="1">
  <advance width="792"/>
  <unicode hex="0078"/>
  <outline>
    <contour>
      <point x="141" y="83" type="curve"/>
      <point x="-23" y="83"/>
      <point x="175" y="83"/>
      <point x="12" y="83" type="curve"/>
      <point x="12" y="0"/>
      <point x="12" y="83"/>
      <point x="12" y="0" type="curve"/>
      <point x="66" y="0"/>
      <point x="86" y="0"/>
      <point x="141" y="0" type="curve"/>
      <point x="141" y="83"/>
      <point x="141" y="0"/>
    </contour>
    <contour>
      <point x="646" y="83" type="curve"/>
      <point x="442" y="83"/>
      <point x="658" y="82"/>
      <point x="455" y="82" type="curve"/>
      <point x="455" y="-1"/>
      <point x="455" y="82"/>
      <point x="455" y="-1" type="curve"/>
      <point x="523" y="-1"/>
      <point x="578" y="0"/>
      <point x="646" y="0" type="curve"/>
      <point x="646" y="83"/>
      <point x="646" y="0"/>
    </contour>
    <contour>
      <point x="644" y="0" type="curve"/>
      <point x="697" y="0"/>
      <point x="731" y="0"/>
      <point x="783" y="0" type="curve"/>
      <point x="783" y="83"/>
      <point x="783" y="0"/>
      <point x="783" y="83" type="curve"/>
      <point x="625" y="83"/>
      <point x="802" y="83"/>
      <point x="644" y="83" type="curve"/>
      <point x="644" y="0"/>
      <point x="644" y="83"/>
    </contour>
    <contour>
      <point x="140" y="0" type="curve"/>
      <point x="207" y="0"/>
      <point x="132" y="0"/>
      <point x="336" y="0" type="curve"/>
      <point x="336" y="83"/>
      <point x="336" y="0"/>
      <point x="336" y="83" type="curve"/>
      <point x="132" y="83"/>
      <point x="344" y="83"/>
      <point x="140" y="83" type="curve"/>
      <point x="140" y="0"/>
      <point x="140" y="83"/>
    </contour>
    <contour>
      <point x="624" y="450" type="curve"/>
      <point x="789" y="450"/>
      <point x="603" y="450"/>
      <point x="767" y="450" type="curve"/>
      <point x="767" y="533"/>
      <point x="767" y="450"/>
      <point x="767" y="533" type="curve"/>
      <point x="712" y="533"/>
      <point x="679" y="533"/>
      <point x="624" y="533" type="curve"/>
      <point x="624" y="450"/>
      <point x="624" y="533"/>
    </contour>
    <contour>
      <point x="180" y="533" type="curve"/>
      <point x="125" y="533"/>
      <point x="92" y="533"/>
      <point x="38" y="533" type="curve"/>
      <point x="38" y="450"/>
      <point x="38" y="533"/>
      <point x="38" y="450" type="curve"/>
      <point x="203" y="450"/>
      <point x="15" y="450"/>
      <point x="180" y="450" type="curve"/>
      <point x="180" y="533"/>
      <point x="180" y="450"/>
    </contour>
    <contour>
      <point x="161" y="450" type="curve"/>
      <point x="357" y="450"/>
      <point x="149" y="450"/>
      <point x="346" y="450" type="curve"/>
      <point x="346" y="533"/>
      <point x="346" y="450"/>
      <point x="346" y="533" type="curve"/>
      <point x="280" y="533"/>
      <point x="226" y="533"/>
      <point x="161" y="533" type="curve"/>
      <point x="161" y="450"/>
      <point x="161" y="533"/>
    </contour>
    <contour>
      <point x="626" y="533" type="curve"/>
      <point x="566" y="533"/>
      <point x="514" y="533"/>
      <point x="454" y="533" type="curve"/>
      <point x="454" y="450"/>
      <point x="454" y="533"/>
      <point x="454" y="450" type="curve"/>
      <point x="634" y="450"/>
      <point x="446" y="450"/>
      <point x="626" y="450" type="curve"/>
      <point x="626" y="533"/>
      <point x="626" y="450"/>
    </contour>
    <contour>
      <point x="715" y="34" type="curve"/>
      <point x="652" y="97"/>
      <point x="249" y="470"/>
      <point x="185" y="533" type="curve"/>
      <point x="69" y="533"/>
      <point x="213" y="498"/>
      <point x="97" y="498" type="curve"/>
      <point x="161" y="435"/>
      <point x="553" y="66"/>
      <point x="616" y="2" type="curve"/>
      <point x="743" y="2"/>
      <point x="589" y="34"/>
    </contour>
    <contour>
      <point x="626" y="533" type="curve"/>
      <point x="562" y="470"/>
      <point x="138" y="97"/>
      <point x="74" y="33" type="curve"/>
      <point x="203" y="33"/>
      <point x="42" y="0"/>
      <point x="172" y="0" type="curve"/>
      <point x="235" y="63"/>
      <point x="638" y="429"/>
      <point x="702" y="493" type="curve"/>
      <point x="586" y="493"/>
      <point x="742" y="533"/>
    </contour>
  </outline>
</glyph>
<glyph name="braceleft" format="1">
  <advance width="385"/>
  <unicode hex="007B"/>
  <outline>
    <contour>
      <point x="332" y="-30" type="curve"/>
      <point x="274" y="-30"/>
      <point x="236" y="-1"/>
      <point x="236" y="53" type="curve"/>
      <point x="236" y="107"/>
      <point x="236" y="160"/>
      <point x="236" y="214" type="curve"/>
      <point x="236" y="323"/>
      <point x="155" y="384"/>
      <point x="41" y="384" type="curve"/>
      <point x="41" y="297"/>
      <point x="41" y="384"/>
      <point x="41" y="297" type="curve"/>
      <point x="96" y="297"/>
      <point x="135" y="274"/>
      <point x="135" y="222" type="curve"/>
      <point x="135" y="167"/>
      <point x="135" y="112"/>
      <point x="135" y="58" type="curve"/>
      <point x="135" y="-54"/>
      <point x="215" y="-113"/>
      <point x="332" y="-113" type="curve"/>
      <point x="332" y="-30"/>
      <point x="332" y="-113"/>
    </contour>
    <contour>
      <point x="332" y="793" type="curve"/>
      <point x="215" y="793"/>
      <point x="135" y="736"/>
      <point x="135" y="625" type="curve"/>
      <point x="135" y="569"/>
      <point x="135" y="512"/>
      <point x="135" y="456" type="curve"/>
      <point x="135" y="405"/>
      <point x="95" y="384"/>
      <point x="41" y="384" type="curve"/>
      <point x="41" y="297"/>
      <point x="41" y="384"/>
      <point x="41" y="297" type="curve"/>
      <point x="156" y="297"/>
      <point x="236" y="357"/>
      <point x="236" y="468" type="curve"/>
      <point x="236" y="520"/>
      <point x="236" y="572"/>
      <point x="236" y="625" type="curve"/>
      <point x="236" y="681"/>
      <point x="273" y="711"/>
      <point x="332" y="711" type="curve"/>
      <point x="332" y="793"/>
      <point x="332" y="711"/>
    </contour>
  </outline>
</glyph>
<glyph name="braceright" format="1">
  <advance width="386"/>
  <unicode hex="007D"/>
  <outline>
    <contour>
      <point x="54" y="-113" type="curve"/>
      <point x="170" y="-113"/>
      <point x="250" y="-54"/>
      <point x="250" y="58" type="curve"/>
      <point x="250" y="112"/>
      <point x="250" y="167"/>
      <point x="250" y="222" type="curve"/>
      <point x="250" y="273"/>
      <point x="290" y="297"/>
      <point x="345" y="297" type="curve"/>
      <point x="345" y="384"/>
      <point x="345" y="297"/>
      <point x="345" y="384" type="curve"/>
      <point x="230" y="384"/>
      <point x="149" y="323"/>
      <point x="149" y="214" type="curve"/>
      <point x="149" y="160"/>
      <point x="149" y="107"/>
      <point x="149" y="53" type="curve"/>
      <point x="149" y="-1"/>
      <point x="111" y="-31"/>
      <point x="54" y="-31" type="curve"/>
      <point x="54" y="-113"/>
      <point x="54" y="-31"/>
    </contour>
    <contour>
      <point x="54" y="710" type="curve"/>
      <point x="112" y="710"/>
      <point x="149" y="681"/>
      <point x="149" y="625" type="curve"/>
      <point x="149" y="572"/>
      <point x="149" y="520"/>
      <point x="149" y="468" type="curve"/>
      <point x="149" y="356"/>
      <point x="229" y="297"/>
      <point x="345" y="297" type="curve"/>
      <point x="345" y="384"/>
      <point x="345" y="297"/>
      <point x="345" y="384" type="curve"/>
      <point x="290" y="384"/>
      <point x="250" y="404"/>
      <point x="250" y="456" type="curve"/>
      <point x="250" y="512"/>
      <point x="250" y="569"/>
      <point x="250" y="625" type="curve"/>
      <point x="250" y="736"/>
      <point x="170" y="793"/>
      <point x="54" y="793" type="curve"/>
      <point x="54" y="710"/>
      <point x="54" y="793"/>
    </contour>
  </outline>
</glyph>
<glyph name="exclamdown" format="1">
  <advance width="279"/>
  <unicode hex="00A1"/>
  <outline>
    <contour>
      <point x="96" y="307" type="line"/>
      <point x="82" y="-186" type="line"/>
      <point x="197" y="-186" type="line"/>
      <point x="184" y="307" type="line"/>
    </contour>
    <contour>
      <point x="73" y="490" type="curve"/>
      <point x="73" y="453"/>
      <point x="102" y="435"/>
      <point x="140" y="435" type="curve"/>
      <point x="179" y="435"/>
      <point x="205" y="455"/>
      <point x="205" y="490" type="curve"/>
      <point x="81" y="490"/>
      <point x="198" y="490"/>
      <point x="73" y="490" type="curve"/>
      <point x="73" y="528"/>
      <point x="102" y="545"/>
      <point x="141" y="545" type="curve"/>
      <point x="180" y="545"/>
      <point x="205" y="526"/>
      <point x="205" y="490" type="curve"/>
      <point x="81" y="490"/>
      <point x="198" y="490"/>
    </contour>
  </outline>
</glyph>
<glyph name="sterling" format="1">
  <advance width="640"/>
  <unicode hex="00A3"/>
  <outline>
    <contour>
      <point x="562" y="83" type="curve"/>
      <point x="392" y="83"/>
      <point x="223" y="83"/>
      <point x="54" y="83" type="curve"/>
      <point x="54" y="0"/>
      <point x="54" y="83"/>
      <point x="54" y="0" type="curve"/>
      <point x="223" y="0"/>
      <point x="392" y="0"/>
      <point x="562" y="0" type="curve"/>
      <point x="562" y="83"/>
      <point x="562" y="0"/>
    </contour>
    <contour>
      <point x="502" y="417" type="curve"/>
      <point x="367" y="417"/>
      <point x="232" y="417"/>
      <point x="97" y="417" type="curve"/>
      <point x="97" y="334"/>
      <point x="97" y="417"/>
      <point x="97" y="334" type="curve"/>
      <point x="232" y="334"/>
      <point x="367" y="334"/>
      <point x="502" y="334" type="curve"/>
      <point x="502" y="417"/>
      <point x="502" y="334"/>
    </contour>
    <contour>
      <point x="592" y="666" type="curve"/>
      <point x="530" y="707"/>
      <point x="479" y="721"/>
      <point x="407" y="721" type="curve"/>
      <point x="223" y="721"/>
      <point x="122" y="562"/>
      <point x="177" y="367" type="curve"/>
      <point x="219" y="215"/>
      <point x="176" y="83"/>
      <point x="54" y="83" type="curve"/>
      <point x="54" y="0"/>
      <point x="54" y="83"/>
      <point x="54" y="0" type="curve"/>
      <point x="252" y="0"/>
      <point x="344" y="175"/>
      <point x="286" y="384" type="curve"/>
      <point x="248" y="523"/>
      <point x="295" y="643"/>
      <point x="401" y="643" type="curve"/>
      <point x="455" y="643"/>
      <point x="492" y="631"/>
      <point x="539" y="604" type="curve"/>
      <point x="592" y="666"/>
      <point x="539" y="604"/>
    </contour>
  </outline>
</glyph>
<glyph name="currency" format="1">
  <advance width="769"/>
  <unicode hex="00A4"/>
  <outline>
    <contour>
      <point x="255" y="315" type="curve"/>
      <point x="255" y="383"/>
      <point x="310" y="418"/>
      <point x="384" y="418" type="curve"/>
      <point x="461" y="418"/>
      <point x="515" y="384"/>
      <point x="515" y="313" type="curve"/>
      <point x="515" y="244"/>
      <point x="465" y="205"/>
      <point x="393" y="205" type="curve"/>
      <point x="312" y="205"/>
      <point x="255" y="241"/>
      <point x="255" y="315" type="curve"/>
      <point x="144" y="315"/>
      <point x="255" y="315"/>
      <point x="145" y="315" type="curve"/>
      <point x="145" y="184"/>
      <point x="248" y="123"/>
      <point x="388" y="123" type="curve"/>
      <point x="526" y="123"/>
      <point x="625" y="189"/>
      <point x="625" y="317" type="curve"/>
      <point x="625" y="441"/>
      <point x="526" y="501"/>
      <point x="394" y="501" type="curve"/>
      <point x="252" y="501"/>
      <point x="145" y="444"/>
      <point x="145" y="315" type="curve"/>
      <point x="255" y="315"/>
      <point x="144" y="315"/>
    </contour>
    <contour>
      <point x="547" y="334" type="line"/>
      <point x="706" y="483" type="line"/>
      <point x="618" y="570" type="line"/>
      <point x="469" y="411" type="line"/>
    </contour>
    <contour>
      <point x="470" y="217" type="line"/>
      <point x="619" y="58" type="line"/>
      <point x="706" y="146" type="line"/>
      <point x="547" y="295" type="line"/>
    </contour>
    <contour>
      <point x="221" y="296" type="line"/>
      <point x="62" y="148" type="line"/>
      <point x="150" y="60" type="line"/>
      <point x="298" y="219" type="line"/>
    </contour>
    <contour>
      <point x="299" y="412" type="line"/>
      <point x="150" y="572" type="line"/>
      <point x="63" y="484" type="line"/>
      <point x="222" y="335" type="line"/>
    </contour>
  </outline>
</glyph>
<glyph name="yen" format="1">
  <advance width="903"/>
  <unicode hex="00A5"/>
  <outline>
    <contour>
      <point x="730" y="422" type="curve"/>
      <point x="642" y="422"/>
      <point x="554" y="422"/>
      <point x="465" y="422" type="curve"/>
      <point x="465" y="331"/>
      <point x="465" y="422"/>
      <point x="465" y="331" type="curve"/>
      <point x="554" y="331"/>
      <point x="642" y="331"/>
      <point x="730" y="331" type="curve"/>
      <point x="730" y="422"/>
      <point x="730" y="331"/>
    </contour>
    <contour>
      <point x="428" y="422" type="curve"/>
      <point x="342" y="422"/>
      <point x="254" y="422"/>
      <point x="167" y="422" type="curve"/>
      <point x="167" y="331"/>
      <point x="167" y="422"/>
      <point x="167" y="331" type="curve"/>
      <point x="254" y="331"/>
      <point x="342" y="331"/>
      <point x="428" y="331" type="curve"/>
      <point x="428" y="422"/>
      <point x="428" y="331"/>
    </contour>
    <contour>
      <point x="730" y="272" type="curve"/>
      <point x="543" y="272"/>
      <point x="355" y="272"/>
      <point x="167" y="272" type="curve"/>
      <point x="167" y="181"/>
      <point x="167" y="272"/>
      <point x="167" y="181" type="curve"/>
      <point x="355" y="181"/>
      <point x="543" y="181"/>
      <point x="730" y="181" type="curve"/>
      <point x="730" y="272"/>
      <point x="730" y="181"/>
    </contour>
    <contour>
      <point x="444" y="83" type="curve"/>
      <point x="272" y="83"/>
      <point x="444" y="83"/>
      <point x="272" y="83" type="curve"/>
      <point x="272" y="0"/>
      <point x="272" y="83"/>
      <point x="272" y="0" type="curve"/>
      <point x="329" y="0"/>
      <point x="386" y="0"/>
      <point x="444" y="0" type="curve"/>
      <point x="444" y="83"/>
      <point x="444" y="0"/>
    </contour>
    <contour>
      <point x="444" y="0" type="curve"/>
      <point x="501" y="0"/>
      <point x="558" y="0"/>
      <point x="615" y="0" type="curve"/>
      <point x="615" y="83"/>
      <point x="615" y="0"/>
      <point x="615" y="83" type="curve"/>
      <point x="443" y="82"/>
      <point x="616" y="83"/>
      <point x="444" y="82" type="curve"/>
      <point x="444" y="0"/>
      <point x="444" y="82"/>
    </contour>
    <contour>
      <point x="703" y="722" type="curve"/>
      <point x="646" y="722"/>
      <point x="589" y="722"/>
      <point x="532" y="722" type="curve"/>
      <point x="532" y="640"/>
      <point x="532" y="722"/>
      <point x="532" y="640" type="curve"/>
      <point x="704" y="640"/>
      <point x="532" y="640"/>
      <point x="703" y="640" type="curve"/>
      <point x="703" y="722"/>
      <point x="703" y="640"/>
    </contour>
    <contour>
      <point x="198" y="722" type="curve"/>
      <point x="145" y="722"/>
      <point x="92" y="722"/>
      <point x="40" y="722" type="curve"/>
      <point x="40" y="640"/>
      <point x="40" y="722"/>
      <point x="40" y="640" type="curve"/>
      <point x="198" y="640"/>
      <point x="40" y="640"/>
      <point x="198" y="640" type="curve"/>
      <point x="198" y="722"/>
      <point x="198" y="640"/>
    </contour>
    <contour>
      <point x="199" y="640" type="curve"/>
      <point x="370" y="640"/>
      <point x="199" y="640"/>
      <point x="370" y="640" type="curve"/>
      <point x="370" y="722"/>
      <point x="370" y="640"/>
      <point x="370" y="722" type="curve"/>
      <point x="313" y="722"/>
      <point x="256" y="722"/>
      <point x="199" y="722" type="curve"/>
      <point x="199" y="640"/>
      <point x="199" y="722"/>
    </contour>
    <contour>
      <point x="705" y="640" type="curve"/>
      <point x="863" y="640"/>
      <point x="704" y="640"/>
      <point x="863" y="640" type="curve"/>
      <point x="863" y="722"/>
      <point x="863" y="640"/>
      <point x="863" y="722" type="curve"/>
      <point x="810" y="722"/>
      <point x="757" y="722"/>
      <point x="705" y="722" type="curve"/>
      <point x="705" y="640"/>
      <point x="705" y="722"/>
    </contour>
    <contour>
      <point x="111" y="698" type="curve"/>
      <point x="203" y="577"/>
      <point x="295" y="457"/>
      <point x="387" y="336" type="curve"/>
      <point x="499" y="336"/>
      <point x="386" y="336"/>
      <point x="497" y="336" type="curve"/>
      <point x="400" y="465"/>
      <point x="302" y="593"/>
      <point x="204" y="722" type="curve"/>
      <point x="111" y="722"/>
      <point x="204" y="698"/>
    </contour>
    <contour>
      <point x="700" y="722" type="curve"/>
      <point x="596" y="593"/>
      <point x="492" y="465"/>
      <point x="389" y="336" type="curve"/>
      <point x="500" y="336"/>
      <point x="388" y="336"/>
      <point x="500" y="336" type="curve"/>
      <point x="598" y="457"/>
      <point x="695" y="579"/>
      <point x="793" y="699" type="curve"/>
      <point x="700" y="699"/>
      <point x="793" y="722"/>
    </contour>
    <contour>
      <point x="504" y="0" type="curve"/>
      <point x="504" y="114"/>
      <point x="504" y="228"/>
      <point x="504" y="342" type="curve"/>
      <point x="383" y="342"/>
      <point x="504" y="342"/>
      <point x="383" y="342" type="curve"/>
      <point x="383" y="228"/>
      <point x="383" y="114"/>
      <point x="383" y="0" type="curve"/>
      <point x="504" y="0"/>
      <point x="383" y="0"/>
    </contour>
  </outline>
</glyph>
<glyph name="section" format="1">
  <advance width="644"/>
  <unicode hex="00A7"/>
  <outline>
    <contour>
      <point x="525" y="705" type="curve"/>
      <point x="454" y="734"/>
      <point x="402" y="749"/>
      <point x="326" y="749" type="curve"/>
      <point x="201" y="749"/>
      <point x="105" y="710"/>
      <point x="105" y="604" type="curve"/>
      <point x="105" y="509"/>
      <point x="183" y="470"/>
      <point x="281" y="444" type="curve"/>
      <point x="370" y="421"/>
      <point x="474" y="424"/>
      <point x="474" y="356" type="curve"/>
      <point x="474" y="293"/>
      <point x="411" y="275"/>
      <point x="335" y="265" type="curve"/>
      <point x="400" y="199"/>
      <point x="335" y="265"/>
      <point x="400" y="199" type="curve"/>
      <point x="506" y="218"/>
      <point x="585" y="261"/>
      <point x="585" y="361" type="curve"/>
      <point x="584" y="482"/>
      <point x="463" y="494"/>
      <point x="336" y="522" type="curve"/>
      <point x="275" y="538"/>
      <point x="215" y="549"/>
      <point x="215" y="604" type="curve"/>
      <point x="215" y="652"/>
      <point x="260" y="667"/>
      <point x="317" y="667" type="curve"/>
      <point x="377" y="667"/>
      <point x="418" y="658"/>
      <point x="482" y="634" type="curve"/>
      <point x="525" y="705"/>
      <point x="482" y="634"/>
    </contour>
    <contour>
      <point x="241" y="523" type="curve"/>
      <point x="141" y="501"/>
      <point x="63" y="463"/>
      <point x="63" y="366" type="curve"/>
      <point x="63" y="253"/>
      <point x="167" y="230"/>
      <point x="287" y="202" type="curve"/>
      <point x="359" y="183"/>
      <point x="438" y="175"/>
      <point x="438" y="119" type="curve"/>
      <point x="438" y="70"/>
      <point x="387" y="55"/>
      <point x="326" y="55" type="curve"/>
      <point x="259" y="55"/>
      <point x="213" y="67"/>
      <point x="143" y="98" type="curve"/>
      <point x="93" y="32"/>
      <point x="143" y="98"/>
      <point x="93" y="32" type="curve"/>
      <point x="170" y="-10"/>
      <point x="233" y="-27"/>
      <point x="321" y="-27" type="curve"/>
      <point x="447" y="-27"/>
      <point x="549" y="10"/>
      <point x="549" y="122" type="curve"/>
      <point x="547" y="222"/>
      <point x="461" y="257"/>
      <point x="357" y="280" type="curve"/>
      <point x="270" y="302"/>
      <point x="173" y="303"/>
      <point x="173" y="374" type="curve"/>
      <point x="173" y="432"/>
      <point x="230" y="446"/>
      <point x="296" y="462" type="curve"/>
      <point x="241" y="523"/>
      <point x="296" y="462"/>
    </contour>
    <contour>
      <point x="178" y="32" type="curve"/>
      <point x="178" y="152"/>
      <point x="178" y="37"/>
      <point x="178" y="157" type="curve"/>
      <point x="93" y="157"/>
      <point x="178" y="157"/>
      <point x="93" y="157" type="curve"/>
      <point x="93" y="37"/>
      <point x="93" y="152"/>
      <point x="93" y="32" type="curve"/>
      <point x="178" y="32"/>
      <point x="93" y="32"/>
    </contour>
    <contour>
      <point x="525" y="579" type="curve"/>
      <point x="525" y="699"/>
      <point x="525" y="585"/>
      <point x="525" y="705" type="curve"/>
      <point x="439" y="705"/>
      <point x="525" y="705"/>
      <point x="439" y="705" type="curve"/>
      <point x="439" y="585"/>
      <point x="439" y="699"/>
      <point x="439" y="579" type="curve"/>
      <point x="525" y="579"/>
      <point x="439" y="579"/>
    </contour>
  </outline>
</glyph>
<glyph name="dieresis" format="1">
  <advance width="441"/>
  <unicode hex="00A8"/>
  <outline>
    <contour>
      <point x="170" y="611" type="curve"/>
      <point x="170" y="648"/>
      <point x="141" y="666"/>
      <point x="102" y="666" type="curve"/>
      <point x="64" y="666"/>
      <point x="37" y="646"/>
      <point x="37" y="611" type="curve"/>
      <point x="162" y="611"/>
      <point x="45" y="611"/>
      <point x="170" y="611" type="curve"/>
      <point x="170" y="573"/>
      <point x="141" y="556"/>
      <point x="102" y="556" type="curve"/>
      <point x="63" y="556"/>
      <point x="37" y="575"/>
      <point x="37" y="611" type="curve"/>
      <point x="162" y="611"/>
      <point x="45" y="611"/>
    </contour>
    <contour>
      <point x="377" y="611" type="curve"/>
      <point x="377" y="648"/>
      <point x="349" y="666"/>
      <point x="310" y="666" type="curve"/>
      <point x="271" y="666"/>
      <point x="245" y="646"/>
      <point x="245" y="611" type="curve"/>
      <point x="370" y="611"/>
      <point x="253" y="611"/>
      <point x="377" y="611" type="curve"/>
      <point x="377" y="573"/>
      <point x="349" y="556"/>
      <point x="309" y="556" type="curve"/>
      <point x="271" y="556"/>
      <point x="245" y="575"/>
      <point x="245" y="611" type="curve"/>
      <point x="370" y="611"/>
      <point x="253" y="611"/>
    </contour>
    <contour>
      <point x="208" y="558" type="move" name="_top"/>
    </contour>
  </outline>
</glyph>
<glyph name="copyright" format="1">
  <advance width="978"/>
  <unicode hex="00A9"/>
  <outline>
    <contour>
      <point x="154" y="323" type="curve"/>
      <point x="154" y="495"/>
      <point x="306" y="578"/>
      <point x="493" y="578" type="curve"/>
      <point x="676" y="578"/>
      <point x="825" y="491"/>
      <point x="825" y="321" type="curve"/>
      <point x="825" y="155"/>
      <point x="681" y="70"/>
      <point x="502" y="70" type="curve"/>
      <point x="314" y="70"/>
      <point x="154" y="149"/>
      <point x="154" y="323" type="curve"/>
      <point x="63" y="323"/>
      <point x="154" y="323"/>
      <point x="63" y="323" type="curve"/>
      <point x="63" y="106"/>
      <point x="260" y="3"/>
      <point x="499" y="3" type="curve"/>
      <point x="729" y="3"/>
      <point x="915" y="111"/>
      <point x="915" y="324" type="curve"/>
      <point x="915" y="538"/>
      <point x="726" y="645"/>
      <point x="493" y="645" type="curve"/>
      <point x="258" y="645"/>
      <point x="63" y="540"/>
      <point x="63" y="323" type="curve"/>
      <point x="154" y="323"/>
      <point x="63" y="323"/>
    </contour>
    <contour>
      <point x="584" y="426" type="curve"/>
      <point x="584" y="410"/>
      <point x="584" y="396"/>
      <point x="584" y="378" type="curve"/>
      <point x="666" y="378"/>
      <point x="586" y="378"/>
      <point x="668" y="378" type="curve"/>
      <point x="668" y="408"/>
      <point x="668" y="439"/>
      <point x="668" y="468" type="curve"/>
      <point x="586" y="431"/>
      <point x="666" y="463"/>
    </contour>
    <contour>
      <point x="668" y="468" type="curve"/>
      <point x="616" y="496"/>
      <point x="565" y="508"/>
      <point x="500" y="508" type="curve"/>
      <point x="364" y="508"/>
      <point x="262" y="447"/>
      <point x="262" y="322" type="curve"/>
      <point x="262" y="201"/>
      <point x="354" y="141"/>
      <point x="482" y="141" type="curve"/>
      <point x="557" y="141"/>
      <point x="611" y="150"/>
      <point x="675" y="190" type="curve"/>
      <point x="631" y="242"/>
      <point x="675" y="190"/>
      <point x="631" y="242" type="curve"/>
      <point x="574" y="215"/>
      <point x="537" y="208"/>
      <point x="486" y="208" type="curve"/>
      <point x="406" y="208"/>
      <point x="352" y="249"/>
      <point x="352" y="325" type="curve"/>
      <point x="352" y="403"/>
      <point x="412" y="440"/>
      <point x="496" y="440" type="curve"/>
      <point x="533" y="440"/>
      <point x="559" y="435"/>
      <point x="585" y="426" type="curve"/>
      <point x="667" y="463"/>
      <point x="586" y="431"/>
    </contour>
  </outline>
</glyph>
<glyph name="ordfeminine" format="1">
  <advance width="552"/>
  <unicode hex="00AA"/>
  <outline>
    <contour>
      <point x="84" y="728" type="curve"/>
      <point x="84" y="667"/>
      <point x="84" y="709"/>
      <point x="84" y="648" type="curve"/>
      <point x="140" y="648"/>
      <point x="89" y="648"/>
      <point x="145" y="648" type="curve"/>
      <point x="145" y="709"/>
      <point x="145" y="667"/>
      <point x="145" y="728" type="curve"/>
      <point x="89" y="728"/>
      <point x="140" y="728"/>
    </contour>
    <contour>
      <point x="431" y="426" type="curve"/>
      <point x="431" y="513"/>
      <point x="431" y="586"/>
      <point x="431" y="673" type="curve"/>
      <point x="431" y="759"/>
      <point x="352" y="779"/>
      <point x="257" y="779" type="curve"/>
      <point x="185" y="779"/>
      <point x="127" y="758"/>
      <point x="84" y="728" type="curve"/>
      <point x="111" y="682"/>
      <point x="90" y="721"/>
      <point x="117" y="676" type="curve"/>
      <point x="146" y="699"/>
      <point x="190" y="720"/>
      <point x="246" y="720" type="curve"/>
      <point x="303" y="720"/>
      <point x="353" y="710"/>
      <point x="353" y="659" type="curve"/>
      <point x="353" y="578"/>
      <point x="353" y="507"/>
      <point x="353" y="426" type="curve"/>
      <point x="425" y="426"/>
      <point x="359" y="426"/>
    </contour>
    <contour>
      <point x="394" y="426" type="curve"/>
      <point x="426" y="426"/>
      <point x="454" y="426"/>
      <point x="487" y="426" type="curve"/>
      <point x="487" y="479"/>
      <point x="487" y="431"/>
      <point x="487" y="484" type="curve"/>
      <point x="412" y="484"/>
      <point x="469" y="484"/>
      <point x="394" y="484" type="curve"/>
      <point x="394" y="431"/>
      <point x="394" y="479"/>
    </contour>
    <contour>
      <point x="390" y="649" type="curve"/>
      <point x="325" y="643"/>
      <point x="284" y="642"/>
      <point x="219" y="635" type="curve"/>
      <point x="131" y="627"/>
      <point x="63" y="608"/>
      <point x="63" y="528" type="curve"/>
      <point x="63" y="450"/>
      <point x="126" y="421"/>
      <point x="213" y="421" type="curve"/>
      <point x="300" y="421"/>
      <point x="349" y="462"/>
      <point x="409" y="525" type="curve"/>
      <point x="375" y="552"/>
      <point x="405" y="528"/>
      <point x="372" y="555" type="curve"/>
      <point x="330" y="511"/>
      <point x="287" y="478"/>
      <point x="225" y="478" type="curve"/>
      <point x="177" y="478"/>
      <point x="139" y="490"/>
      <point x="139" y="529" type="curve"/>
      <point x="139" y="568"/>
      <point x="175" y="579"/>
      <point x="217" y="583" type="curve"/>
      <point x="284" y="589"/>
      <point x="326" y="593"/>
      <point x="393" y="600" type="curve"/>
      <point x="390" y="645"/>
      <point x="393" y="604"/>
    </contour>
  </outline>
</glyph>
<glyph name="guillemotleft" format="1">
  <advance width="711"/>
  <unicode hex="00AB"/>
  <outline>
    <contour>
      <point x="331" y="452" type="curve"/>
      <point x="286" y="430"/>
      <point x="107" y="352"/>
      <point x="61" y="330" type="curve"/>
      <point x="61" y="239"/>
      <point x="61" y="328"/>
      <point x="61" y="237" type="curve"/>
      <point x="107" y="260"/>
      <point x="286" y="339"/>
      <point x="331" y="361" type="curve"/>
      <point x="331" y="452"/>
      <point x="331" y="362"/>
    </contour>
    <contour>
      <point x="331" y="208" type="curve"/>
      <point x="286" y="230"/>
      <point x="107" y="307"/>
      <point x="61" y="330" type="curve"/>
      <point x="61" y="239"/>
      <point x="61" y="328"/>
      <point x="61" y="237" type="curve"/>
      <point x="107" y="216"/>
      <point x="286" y="139"/>
      <point x="331" y="116" type="curve"/>
      <point x="331" y="207"/>
      <point x="331" y="117"/>
    </contour>
    <contour>
      <point x="625" y="452" type="curve"/>
      <point x="579" y="430"/>
      <point x="400" y="352"/>
      <point x="355" y="330" type="curve"/>
      <point x="355" y="239"/>
      <point x="355" y="328"/>
      <point x="355" y="237" type="curve"/>
      <point x="400" y="260"/>
      <point x="579" y="339"/>
      <point x="625" y="361" type="curve"/>
      <point x="625" y="452"/>
      <point x="625" y="362"/>
    </contour>
    <contour>
      <point x="625" y="208" type="curve"/>
      <point x="579" y="230"/>
      <point x="400" y="307"/>
      <point x="355" y="330" type="curve"/>
      <point x="355" y="239"/>
      <point x="355" y="328"/>
      <point x="355" y="237" type="curve"/>
      <point x="400" y="216"/>
      <point x="579" y="139"/>
      <point x="625" y="116" type="curve"/>
      <point x="625" y="207"/>
      <point x="625" y="117"/>
    </contour>
  </outline>
</glyph>
<glyph name="logicalnot" format="1">
  <advance width="792"/>
  <unicode hex="00AC"/>
  <outline>
    <contour>
      <point x="94" y="266" type="curve"/>
      <point x="709" y="266" type="line"/>
      <point x="709" y="357"/>
      <point x="709" y="266"/>
      <point x="709" y="357" type="curve"/>
      <point x="94" y="357" type="line"/>
      <point x="94" y="266"/>
      <point x="94" y="357"/>
    </contour>
    <contour>
      <point x="709" y="144" type="curve"/>
      <point x="709" y="357" type="line"/>
      <point x="598" y="357"/>
      <point x="714" y="357"/>
      <point x="604" y="357" type="curve"/>
      <point x="604" y="144" type="line"/>
      <point x="714" y="144"/>
      <point x="598" y="144"/>
    </contour>
  </outline>
</glyph>
<glyph name="registered" format="1">
  <advance width="981"/>
  <unicode hex="00AE"/>
  <outline>
    <contour>
      <point x="147" y="323" type="curve"/>
      <point x="147" y="503"/>
      <point x="298" y="584"/>
      <point x="495" y="584" type="curve"/>
      <point x="687" y="584"/>
      <point x="834" y="499"/>
      <point x="834" y="320" type="curve"/>
      <point x="834" y="147"/>
      <point x="691" y="63"/>
      <point x="504" y="63" type="curve"/>
      <point x="304" y="63"/>
      <point x="147" y="141"/>
      <point x="147" y="323" type="curve"/>
      <point x="111" y="323"/>
      <point x="100" y="323"/>
      <point x="64" y="323" type="curve"/>
      <point x="64" y="100"/>
      <point x="255" y="3"/>
      <point x="500" y="3" type="curve"/>
      <point x="737" y="3"/>
      <point x="916" y="105"/>
      <point x="916" y="324" type="curve"/>
      <point x="916" y="544"/>
      <point x="734" y="645"/>
      <point x="495" y="645" type="curve"/>
      <point x="252" y="645"/>
      <point x="64" y="546"/>
      <point x="64" y="323" type="curve"/>
      <point x="100" y="323"/>
      <point x="111" y="323"/>
    </contour>
    <contour>
      <point x="597" y="143" type="curve"/>
      <point x="637" y="143"/>
      <point x="665" y="143"/>
      <point x="705" y="143" type="curve"/>
      <point x="705" y="211"/>
      <point x="705" y="143"/>
      <point x="705" y="211" type="curve"/>
      <point x="686" y="211"/>
      <point x="679" y="211"/>
      <point x="661" y="211" type="curve"/>
      <point x="598" y="151"/>
      <point x="657" y="212"/>
    </contour>
    <contour>
      <point x="444" y="503" type="curve"/>
      <point x="393" y="503"/>
      <point x="350" y="503"/>
      <point x="300" y="503" type="curve"/>
      <point x="300" y="436"/>
      <point x="300" y="503"/>
      <point x="300" y="436" type="curve"/>
      <point x="320" y="436"/>
      <point x="333" y="436"/>
      <point x="354" y="436" type="curve"/>
      <point x="444" y="503"/>
      <point x="354" y="436"/>
    </contour>
    <contour>
      <point x="444" y="211" type="curve"/>
      <point x="393" y="211"/>
      <point x="350" y="211"/>
      <point x="300" y="211" type="curve"/>
      <point x="300" y="143"/>
      <point x="300" y="211"/>
      <point x="300" y="143" type="curve"/>
      <point x="320" y="143"/>
      <point x="333" y="143"/>
      <point x="354" y="143" type="curve"/>
      <point x="444" y="211"/>
      <point x="354" y="143"/>
    </contour>
    <contour>
      <point x="354" y="143" type="curve"/>
      <point x="400" y="143"/>
      <point x="438" y="143"/>
      <point x="485" y="143" type="curve"/>
      <point x="485" y="211"/>
      <point x="485" y="143"/>
      <point x="485" y="211" type="curve"/>
      <point x="469" y="211"/>
      <point x="460" y="211"/>
      <point x="444" y="211" type="curve"/>
      <point x="354" y="143"/>
      <point x="444" y="211"/>
    </contour>
    <contour>
      <point x="470" y="314" type="curve"/>
      <point x="511" y="262"/>
      <point x="556" y="196"/>
      <point x="597" y="143" type="curve"/>
      <point x="661" y="207"/>
      <point x="600" y="145"/>
      <point x="661" y="211" type="curve"/>
      <point x="579" y="313" type="line"/>
      <point x="468" y="313"/>
      <point x="581" y="314"/>
    </contour>
    <contour>
      <point x="444" y="211" type="curve"/>
      <point x="444" y="308"/>
      <point x="444" y="406"/>
      <point x="444" y="503" type="curve"/>
      <point x="353" y="436"/>
      <point x="444" y="503"/>
      <point x="354" y="436" type="curve"/>
      <point x="354" y="339"/>
      <point x="354" y="241"/>
      <point x="354" y="143" type="curve"/>
      <point x="444" y="211"/>
      <point x="353" y="143"/>
    </contour>
    <contour>
      <point x="402" y="277" type="curve"/>
      <point x="426" y="277"/>
      <point x="452" y="277"/>
      <point x="476" y="277" type="curve"/>
      <point x="578" y="277"/>
      <point x="656" y="299"/>
      <point x="656" y="392" type="curve"/>
      <point x="656" y="472"/>
      <point x="585" y="503"/>
      <point x="497" y="503" type="curve"/>
      <point x="479" y="503"/>
      <point x="462" y="503"/>
      <point x="444" y="503" type="curve"/>
      <point x="354" y="436"/>
      <point x="444" y="503"/>
      <point x="354" y="436" type="curve"/>
      <point x="396" y="436"/>
      <point x="438" y="436"/>
      <point x="480" y="436" type="curve"/>
      <point x="527" y="436"/>
      <point x="567" y="429"/>
      <point x="567" y="388" type="curve"/>
      <point x="567" y="349"/>
      <point x="532" y="344"/>
      <point x="489" y="344" type="curve"/>
      <point x="460" y="344"/>
      <point x="430" y="344"/>
      <point x="402" y="344" type="curve"/>
      <point x="402" y="277"/>
      <point x="402" y="344"/>
    </contour>
  </outline>
</glyph>
<glyph name="macron" format="1">
  <advance width="386"/>
  <unicode hex="00AF"/>
  <outline>
    <contour>
      <point x="317" y="666" type="curve"/>
      <point x="222" y="666"/>
      <point x="128" y="666"/>
      <point x="33" y="666" type="curve"/>
      <point x="33" y="584"/>
      <point x="33" y="666"/>
      <point x="33" y="584" type="curve"/>
      <point x="128" y="584"/>
      <point x="222" y="584"/>
      <point x="317" y="584" type="curve"/>
      <point x="317" y="666"/>
      <point x="317" y="584"/>
    </contour>
    <contour>
      <point x="178" y="584" type="move" name="_top"/>
    </contour>
  </outline>
</glyph>
<glyph name="degree" format="1">
  <advance width="601"/>
  <unicode hex="00B0"/>
  <outline>
    <contour>
      <point x="535" y="474" type="curve"/>
      <point x="535" y="608"/>
      <point x="440" y="684"/>
      <point x="301" y="684" type="curve"/>
      <point x="161" y="684"/>
      <point x="66" y="610"/>
      <point x="66" y="476" type="curve"/>
      <point x="159" y="476"/>
      <point x="70" y="476"/>
      <point x="163" y="476" type="curve"/>
      <point x="163" y="555"/>
      <point x="215" y="604"/>
      <point x="299" y="604" type="curve"/>
      <point x="381" y="604"/>
      <point x="437" y="557"/>
      <point x="437" y="474" type="curve"/>
      <point x="437" y="391"/>
      <point x="384" y="338"/>
      <point x="301" y="338" type="curve"/>
      <point x="216" y="338"/>
      <point x="163" y="392"/>
      <point x="163" y="476" type="curve"/>
      <point x="70" y="476"/>
      <point x="159" y="476"/>
      <point x="66" y="476" type="curve"/>
      <point x="66" y="339"/>
      <point x="158" y="259"/>
      <point x="298" y="259" type="curve"/>
      <point x="439" y="259"/>
      <point x="535" y="337"/>
    </contour>
  </outline>
</glyph>
<glyph name="plusminus" format="1">
  <advance width="764"/>
  <unicode hex="00B1"/>
  <outline>
    <contour>
      <point x="69" y="20" type="line"/>
      <point x="695" y="20" type="line"/>
      <point x="695" y="111" type="line"/>
      <point x="69" y="111" type="line"/>
    </contour>
    <contour>
      <point x="69" y="266" type="curve"/>
      <point x="695" y="266" type="line"/>
      <point x="695" y="357"/>
      <point x="695" y="266"/>
      <point x="695" y="357" type="curve"/>
      <point x="69" y="357" type="line"/>
      <point x="69" y="266"/>
      <point x="69" y="357"/>
    </contour>
    <contour>
      <point x="435" y="21" type="curve"/>
      <point x="435" y="587" type="line"/>
      <point x="325" y="587"/>
      <point x="442" y="587"/>
      <point x="331" y="587" type="curve"/>
      <point x="331" y="21" type="line"/>
      <point x="442" y="21"/>
      <point x="325" y="21"/>
    </contour>
  </outline>
</glyph>
<glyph name="twosuperior" format="1">
  <advance width="594"/>
  <unicode hex="00B2"/>
  <outline>
    <contour>
      <point x="526" y="275" type="curve"/>
      <point x="526" y="319"/>
      <point x="526" y="363"/>
      <point x="526" y="408" type="curve"/>
      <point x="445" y="408"/>
      <point x="528" y="408"/>
      <point x="447" y="408" type="curve"/>
      <point x="447" y="390"/>
      <point x="447" y="373"/>
      <point x="447" y="356" type="curve"/>
      <point x="534" y="283"/>
      <point x="438" y="347"/>
    </contour>
    <contour>
      <point x="75" y="275" type="curve"/>
      <point x="256" y="275"/>
      <point x="391" y="275"/>
      <point x="526" y="275" type="curve"/>
      <point x="438" y="347"/>
      <point x="534" y="283"/>
      <point x="447" y="356" type="curve"/>
      <point x="323" y="356"/>
      <point x="198" y="356"/>
      <point x="75" y="356" type="curve"/>
      <point x="75" y="275"/>
      <point x="75" y="356"/>
    </contour>
    <contour>
      <point x="164" y="576" type="curve"/>
      <point x="201" y="615"/>
      <point x="237" y="633"/>
      <point x="289" y="633" type="curve"/>
      <point x="343" y="633"/>
      <point x="387" y="617"/>
      <point x="387" y="574" type="curve"/>
      <point x="387" y="531"/>
      <point x="351" y="514"/>
      <point x="314" y="489" type="curve"/>
      <point x="234" y="444"/>
      <point x="154" y="400"/>
      <point x="75" y="356" type="curve"/>
      <point x="78" y="277"/>
      <point x="77" y="356"/>
      <point x="81" y="277" type="curve"/>
      <point x="195" y="337"/>
      <point x="287" y="379"/>
      <point x="370" y="427" type="curve"/>
      <point x="438" y="471"/>
      <point x="496" y="502"/>
      <point x="496" y="577" type="curve"/>
      <point x="496" y="676"/>
      <point x="410" y="714"/>
      <point x="301" y="714" type="curve"/>
      <point x="210" y="714"/>
      <point x="139" y="689"/>
      <point x="91" y="624" type="curve"/>
      <point x="164" y="576"/>
      <point x="91" y="624"/>
    </contour>
    <contour>
      <point x="295" y="713" type="move" name="_top"/>
    </contour>
    <contour>
      <point x="302" y="275" type="move" name="_bottom"/>
    </contour>
  </outline>
</glyph>
<glyph name="threesuperior" format="1">
  <advance width="530"/>
  <unicode hex="00B3"/>
  <outline>
    <contour>
      <point x="118" y="595" type="curve"/>
      <point x="156" y="623"/>
      <point x="199" y="635"/>
      <point x="234" y="635" type="curve"/>
      <point x="290" y="635"/>
      <point x="335" y="626"/>
      <point x="335" y="583" type="curve"/>
      <point x="335" y="531"/>
      <point x="254" y="531"/>
      <point x="181" y="528" type="curve"/>
      <point x="181" y="461"/>
      <point x="181" y="528"/>
      <point x="181" y="461" type="curve"/>
      <point x="319" y="463"/>
      <point x="444" y="473"/>
      <point x="444" y="588" type="curve"/>
      <point x="444" y="686"/>
      <point x="356" y="712"/>
      <point x="246" y="712" type="curve"/>
      <point x="180" y="712"/>
      <point x="119" y="691"/>
      <point x="71" y="653" type="curve"/>
      <point x="118" y="595"/>
      <point x="71" y="653"/>
    </contour>
    <contour>
      <point x="67" y="306" type="curve"/>
      <point x="119" y="283"/>
      <point x="168" y="268"/>
      <point x="224" y="268" type="curve"/>
      <point x="357" y="265"/>
      <point x="466" y="290"/>
      <point x="463" y="403" type="curve"/>
      <point x="463" y="529"/>
      <point x="325" y="517"/>
      <point x="181" y="519" type="curve"/>
      <point x="181" y="459"/>
      <point x="181" y="519"/>
      <point x="181" y="459" type="curve"/>
      <point x="269" y="457"/>
      <point x="354" y="460"/>
      <point x="354" y="403" type="curve"/>
      <point x="354" y="352"/>
      <point x="299" y="342"/>
      <point x="235" y="344" type="curve"/>
      <point x="195" y="344"/>
      <point x="158" y="351"/>
      <point x="110" y="369" type="curve"/>
      <point x="67" y="306"/>
      <point x="110" y="369"/>
    </contour>
    <contour>
      <point x="260" y="713" type="move" name="_top"/>
    </contour>
    <contour>
      <point x="247" y="267" type="move" name="_bottom"/>
    </contour>
  </outline>
</glyph>
<glyph name="paragraph" format="1">
  <advance width="936"/>
  <unicode hex="00B6"/>
  <outline>
    <contour>
      <point x="555" y="639" type="curve"/>
      <point x="745" y="639"/>
      <point x="555" y="639"/>
      <point x="745" y="639" type="curve"/>
      <point x="745" y="722"/>
      <point x="745" y="639"/>
      <point x="745" y="722" type="curve"/>
      <point x="681" y="722"/>
      <point x="618" y="722"/>
      <point x="555" y="722" type="curve"/>
      <point x="555" y="639"/>
      <point x="555" y="722"/>
    </contour>
    <contour>
      <point x="555" y="0" type="curve"/>
      <point x="618" y="0"/>
      <point x="681" y="0"/>
      <point x="745" y="0" type="curve"/>
      <point x="745" y="83"/>
      <point x="745" y="0"/>
      <point x="745" y="83" type="curve"/>
      <point x="555" y="83"/>
      <point x="745" y="83"/>
      <point x="555" y="83" type="curve"/>
      <point x="555" y="0"/>
      <point x="555" y="83"/>
    </contour>
    <contour>
      <point x="555" y="83" type="curve"/>
      <point x="366" y="83"/>
      <point x="555" y="83"/>
      <point x="366" y="83" type="curve"/>
      <point x="366" y="0"/>
      <point x="366" y="83"/>
      <point x="366" y="0" type="curve"/>
      <point x="555" y="0"/>
      <point x="492" y="0"/>
      <point x="555" y="0" type="curve"/>
      <point x="555" y="83"/>
      <point x="555" y="0"/>
    </contour>
    <contour>
      <point x="535" y="375" type="curve"/>
      <point x="472" y="351"/>
      <point x="422" y="339"/>
      <point x="354" y="339" type="curve"/>
      <point x="244" y="339"/>
      <point x="154" y="380"/>
      <point x="154" y="480" type="curve"/>
      <point x="154" y="599"/>
      <point x="265" y="639"/>
      <point x="399" y="639" type="curve"/>
      <point x="450" y="639"/>
      <point x="501" y="639"/>
      <point x="551" y="639" type="curve"/>
      <point x="551" y="722"/>
      <point x="551" y="639"/>
      <point x="551" y="722" type="curve"/>
      <point x="495" y="722"/>
      <point x="440" y="722"/>
      <point x="384" y="722" type="curve"/>
      <point x="196" y="722"/>
      <point x="44" y="653"/>
      <point x="44" y="484" type="curve"/>
      <point x="44" y="324"/>
      <point x="186" y="259"/>
      <point x="363" y="256" type="curve"/>
      <point x="438" y="256"/>
      <point x="501" y="275"/>
      <point x="570" y="302" type="curve"/>
      <point x="535" y="375"/>
      <point x="570" y="302"/>
    </contour>
    <contour>
      <point x="612" y="0" type="curve"/>
      <point x="612" y="241"/>
      <point x="612" y="481"/>
      <point x="612" y="722" type="curve"/>
      <point x="501" y="722"/>
      <point x="612" y="722"/>
      <point x="501" y="722" type="curve"/>
      <point x="501" y="481"/>
      <point x="501" y="241"/>
      <point x="501" y="0" type="curve"/>
      <point x="612" y="0"/>
      <point x="501" y="0"/>
    </contour>
    <contour>
      <point x="846" y="0" type="curve"/>
      <point x="846" y="241"/>
      <point x="846" y="481"/>
      <point x="846" y="722" type="curve"/>
      <point x="735" y="722"/>
      <point x="846" y="722"/>
      <point x="735" y="722" type="curve"/>
      <point x="735" y="481"/>
      <point x="735" y="241"/>
      <point x="735" y="0" type="curve"/>
      <point x="846" y="0"/>
      <point x="735" y="0"/>
    </contour>
  </outline>
</glyph>
<glyph name="periodcentered" format="1">
  <advance width="276"/>
  <unicode hex="00B7"/>
  <outline>
    <contour>
      <point x="204" y="440" type="curve"/>
      <point x="204" y="477"/>
      <point x="176" y="495"/>
      <point x="137" y="495" type="curve"/>
      <point x="98" y="495"/>
      <point x="72" y="475"/>
      <point x="72" y="440" type="curve"/>
      <point x="196" y="440"/>
      <point x="79" y="440"/>
      <point x="204" y="440" type="curve"/>
      <point x="204" y="402"/>
      <point x="176" y="386"/>
      <point x="136" y="386" type="curve"/>
      <point x="97" y="386"/>
      <point x="72" y="404"/>
      <point x="72" y="440" type="curve"/>
      <point x="196" y="440"/>
      <point x="79" y="440"/>
    </contour>
  </outline>
</glyph>
<glyph name="cedilla" format="1">
  <advance width="435"/>
  <unicode hex="00B8"/>
  <outline>
    <contour>
      <point x="184" y="123" type="curve"/>
      <point x="166" y="100"/>
      <point x="108" y="22"/>
      <point x="91" y="-1" type="curve"/>
      <point x="166" y="-67"/>
      <point x="91" y="-1"/>
      <point x="166" y="-67" type="curve"/>
      <point x="186" y="-41"/>
      <point x="249" y="39"/>
      <point x="269" y="66" type="curve"/>
      <point x="184" y="123"/>
      <point x="269" y="66"/>
    </contour>
    <contour>
      <point x="166" y="-68" type="curve"/>
      <point x="176" y="-62"/>
      <point x="185" y="-59"/>
      <point x="197" y="-59" type="curve"/>
      <point x="216" y="-59"/>
      <point x="231" y="-67"/>
      <point x="231" y="-86" type="curve"/>
      <point x="231" y="-109"/>
      <point x="209" y="-115"/>
      <point x="182" y="-115" type="curve"/>
      <point x="153" y="-115"/>
      <point x="130" y="-109"/>
      <point x="95" y="-95" type="curve"/>
      <point x="64" y="-158"/>
      <point x="95" y="-95"/>
      <point x="64" y="-158" type="curve"/>
      <point x="103" y="-175"/>
      <point x="135" y="-184"/>
      <point x="178" y="-184" type="curve"/>
      <point x="264" y="-184"/>
      <point x="333" y="-160"/>
      <point x="333" y="-83" type="curve"/>
      <point x="333" y="-13"/>
      <point x="277" y="20"/>
      <point x="203" y="20" type="curve"/>
      <point x="161" y="20"/>
      <point x="131" y="13"/>
      <point x="91" y="-1" type="curve"/>
      <point x="166" y="-68"/>
      <point x="91" y="-1"/>
    </contour>
    <contour>
      <point x="251" y="66" type="move" name="_bottom"/>
    </contour>
  </outline>
</glyph>
<glyph name="onesuperior" format="1">
  <advance width="449"/>
  <unicode hex="00B9"/>
  <outline>
    <contour>
      <point x="204" y="275" type="curve"/>
      <point x="264" y="275"/>
      <point x="324" y="275"/>
      <point x="384" y="275" type="curve"/>
      <point x="384" y="356"/>
      <point x="384" y="269"/>
      <point x="384" y="350" type="curve"/>
      <point x="360" y="350"/>
      <point x="336" y="350"/>
      <point x="313" y="350" type="curve"/>
      <point x="204" y="269"/>
      <point x="313" y="356"/>
    </contour>
    <contour>
      <point x="313" y="350" type="curve"/>
      <point x="252" y="350"/>
      <point x="191" y="350"/>
      <point x="129" y="350" type="curve"/>
      <point x="129" y="269"/>
      <point x="129" y="356"/>
      <point x="129" y="275" type="curve"/>
      <point x="154" y="275"/>
      <point x="179" y="275"/>
      <point x="204" y="275" type="curve"/>
      <point x="313" y="356"/>
      <point x="204" y="269"/>
    </contour>
    <contour>
      <point x="104" y="537" type="line"/>
      <point x="313" y="702" type="line"/>
      <point x="204" y="705" type="line"/>
      <point x="57" y="597" type="line"/>
    </contour>
    <contour>
      <point x="313" y="350" type="curve"/>
      <point x="313" y="705" type="line"/>
      <point x="204" y="705" type="line"/>
      <point x="204" y="275" type="line"/>
      <point x="313" y="356"/>
      <point x="204" y="269"/>
    </contour>
    <contour>
      <point x="252" y="704" type="move" name="_top"/>
    </contour>
    <contour>
      <point x="261" y="275" type="move" name="_bottom"/>
    </contour>
  </outline>
</glyph>
<glyph name="ordmasculine" format="1">
  <advance width="549"/>
  <unicode hex="00BA"/>
  <outline>
    <contour>
      <point x="137" y="603" type="curve"/>
      <point x="137" y="680"/>
      <point x="190" y="724"/>
      <point x="271" y="724" type="curve"/>
      <point x="356" y="724"/>
      <point x="412" y="680"/>
      <point x="412" y="602" type="curve"/>
      <point x="412" y="522"/>
      <point x="358" y="478"/>
      <point x="278" y="478" type="curve"/>
      <point x="193" y="478"/>
      <point x="137" y="521"/>
      <point x="137" y="603" type="curve"/>
      <point x="69" y="603"/>
      <point x="126" y="603"/>
      <point x="59" y="603" type="curve"/>
      <point x="59" y="481"/>
      <point x="147" y="419"/>
      <point x="275" y="419" type="curve"/>
      <point x="401" y="419"/>
      <point x="490" y="480"/>
      <point x="490" y="602" type="curve"/>
      <point x="490" y="720"/>
      <point x="403" y="782"/>
      <point x="275" y="782" type="curve"/>
      <point x="147" y="782"/>
      <point x="59" y="720"/>
      <point x="59" y="603" type="curve"/>
      <point x="126" y="603"/>
      <point x="69" y="603"/>
    </contour>
  </outline>
</glyph>
<glyph name="guillemotright" format="1">
  <advance width="711"/>
  <unicode hex="00BB"/>
  <outline>
    <contour>
      <point x="380" y="452" type="curve"/>
      <point x="426" y="430"/>
      <point x="604" y="352"/>
      <point x="650" y="330" type="curve"/>
      <point x="650" y="239"/>
      <point x="650" y="328"/>
      <point x="650" y="237" type="curve"/>
      <point x="604" y="260"/>
      <point x="426" y="339"/>
      <point x="380" y="361" type="curve"/>
      <point x="380" y="452"/>
      <point x="380" y="362"/>
    </contour>
    <contour>
      <point x="380" y="208" type="curve"/>
      <point x="426" y="230"/>
      <point x="604" y="307"/>
      <point x="650" y="330" type="curve"/>
      <point x="650" y="239"/>
      <point x="650" y="328"/>
      <point x="650" y="237" type="curve"/>
      <point x="604" y="216"/>
      <point x="426" y="139"/>
      <point x="380" y="116" type="curve"/>
      <point x="380" y="207"/>
      <point x="380" y="117"/>
    </contour>
    <contour>
      <point x="87" y="452" type="curve"/>
      <point x="132" y="430"/>
      <point x="311" y="352"/>
      <point x="356" y="330" type="curve"/>
      <point x="356" y="239"/>
      <point x="356" y="328"/>
      <point x="356" y="237" type="curve"/>
      <point x="311" y="260"/>
      <point x="132" y="339"/>
      <point x="87" y="361" type="curve"/>
      <point x="87" y="452"/>
      <point x="87" y="362"/>
    </contour>
    <contour>
      <point x="87" y="208" type="curve"/>
      <point x="132" y="230"/>
      <point x="311" y="307"/>
      <point x="356" y="330" type="curve"/>
      <point x="356" y="239"/>
      <point x="356" y="328"/>
      <point x="356" y="237" type="curve"/>
      <point x="311" y="216"/>
      <point x="132" y="139"/>
      <point x="87" y="116" type="curve"/>
      <point x="87" y="207"/>
      <point x="87" y="117"/>
    </contour>
  </outline>
</glyph>
<glyph name="onequarter" format="1">
  <advance width="1190"/>
  <unicode hex="00BC"/>
  <outline>
    <contour>
      <point x="391" y="-53" type="line"/>
      <point x="928" y="722" type="line"/>
      <point x="825" y="722" type="line"/>
      <point x="288" y="-53" type="line"/>
    </contour>
    <contour>
      <point x="187" y="294" type="curve"/>
      <point x="247" y="294"/>
      <point x="307" y="294"/>
      <point x="367" y="294" type="curve"/>
      <point x="367" y="376"/>
      <point x="367" y="289"/>
      <point x="367" y="370" type="curve"/>
      <point x="343" y="370"/>
      <point x="320" y="370"/>
      <point x="296" y="370" type="curve"/>
      <point x="187" y="289"/>
      <point x="296" y="376"/>
    </contour>
    <contour>
      <point x="297" y="370" type="curve"/>
      <point x="235" y="370"/>
      <point x="174" y="370"/>
      <point x="112" y="370" type="curve"/>
      <point x="112" y="289"/>
      <point x="112" y="376"/>
      <point x="112" y="294" type="curve"/>
      <point x="137" y="294"/>
      <point x="162" y="294"/>
      <point x="188" y="294" type="curve"/>
      <point x="297" y="376"/>
      <point x="188" y="289"/>
    </contour>
    <contour>
      <point x="87" y="557" type="line"/>
      <point x="297" y="721" type="line"/>
      <point x="188" y="725" type="line"/>
      <point x="40" y="616" type="line"/>
    </contour>
    <contour>
      <point x="297" y="370" type="curve"/>
      <point x="297" y="725" type="line"/>
      <point x="188" y="725" type="line"/>
      <point x="188" y="294" type="line"/>
      <point x="297" y="376"/>
      <point x="188" y="289"/>
    </contour>
    <contour>
      <point x="1150" y="148" type="line"/>
      <point x="689" y="148" type="line"/>
      <point x="689" y="71" type="line"/>
      <point x="1150" y="71" type="line"/>
    </contour>
    <contour>
      <point x="715" y="81" type="line"/>
      <point x="1026" y="378" type="line"/>
      <point x="939" y="392" type="line"/>
      <point x="689" y="148" type="line"/>
    </contour>
    <contour>
      <point x="1048" y="-60" type="line"/>
      <point x="1048" y="392" type="line"/>
      <point x="939" y="392" type="line"/>
      <point x="939" y="-60" type="line"/>
    </contour>
    <contour>
      <point x="994" y="14" type="line"/>
      <point x="863" y="14" type="line"/>
      <point x="863" y="-60" type="line"/>
      <point x="994" y="-60" type="line"/>
    </contour>
    <contour>
      <point x="994" y="-60" type="line"/>
      <point x="1120" y="-60" type="line"/>
      <point x="1120" y="14" type="line"/>
      <point x="994" y="14" type="line"/>
    </contour>
  </outline>
</glyph>
